<svg width="20" height="19" viewBox="0 0 20 19" fill="none" xmlns="http://www.w3.org/2000/svg">
<mask id="mask0" mask-type="alpha" maskUnits="userSpaceOnUse" x="0" y="0" width="20" height="19">
<path d="M19 17.1C19.552 17.1 20 17.5256 20 18.05C20 18.5744 19.552 19 19 19H1C0.448 19 0 18.5744 0 18.05C0 17.5256 0.448 17.1 1 17.1H19ZM19 0C19.552 0 20 0.4256 20 0.95V14.25C20 14.7744 19.552 15.2 19 15.2H1C0.448 15.2 0 14.7744 0 14.25V8.55C0 8.0256 0.448 7.6 1 7.6H6V4.75C6 4.2256 6.448 3.8 7 3.8H12V0.95C12 0.4256 12.448 0 13 0H19ZM18 1.9H14V13.3H18V1.9ZM12 5.7H8V13.3H12V5.7ZM6 9.5H2V13.3H6V9.5Z" fill="white"/>
</mask>
<g mask="url(#mask0)">
<path d="M19 17.1C19.552 17.1 20 17.5256 20 18.05C20 18.5744 19.552 19 19 19H1C0.448 19 0 18.5744 0 18.05C0 17.5256 0.448 17.1 1 17.1H19ZM19 0C19.552 0 20 0.4256 20 0.95V14.25C20 14.7744 19.552 15.2 19 15.2H1C0.448 15.2 0 14.7744 0 14.25V8.55C0 8.0256 0.448 7.6 1 7.6H6V4.75C6 4.2256 6.448 3.8 7 3.8H12V0.95C12 0.4256 12.448 0 13 0H19ZM18 1.9H14V13.3H18V1.9ZM12 5.7H8V13.3H12V5.7ZM6 9.5H2V13.3H6V9.5Z" fill="#919EAB"/>
<path d="M21 0H0V20H21V0Z" fill="white"/>
</g>
</svg>
