<svg width="20" height="24" viewBox="0 0 20 24" fill="none" xmlns="http://www.w3.org/2000/svg">
<path fill-rule="evenodd" clip-rule="evenodd" d="M16.667 18.0771H18.3337V19.7694H1.66699V18.0771H3.33366V12.154C3.33366 8.41545 6.31843 5.38477 10.0003 5.38477C13.6822 5.38477 16.667 8.41545 16.667 12.154V18.0771ZM15.0003 18.0771V12.154C15.0003 9.35009 12.7617 7.07707 10.0003 7.07707C7.23886 7.07707 5.00029 9.35009 5.00029 12.154V18.0771H15.0003ZM7.50029 21.4617H12.5003V23.154H7.50029V21.4617Z" fill="#636E75"/>
<path d="M14.5456 5.53846C16.0519 5.53846 17.2729 4.29863 17.2729 2.76923C17.2729 1.23983 16.0519 0 14.5456 0C13.0394 0 11.8184 1.23983 11.8184 2.76923C11.8184 4.29863 13.0394 5.53846 14.5456 5.53846Z" fill="#FF3D60"/>
</svg>
