<svg width="24" height="24" viewBox="0 0 24 24" fill="none" xmlns="http://www.w3.org/2000/svg">
<path d="M12 24C18.6274 24 24 18.6274 24 12C24 5.37258 18.6274 0 12 0C5.37258 0 0 5.37258 0 12C0 18.6274 5.37258 24 12 24Z" fill="#DFE8F8" fill-opacity="0.5"/>
<path fill-rule="evenodd" clip-rule="evenodd" d="M8.5649 7.43353L11.9992 10.8676L15.4335 7.43353C15.746 7.12111 16.2525 7.12111 16.5649 7.43353C16.8773 7.74595 16.8773 8.25248 16.5649 8.5649L13.1308 11.9992L16.5649 15.4335C16.8773 15.746 16.8773 16.2525 16.5649 16.5649C16.2525 16.8773 15.746 16.8773 15.4335 16.5649L11.9992 13.1308L8.5649 16.5649C8.25248 16.8773 7.74595 16.8773 7.43353 16.5649C7.12111 16.2525 7.12111 15.746 7.43353 15.4335L10.8676 11.9992L7.43353 8.5649C7.12111 8.25248 7.12111 7.74595 7.43353 7.43353C7.74595 7.12111 8.25248 7.12111 8.5649 7.43353Z" fill="#332C2C"/>
</svg>
