<svg width="32" height="32" viewBox="0 0 32 32" fill="none" xmlns="http://www.w3.org/2000/svg">
<path d="M16 32C24.8366 32 32 24.8366 32 16C32 7.16344 24.8366 0 16 0C7.16344 0 0 7.16344 0 16C0 24.8366 7.16344 32 16 32Z" fill="#DFE8F8" fill-opacity="0.5"/>
<path fill-rule="evenodd" clip-rule="evenodd" d="M11.4205 9.91203L15.9996 14.4908L20.5787 9.91203C20.9953 9.49547 21.6706 9.49547 22.0872 9.91203C22.5037 10.3286 22.5037 11.004 22.0872 11.4205L17.5084 15.9996L22.0872 20.5787C22.5037 20.9953 22.5037 21.6706 22.0872 22.0872C21.6706 22.5037 20.9953 22.5037 20.5787 22.0872L15.9996 17.5084L11.4205 22.0872C11.004 22.5037 10.3286 22.5037 9.91203 22.0872C9.49547 21.6706 9.49547 20.9953 9.91203 20.5787L14.4908 15.9996L9.91203 11.4205C9.49547 11.004 9.49547 10.3286 9.91203 9.91203C10.3286 9.49547 11.004 9.49547 11.4205 9.91203Z" fill="#332C2C"/>
</svg>
