<svg width="17" height="16" viewBox="0 0 17 16" fill="none" xmlns="http://www.w3.org/2000/svg">
<path fill-rule="evenodd" clip-rule="evenodd" d="M6.96606 1.19803C7.23011 1.49115 7.60612 1.6585 8.00063 1.6585C8.39515 1.6585 8.77115 1.49115 9.03521 1.19803L9.70832 0.459456C10.1036 0.0219613 10.7314 -0.119481 11.2762 0.106234C11.8209 0.33195 12.1647 0.87599 12.1347 1.46486L12.0841 2.46101C12.0644 2.85398 12.2117 3.23697 12.4897 3.51539C12.7677 3.79381 13.1505 3.9417 13.5435 3.92251L14.5397 3.87199C15.1281 3.84298 15.6713 4.1871 15.8964 4.73158C16.1216 5.27605 15.9801 5.90328 15.5429 6.29834L14.8015 6.96718C14.5088 7.2316 14.3417 7.60763 14.3417 8.00212C14.3417 8.3966 14.5088 8.77263 14.8015 9.03705L15.5429 9.70589C15.9804 10.1012 16.1219 10.729 15.8962 11.2737C15.6704 11.8185 15.1264 12.1622 14.5375 12.1322L13.5414 12.0817C13.1475 12.0615 12.7635 12.2091 12.4847 12.4879C12.2058 12.7668 12.0582 13.1508 12.0785 13.5446L12.129 14.5408C12.1551 15.1266 11.8118 15.666 11.2702 15.8905C10.7285 16.115 10.1042 15.9765 9.70832 15.5441L9.03877 14.8034C8.77448 14.5106 8.39856 14.3436 8.00419 14.3436C7.60982 14.3436 7.23391 14.5106 6.96961 14.8034L6.29721 15.5441C5.90188 15.9786 5.27654 16.1186 4.73364 15.8942C4.19073 15.6698 3.84681 15.1291 3.87371 14.5422L3.92494 13.5461C3.9452 13.1522 3.79759 12.7682 3.51873 12.4894C3.23986 12.2105 2.85587 12.0629 2.46202 12.0831L1.46587 12.1337C0.877235 12.1644 0.332965 11.8213 0.106747 11.2771C-0.11947 10.7328 0.0213239 10.105 0.458331 9.70945L1.19904 9.0406C1.49178 8.77618 1.65885 8.40015 1.65885 8.00567C1.65885 7.61119 1.49178 7.23516 1.19904 6.97074L0.458331 6.29834C0.0227897 5.90325 -0.117796 5.27725 0.106989 4.73387C0.331774 4.1905 0.873522 3.84676 1.46089 3.87484L2.45704 3.92536C2.85166 3.94611 3.23652 3.7983 3.5158 3.51874C3.79509 3.23919 3.94252 2.85418 3.92139 2.45959L3.87371 1.46272C3.84617 0.875613 4.18986 0.33431 4.73292 0.109495C5.27599 -0.11532 5.90171 0.0246677 6.29721 0.459456L6.96606 1.19803Z" fill="#92929D"/>
<circle cx="8.00072" cy="8.00072" r="3.35619" fill="#92929D" stroke="white" stroke-width="3" stroke-linecap="round" stroke-linejoin="round"/>
</svg>
