<svg width="21" height="18" viewBox="0 0 21 18" fill="none" xmlns="http://www.w3.org/2000/svg">
<path d="M17.2478 18C17.6084 18.0009 17.9186 17.7358 17.9865 17.3688C18.0544 17.0018 17.8608 16.6366 17.5254 16.4992L12.4865 14.4261C12.1946 14.3123 12.001 14.0231 12.0004 13.6998V12.2519C11.9987 12.0763 12.0566 11.9057 12.1639 11.7698C13.4333 10.2111 14.1661 8.25885 14.2467 6.22084C14.2467 2.4168 12.26 0.0326594 9.06227 0C7.26119 0.00557466 5.59967 1.00619 4.70315 2.62519C2.35328 6.83826 4.97775 10.6905 5.83907 11.7698C5.94392 11.9049 5.99968 12.0739 5.99663 12.2473V13.6936C5.9947 14.0213 5.79673 14.3132 5.49995 14.4261L0.47458 16.4946C0.139498 16.6318 -0.0541333 16.9966 0.0133514 17.3634C0.080836 17.7302 0.390379 17.9955 0.750683 17.9953L17.2478 18Z" fill="white"/>
<path d="M20.248 17.5H20.2491C20.3557 17.5003 20.4686 17.4198 20.4948 17.2779C20.5216 17.1334 20.4427 17.0056 20.3359 16.9619L20.3352 16.9616L15.3001 14.8901C14.8113 14.6972 14.5014 14.2194 14.5004 13.7008L14.5004 13.6998L14.5004 12.254V12.2519H15.0004C14.9987 12.0763 15.0566 11.9057 15.1639 11.7698L20.248 17.5ZM20.248 17.5L3.75082 17.4953H3.75046C3.64387 17.4954 3.5312 17.4148 3.5051 17.2729C3.47854 17.1285 3.55741 17.0009 3.66411 16.9572L3.66489 16.9569L8.6848 14.8907C9.17856 14.6995 9.49355 14.2194 9.49662 13.6966H9.49663V13.6936V12.2511C9.50052 11.9672 9.40887 11.6885 9.23409 11.4633L9.23413 11.4633L9.22988 11.458C8.38128 10.3946 5.95472 6.78639 8.13982 2.86875L8.14057 2.86741C8.95172 1.40257 10.4481 0.506216 12.0605 0.500009C13.525 0.515784 14.6761 1.06419 15.4695 2.01625C16.2702 2.97698 16.745 4.39624 16.7467 6.21094L20.248 17.5Z" fill="white" stroke="#4F1699"/>
</svg>
