<svg width="15" height="13" viewBox="0 0 15 13" fill="none" xmlns="http://www.w3.org/2000/svg">
<path d="M8.33857 0.414283L14.9009 11.8203C15.0462 12.0729 15.0312 12.3727 14.8596 12.613C14.6881 12.8534 14.3881 13 14.0628 13H0.938172C0.61287 13 0.311942 12.8534 0.140385 12.613C-0.0311725 12.3727 -0.0461723 12.0729 0.0991357 11.8203L6.66143 0.414283C6.98017 -0.138094 8.01983 -0.138094 8.33857 0.414283ZM7.50047 2.60098L2.455 11.3706H12.5459L7.50047 2.60098ZM7.50047 8.92643C8.01822 8.92643 8.43794 9.29119 8.43794 9.74114C8.43794 10.1911 8.01822 10.5559 7.50047 10.5559C6.98272 10.5559 6.563 10.1911 6.563 9.74114C6.563 9.29119 6.98272 8.92643 7.50047 8.92643ZM8.43794 4.85285V8.11171H6.563V4.85285H8.43794Z" fill="#EE4E36"/>
</svg>
