<svg width="11" height="13" viewBox="0 0 11 13" fill="none" xmlns="http://www.w3.org/2000/svg">
<path fill-rule="evenodd" clip-rule="evenodd" d="M10.6053 5.99797C10.8826 6.24023 10.911 6.66139 10.6687 6.93865L6.00871 12.272C5.9005 12.3958 5.75792 12.4692 5.60896 12.4922C5.57339 12.497 5.53706 12.5 5.50003 12.5L5.59081 12.4947C5.56882 12.4975 5.54671 12.4992 5.52458 12.4998L5.50003 12.5C5.49149 12.5 5.48299 12.4998 5.47453 12.4995C5.46144 12.4986 5.44811 12.4976 5.43482 12.4961C5.41249 12.4947 5.39105 12.4915 5.36996 12.4873C5.36235 12.4844 5.35364 12.4824 5.34497 12.4802C5.18501 12.4435 5.04825 12.3485 4.95638 12.2193L0.331957 6.93936C0.0893068 6.66244 0.117087 6.24124 0.394008 5.99859C0.670928 5.75594 1.09212 5.78372 1.33477 6.06064L4.83337 10.052L4.83336 1.16667C4.83336 0.831949 5.08004 0.554845 5.40152 0.507228L5.50003 0.5C5.86822 0.5 6.1667 0.798477 6.1667 1.16667L6.16737 10.064L9.66467 6.06135C9.8827 5.81182 10.2456 5.76388 10.5182 5.93339L10.6053 5.99797Z" fill="#FC5A5A"/>
</svg>
