<svg width="24" height="24" viewBox="0 0 24 24" fill="none" xmlns="http://www.w3.org/2000/svg">
<path fill-rule="evenodd" clip-rule="evenodd" d="M12.534 2H8C5.79086 2 4 3.79086 4 6V18C4 20.2091 5.79086 22 8 22H16C18.2091 22 20 20.2091 20 18V10.4231V9.4V8.75425C20 8.29587 19.8425 7.8514 19.554 7.49524L15.7022 2.74098C15.3224 2.27227 14.7514 2 14.1482 2H13.625H12.534ZM15.625 5.82283V7.4H16.9028L15.625 5.82283ZM8 4C6.89543 4 6 4.89543 6 6V18C6 19.1046 6.89543 20 8 20H16C17.1046 20 18 19.1046 18 18V9.4H15.625C14.5204 9.4 13.625 8.50457 13.625 7.4V4H8ZM13 12.6114L13.4 12.9114C13.8418 13.2428 14.4686 13.1532 14.8 12.7114C15.1314 12.2696 15.0418 11.6428 14.6 11.3114L12.6081 9.81746C12.4396 9.68821 12.2288 9.61139 12 9.61139C11.7712 9.61139 11.5604 9.68821 11.3919 9.81746L9.4 11.3114C8.95817 11.6428 8.86863 12.2696 9.2 12.7114C9.53137 13.1532 10.1582 13.2428 10.6 12.9114L11 12.6114V16.5C11 17.0523 11.4477 17.5 12 17.5C12.5523 17.5 13 17.0523 13 16.5V12.6114Z" fill="white"/>
</svg>
