<svg width="50" height="50" viewBox="0 0 50 50" fill="none" xmlns="http://www.w3.org/2000/svg">
<circle cx="25" cy="25" r="25" fill="#F6EFFF"/>
<path d="M36.0003 18.5V35.0003H16.5C15.675 35.0003 15 34.3252 15 33.5002V20C15 19.175 15.675 18.5 16.5 18.5H36.0003Z" fill="#C395FE"/>
<path d="M36.0001 23V30.5001H32.2501C30.18 30.5001 28.5 28.8201 28.5 26.7501C28.5 24.68 30.18 23 32.2501 23H36.0001Z" fill="#B781FE"/>
<path d="M32.25 27.5C32.6642 27.5 33 27.1642 33 26.75C33 26.3358 32.6642 26 32.25 26C31.8358 26 31.5 26.3358 31.5 26.75C31.5 27.1642 31.8358 27.5 32.25 27.5Z" fill="#E3CEFF"/>
<path d="M18 18.5001L22.5001 14L27.0001 18.5001H18Z" fill="#E3CEFF"/>
<path d="M24 18.5001L28.5001 14L33.0001 18.5001H24Z" fill="#E3CEFF"/>
<path d="M36 23H39V30.5001H36V23Z" fill="#E3CEFF"/>
</svg>
