<svg width="20" height="19" viewBox="0 0 20 19" fill="none" xmlns="http://www.w3.org/2000/svg">
<path d="M13 12.3496H7V18.0496H13V12.3496Z" fill="white" fill-opacity="0.2"/>
<mask id="mask0" mask-type="alpha" maskUnits="userSpaceOnUse" x="0" y="0" width="20" height="19">
<path d="M19.6637 7.8394L10.6637 0.2394C10.2847 -0.0798 9.71473 -0.0798 9.33573 0.2394L7.99973 1.368V0.95C7.99973 0.4256 7.55273 7.45059e-09 6.99973 7.45059e-09H2.99973C2.44673 7.45059e-09 1.99973 0.4256 1.99973 0.95V6.43435L0.335729 7.8394C-0.0772708 8.189 -0.114271 8.78845 0.252729 9.18175C0.618729 9.57315 1.25073 9.6064 1.66373 9.2606L1.99973 8.97655V18.05C1.99973 18.5744 2.44673 19 2.99973 19H16.9997C17.5527 19 17.9997 18.5744 17.9997 18.05V8.97655L18.3357 9.2606C18.5257 9.42115 18.7637 9.5 18.9997 9.5C19.2747 9.5 19.5497 9.39265 19.7467 9.18175C20.1137 8.78845 20.0767 8.189 19.6637 7.8394ZM15.9997 17.1H13.9997V12.35C13.9997 11.8256 13.5527 11.4 12.9997 11.4H6.99973C6.44673 11.4 5.99973 11.8256 5.99973 12.35V17.1H3.99973V7.28745L9.99973 2.2211L15.9997 7.28745V17.1ZM7.99973 17.1H11.9997V13.3H7.99973V17.1ZM3.99973 1.9H5.99973V3.0571L3.99973 4.7462V1.9Z" fill="white"/>
</mask>
<g mask="url(#mask0)">
<path d="M19.6637 7.8394L10.6637 0.2394C10.2847 -0.0798 9.71473 -0.0798 9.33573 0.2394L7.99973 1.368V0.95C7.99973 0.4256 7.55273 7.45059e-09 6.99973 7.45059e-09H2.99973C2.44673 7.45059e-09 1.99973 0.4256 1.99973 0.95V6.43435L0.335729 7.8394C-0.0772708 8.189 -0.114271 8.78845 0.252729 9.18175C0.618729 9.57315 1.25073 9.6064 1.66373 9.2606L1.99973 8.97655V18.05C1.99973 18.5744 2.44673 19 2.99973 19H16.9997C17.5527 19 17.9997 18.5744 17.9997 18.05V8.97655L18.3357 9.2606C18.5257 9.42115 18.7637 9.5 18.9997 9.5C19.2747 9.5 19.5497 9.39265 19.7467 9.18175C20.1137 8.78845 20.0767 8.189 19.6637 7.8394ZM15.9997 17.1H13.9997V12.35C13.9997 11.8256 13.5527 11.4 12.9997 11.4H6.99973C6.44673 11.4 5.99973 11.8256 5.99973 12.35V17.1H3.99973V7.28745L9.99973 2.2211L15.9997 7.28745V17.1ZM7.99973 17.1H11.9997V13.3H7.99973V17.1ZM3.99973 1.9H5.99973V3.0571L3.99973 4.7462V1.9Z" fill="#919EAB"/>
<path d="M21 0H0V20H21V0Z" fill="white"/>
</g>
</svg>
