<svg width="44" height="44" viewBox="0 0 44 44" fill="none" xmlns="http://www.w3.org/2000/svg">
<g filter="url(#filter0_d)">
<path d="M42 20C42 8.9543 33.0457 0 22 0C10.9543 0 2 8.9543 2 20C2 31.0457 10.9543 40 22 40C33.0457 40 42 31.0457 42 20Z" fill="black"/>
</g>
<path d="M42 20C42 8.9543 33.0457 0 22 0C10.9543 0 2 8.9543 2 20C2 31.0457 10.9543 40 22 40C33.0457 40 42 31.0457 42 20Z" fill="white"/>
<path d="M22 0C33.0457 0 42 8.9543 42 20C42 31.0457 33.0457 40 22 40C10.9543 40 2 31.0457 2 20C2 8.9543 10.9543 0 22 0Z" fill="#4F1699"/>
<path opacity="0.1" d="M22 0.5C27.3848 0.5 32.2598 2.68261 35.7886 6.21142C39.3174 9.74022 41.5 14.6152 41.5 20C41.5 25.3848 39.3174 30.2598 35.7886 33.7886C32.2598 37.3174 27.3848 39.5 22 39.5C16.6152 39.5 11.7402 37.3174 8.21142 33.7886C4.68261 30.2598 2.5 25.3848 2.5 20C2.5 14.6152 4.68261 9.74022 8.21142 6.21142C11.7402 2.68261 16.6152 0.5 22 0.5Z" stroke="#363648"/>
<path d="M29.5858 17.1844L22.5814 12.1813C22.2336 11.9331 21.7665 11.9331 21.4186 12.1813L14.4142 17.1844C13.9647 17.5059 13.8602 18.1308 14.1817 18.5803C14.5022 19.0308 15.1286 19.1334 15.5771 18.8133L15.9963 18.5139V27.0045C15.9963 27.5571 16.4438 28.0051 16.9969 28.0051H27.0032C27.5562 28.0051 28.0038 27.5571 28.0038 27.0045V18.5139C28.3529 18.7633 28.6006 18.9995 29.0034 18.9995C29.3161 18.9995 29.623 18.8539 29.8184 18.5803C30.1399 18.1308 30.0353 17.5059 29.5858 17.1844ZM26.0025 26.0039H24.0013V23.002C24.0013 21.8967 23.1053 21.0007 22 21.0007C20.8948 21.0007 19.9988 21.8967 19.9988 23.002V26.0039H17.9975V17.0844L22 14.2255L26.0025 17.0844V26.0039Z" fill="white"/>
<defs>
<filter id="filter0_d" x="0" y="0" width="44" height="44" filterUnits="userSpaceOnUse" color-interpolation-filters="sRGB">
<feFlood flood-opacity="0" result="BackgroundImageFix"/>
<feColorMatrix in="SourceAlpha" type="matrix" values="0 0 0 0 0 0 0 0 0 0 0 0 0 0 0 0 0 0 127 0"/>
<feOffset dy="2"/>
<feGaussianBlur stdDeviation="1"/>
<feColorMatrix type="matrix" values="0 0 0 0 0 0 0 0 0 0 0 0 0 0 0 0 0 0 0.05 0"/>
<feBlend mode="normal" in2="BackgroundImageFix" result="effect1_dropShadow"/>
<feBlend mode="normal" in="SourceGraphic" in2="effect1_dropShadow" result="shape"/>
</filter>
</defs>
</svg>
