<svg width="43" height="43" viewBox="0 0 43 43" fill="none" xmlns="http://www.w3.org/2000/svg">
<path d="M36.1405 0H6.45C2.88776 0 0 2.88776 0 6.45V36.1405C0 39.7027 2.88776 42.5905 6.45 42.5905H36.1405C39.7027 42.5905 42.5905 39.7027 42.5905 36.1405V6.45C42.5905 2.88776 39.7027 0 36.1405 0Z" fill="#F6F2FC"/>
<path fill-rule="evenodd" clip-rule="evenodd" d="M18.0449 15.3859C18.0449 13.9388 19.2052 12.7656 20.6364 12.7656H22.3641C23.7954 12.7656 24.9556 13.9388 24.9556 15.3859V19.7531H18.0449V15.3859Z" stroke="#4301C2" stroke-width="1.2" stroke-linecap="round" stroke-linejoin="round"/>
<path d="M26.2031 19.7529H16.7969C16.0547 19.7529 15.4531 20.3545 15.4531 21.0967V28.8904C15.4531 29.6326 16.0547 30.2342 16.7969 30.2342H26.2031C26.9453 30.2342 27.5469 29.6326 27.5469 28.8904V21.0967C27.5469 20.3545 26.9453 19.7529 26.2031 19.7529Z" stroke="#4301C2" stroke-width="1.2" stroke-linecap="round" stroke-linejoin="round"/>
<path d="M21.5 25.867V24.1201" stroke="#4301C2" stroke-width="1.2" stroke-linecap="round" stroke-linejoin="round"/>
<path d="M21.4996 27.6141C21.9767 27.6141 22.3634 27.223 22.3634 26.7406C22.3634 26.2582 21.9767 25.8672 21.4996 25.8672C21.0225 25.8672 20.6357 26.2582 20.6357 26.7406C20.6357 27.223 21.0225 27.6141 21.4996 27.6141Z" stroke="#4301C2" stroke-width="1.2"/>
</svg>
