<svg width="21" height="21" viewBox="0 0 21 21" fill="none" xmlns="http://www.w3.org/2000/svg">
<path d="M19.2484 19.25H5.24841C4.28591 19.25 3.49841 18.4625 3.49841 17.5V7C3.49841 6.0375 4.28591 5.25 5.24841 5.25H19.2484C20.2109 5.25 20.9984 6.0375 20.9984 7V17.5C20.9984 18.4625 20.2109 19.25 19.2484 19.25Z" fill="#E5DCF0"/>
<path d="M17.5016 17.5H3.50159C2.53909 17.5 1.75159 16.7125 1.75159 15.75V5.25C1.75159 4.2875 2.53909 3.5 3.50159 3.5H17.5016C18.4641 3.5 19.2516 4.2875 19.2516 5.25V15.75C19.2516 16.7125 18.4641 17.5 17.5016 17.5Z" fill="white"/>
<path d="M19.2484 5.25H5.24841C4.28591 5.25 3.49841 6.0375 3.49841 7L12.2484 13.125L20.9984 7C20.9984 6.0375 20.2109 5.25 19.2484 5.25Z" fill="#E5DCF0"/>
<path d="M17.5016 3.5H3.50159C2.53909 3.5 1.75159 4.2875 1.75159 5.25L10.5016 11.375L19.2516 5.25C19.2516 4.2875 18.4641 3.5 17.5016 3.5Z" fill="#C4B6FF"/>
<path d="M1.75159 5.25L10.5016 11.375L19.2516 5.25" stroke="#4F1699" stroke-width="0.875" stroke-miterlimit="10" stroke-linecap="round"/>
</svg>
