<svg width="29" height="36" viewBox="0 0 29 36" fill="none" xmlns="http://www.w3.org/2000/svg">
<path d="M20.3044 9.39827e-06H1.4059C0.879317 9.39827e-06 0.453125 0.42075 0.453125 1.23791V35.3557C0.52268 35.5486 0.652359 35.7148 0.82354 35.8303C0.994721 35.9459 1.1986 36.005 1.4059 35.999H27.5004C27.7077 36.005 27.9115 35.9459 28.0827 35.8303C28.2539 35.7148 28.3836 35.5486 28.4531 35.3557V8.34274C28.4531 7.89227 28.3929 7.75172 28.2861 7.64541L20.7132 0.164882C20.6594 0.112193 20.5956 0.0705064 20.5254 0.042214C20.4553 0.0139215 20.3802 -0.000420793 20.3044 9.39827e-06Z" fill="#E9E9E0"/>
<path d="M20.6387 0.0976562V7.71423H28.3539L20.6387 0.0976562Z" fill="#D9D7CA"/>
<path d="M8.92817 21.4233C8.70073 21.4228 8.47967 21.3491 8.29847 21.2134C8.05383 21.0631 7.85612 20.8488 7.72725 20.5944C7.59839 20.3399 7.5434 20.0553 7.56837 19.7719C7.68701 18.725 8.99753 17.6303 11.4652 16.514C12.4835 14.2837 13.3078 11.972 13.9293 9.60381C13.2795 8.20735 12.6516 6.39645 13.108 5.33334C13.1638 5.15683 13.2592 4.99498 13.387 4.85977C13.5148 4.72456 13.6718 4.61945 13.8463 4.55222C14.0623 4.49245 14.284 4.45531 14.5079 4.44141C14.8365 4.44141 15.1248 4.85854 15.3293 5.11531C15.5209 5.35676 15.9571 5.8694 15.0865 9.48759C15.9495 11.2573 17.0651 12.8957 18.3993 14.3527C19.1213 14.2135 19.8541 14.1366 20.5896 14.1229C21.609 14.1229 22.2268 14.3572 22.4796 14.8437C22.5771 15.0747 22.6049 15.3285 22.5599 15.5748C22.5149 15.821 22.399 16.0492 22.2259 16.232C22.0677 16.4676 21.8529 16.6608 21.6007 16.7944C21.3484 16.928 21.0666 16.9979 20.7803 16.9979C19.7147 16.8608 18.7388 16.3374 18.0425 15.5293C16.0711 15.9493 14.1456 16.557 12.293 17.3438C11.8562 18.2969 11.3371 19.2111 10.7415 20.0764C10.0735 20.9926 9.49765 21.4233 8.92817 21.4233ZM10.6621 18.1285C9.2704 18.9006 8.70367 19.5349 8.6626 19.8926C8.65621 19.952 8.63887 20.107 8.94369 20.3376C9.03951 20.307 9.60533 20.052 10.6612 18.1294L10.6621 18.1285ZM19.5419 15.2734C20.0731 15.6762 20.2026 15.8807 20.5458 15.8807C20.6901 15.8937 20.8356 15.875 20.9718 15.8259C21.108 15.7769 21.2315 15.6986 21.3334 15.5969C21.3969 15.5148 21.4473 15.4237 21.483 15.3266C21.4027 15.2852 21.3005 15.1996 20.7183 15.1996C20.3247 15.1999 19.9315 15.2242 19.541 15.2725L19.5419 15.2734ZM14.6777 11.039C14.1902 12.6917 13.6089 14.316 12.9364 15.9041C14.3149 15.377 15.7281 14.9432 17.1664 14.6058C16.2198 13.5015 15.3859 12.3077 14.6767 11.0417L14.6777 11.039ZM14.2816 5.60633C14.0304 5.89723 13.8977 6.26988 13.9091 6.65196C13.9206 7.03404 14.0755 7.39828 14.3436 7.67399C14.9624 6.30996 14.3099 5.59281 14.2816 5.60633Z" fill="#CC4B4C"/>
<path d="M27.5004 35.9988H1.4059C1.28078 35.9988 1.15688 35.9744 1.04129 35.9272C0.925691 35.8799 0.820658 35.8106 0.732185 35.7233C0.643712 35.6359 0.573532 35.5322 0.52565 35.4181C0.477769 35.304 0.453125 35.1817 0.453125 35.0582V25.0703H28.4531V35.0582C28.4531 35.1817 28.4285 35.304 28.3806 35.4181C28.3327 35.5322 28.2625 35.6359 28.1741 35.7233C28.0856 35.8106 27.9806 35.8799 27.865 35.9272C27.7494 35.9744 27.6255 35.9988 27.5004 35.9988Z" fill="#CC4B4C"/>
<path d="M7.54133 34.0706H6.47266V27.5938H8.35995C8.64119 27.5939 8.92061 27.6383 9.18769 27.7253C9.45386 27.8111 9.70146 27.9453 9.91778 28.1208C10.1345 28.2962 10.3132 28.5128 10.4435 28.7578C10.5797 29.017 10.6487 29.3055 10.6442 29.5974C10.6483 29.9029 10.5906 30.2062 10.4745 30.4894C10.3695 30.7451 10.2084 30.9747 10.0027 31.1615C9.79034 31.3489 9.54207 31.4922 9.27256 31.5831C8.96898 31.6858 8.64981 31.7364 8.32892 31.7327H7.53677V34.0751L7.54133 34.0706ZM7.54133 28.3947V30.9597H8.52057C8.6527 30.9597 8.78386 30.9374 8.90843 30.8939C9.03979 30.8477 9.1596 30.7743 9.25979 30.6786C9.37786 30.5615 9.46633 30.4186 9.51806 30.2614C9.5886 30.0475 9.62162 29.8233 9.61571 29.5983C9.61318 29.477 9.5982 29.3563 9.57099 29.238C9.53869 29.095 9.47652 28.9603 9.38847 28.8425C9.28623 28.7083 9.15333 28.6 9.0006 28.5262C8.79418 28.4332 8.5684 28.3897 8.3417 28.3992H7.54042L7.54133 28.3947Z" fill="white"/>
<path d="M17.2011 30.6532C17.2105 31.1147 17.1518 31.5751 17.0268 32.0199C16.9303 32.357 16.7817 32.6773 16.586 32.9695C16.4262 33.2064 16.2221 33.4109 15.9846 33.5722C15.7838 33.7074 15.5672 33.8182 15.3394 33.902C15.1554 33.9694 14.9644 34.0165 14.7699 34.0425C14.6427 34.0588 14.5148 34.0687 14.3866 34.0722H11.9043V27.5945H13.881C14.3789 27.5848 14.8737 27.673 15.3366 27.8539C15.7291 28.0094 16.0842 28.2445 16.3789 28.5441C16.651 28.8251 16.8617 29.1585 16.9976 29.5234C17.1329 29.885 17.2018 30.2676 17.2011 30.6532ZM14.0316 33.2983C14.3302 33.3245 14.6307 33.2754 14.9048 33.1554C15.1789 33.0355 15.4177 32.8487 15.5986 32.6127C15.9557 32.0142 16.1232 31.3239 16.0795 30.6306C16.0796 30.3611 16.0468 30.0925 15.9819 29.8306C15.9153 29.5654 15.7855 29.3198 15.6031 29.1144C15.3941 28.8849 15.1334 28.7072 14.842 28.5954C14.4434 28.4502 14.02 28.3829 13.5954 28.3972H12.9721V33.301H14.0316V33.2983Z" fill="white"/>
<path d="M19.8361 28.3938V30.4326H22.574V31.1534H19.8361V34.0715H18.752V27.5938H22.8587V28.3938H19.8361Z" fill="white"/>
</svg>
