<svg width="20" height="20" viewBox="0 0 20 20" fill="none" xmlns="http://www.w3.org/2000/svg">
<path d="M3.98844 6.90816C4.59242 6.90997 5.18263 6.72779 5.68051 6.38586C6.17839 6.04393 6.56032 5.55848 6.77547 4.99412H9.92434C10.0558 4.9932 10.1858 4.96583 10.3065 4.91363C10.4272 4.86142 10.5362 4.78546 10.6269 4.69026C10.7176 4.59506 10.7883 4.48258 10.8346 4.3595C10.881 4.23643 10.9021 4.10529 10.8966 3.97389V3.95236C10.9018 3.82111 10.8805 3.69016 10.834 3.56729C10.7875 3.44442 10.7169 3.33214 10.6262 3.23711C10.5355 3.14208 10.4266 3.06624 10.3061 3.01409C10.1855 2.96194 10.0557 2.93455 9.92434 2.93353H6.77617C6.52829 2.28413 6.06165 1.74154 5.45666 1.39927C4.85167 1.05699 4.14623 0.936481 3.46192 1.0585C2.77762 1.18052 2.15731 1.53742 1.7079 2.0677C1.2585 2.59799 1.00815 3.26842 1 3.96348C1.00752 4.74972 1.32618 5.50096 1.88624 6.05283C2.44631 6.60469 3.20217 6.91224 3.98844 6.90816ZM3.98844 2.78907C4.30123 2.79009 4.60085 2.91518 4.82149 3.1369C5.04213 3.35862 5.16578 3.65883 5.16527 3.97163C5.16476 4.28443 5.04015 4.58424 4.81879 4.80524C4.59743 5.02624 4.29742 5.15037 3.98462 5.15037C3.67182 5.15037 3.37181 5.02624 3.15045 4.80524C2.92909 4.58424 2.80447 4.28443 2.80397 3.97163C2.80346 3.65883 2.9271 3.35862 3.14775 3.1369C3.36839 2.91518 3.668 2.79009 3.9808 2.78907H3.98844ZM3.98844 18.8515C4.6845 18.8586 5.36072 18.6198 5.89796 18.1771C6.43521 17.7345 6.79901 17.1165 6.92526 16.432C7.05151 15.7474 6.93212 15.0403 6.58811 14.4351C6.24411 13.83 5.69756 13.3656 5.04478 13.1239V10.423C5.04329 10.2907 5.01533 10.1601 4.96253 10.0387C4.90974 9.9174 4.83319 9.80788 4.73739 9.71661C4.64159 9.62534 4.52849 9.55418 4.40475 9.50732C4.28101 9.46047 4.14914 9.43886 4.01691 9.44378H3.99399C3.86191 9.43915 3.73023 9.46096 3.60669 9.50794C3.48316 9.55491 3.37026 9.62611 3.27463 9.71734C3.179 9.80857 3.10257 9.91799 3.04983 10.0392C2.99709 10.1604 2.96911 10.2909 2.96752 10.423V13.1246C2.39548 13.3277 1.8998 13.7019 1.54779 14.1964C1.19579 14.6909 1.00454 15.2818 1 15.8888C1.00623 16.677 1.3239 17.4309 1.88373 17.9859C2.44355 18.5409 3.20012 18.8521 3.98844 18.8515ZM3.98844 14.7144C4.30123 14.7154 4.60085 14.8405 4.82149 15.0622C5.04213 15.2839 5.16578 15.5841 5.16527 15.8969C5.16476 16.2097 5.04015 16.5095 4.81879 16.7305C4.59743 16.9515 4.29742 17.0757 3.98462 17.0757C3.67182 17.0757 3.37181 16.9515 3.15045 16.7305C2.92909 16.5095 2.80447 16.2097 2.80397 15.8969C2.80346 15.5841 2.9271 15.2839 3.14775 15.0622C3.36839 14.8405 3.668 14.7154 3.9808 14.7144H3.98844ZM16.0144 12.9434C15.4105 12.9413 14.8202 13.1232 14.3222 13.4649C13.8242 13.8066 13.4421 14.2918 13.2267 14.856H9.90628C9.77519 14.8575 9.64573 14.8853 9.52556 14.9377C9.40539 14.9901 9.29696 15.0661 9.20669 15.1611C9.11641 15.2562 9.04613 15.3684 9 15.4911C8.95388 15.6138 8.93285 15.7446 8.93815 15.8756V15.8978C8.93323 16.0286 8.95454 16.159 9.00083 16.2815C9.04712 16.4039 9.11745 16.5158 9.20768 16.6106C9.2979 16.7055 9.4062 16.7813 9.52618 16.8336C9.64616 16.8859 9.7754 16.9137 9.90628 16.9152H13.226C13.4096 17.4287 13.7309 17.8817 14.1547 18.2249C14.5785 18.5681 15.0885 18.7881 15.6289 18.8609C16.1693 18.9338 16.7193 18.8566 17.2189 18.6379C17.7184 18.4192 18.1481 18.0674 18.4612 17.6209C18.7742 17.1744 18.9585 16.6504 18.9938 16.1063C19.0291 15.5621 18.9141 15.0187 18.6614 14.5355C18.4086 14.0523 18.0279 13.6479 17.5609 13.3665C17.0938 13.0851 16.5583 12.9375 16.013 12.9399L16.0144 12.9434ZM16.0144 17.0625C15.7016 17.0615 15.402 16.9364 15.1814 16.7146C14.9607 16.4929 14.8371 16.1927 14.8376 15.8799C14.8381 15.5671 14.9627 15.2673 15.1841 15.0463C15.4054 14.8253 15.7054 14.7012 16.0182 14.7012C16.331 14.7012 16.6311 14.8253 16.8524 15.0463C17.0738 15.2673 17.1984 15.5671 17.1989 15.8799C17.1994 16.1927 17.0758 16.4929 16.8551 16.7146C16.6345 16.9364 16.3349 17.0615 16.0221 17.0625H16.0144ZM16.0144 1.00004C15.3196 0.996476 14.6458 1.23777 14.1112 1.68157C13.5767 2.12537 13.2155 2.74329 13.0912 3.42686C12.9668 4.11043 13.0873 4.81595 13.4314 5.41956C13.7754 6.02317 14.3211 6.48628 14.9727 6.72759V10.3564C14.9727 10.4911 14.9993 10.6245 15.051 10.749C15.1027 10.8734 15.1785 10.9864 15.274 11.0815C15.3695 11.1765 15.4829 11.2518 15.6076 11.3029C15.7322 11.354 15.8658 11.38 16.0005 11.3794H16.0214C16.1561 11.38 16.2897 11.354 16.4143 11.3029C16.539 11.2518 16.6524 11.1765 16.7479 11.0815C16.8434 10.9864 16.9192 10.8734 16.9709 10.749C17.0226 10.6245 17.0492 10.4911 17.0492 10.3564V6.73037C17.6173 6.52343 18.1085 6.14773 18.4569 5.65367C18.8054 5.15961 18.9944 4.57081 18.9987 3.96625C18.9932 3.17808 18.6763 2.42404 18.1172 1.86853C17.558 1.31301 16.8019 1.00108 16.0137 1.00073L16.0144 1.00004ZM16.0144 5.13718C15.7016 5.13617 15.402 5.01107 15.1814 4.78936C14.9607 4.56764 14.8371 4.26742 14.8376 3.95463C14.8381 3.64183 14.9627 3.34202 15.1841 3.12101C15.4054 2.90001 15.7054 2.77588 16.0182 2.77588C16.331 2.77588 16.6311 2.90001 16.8524 3.12101C17.0738 3.34202 17.1984 3.64183 17.1989 3.95463C17.1994 4.26742 17.0758 4.56764 16.8551 4.78936C16.6345 5.01107 16.3349 5.13617 16.0221 5.13718H16.0144Z" fill="#E5DCF0" stroke="white" stroke-width="0.694501"/>
<path d="M9.9193 12.5835C11.2875 12.5835 12.3966 11.4744 12.3966 10.1062C12.3966 8.73802 11.2875 7.62891 9.9193 7.62891C8.55114 7.62891 7.44202 8.73802 7.44202 10.1062C7.44202 11.4744 8.55114 12.5835 9.9193 12.5835Z" stroke="white" stroke-width="0.694501"/>
<path d="M9.92038 12.1191C11.0319 12.1191 11.933 11.218 11.933 10.1064C11.933 8.99485 11.0319 8.09375 9.92038 8.09375C8.80882 8.09375 7.90771 8.99485 7.90771 10.1064C7.90771 11.218 8.80882 12.1191 9.92038 12.1191Z" stroke="white" stroke-width="1.04175"/>
<path d="M9.91686 5.09375C10.0812 5.09375 10.2387 5.15902 10.3549 5.2752C10.4711 5.39137 10.5364 5.54894 10.5364 5.71324V8.24609H9.29736V5.71324C9.29736 5.54894 9.36263 5.39137 9.47881 5.2752C9.59499 5.15902 9.75256 5.09375 9.91686 5.09375Z" fill="white"/>
<path d="M9.91686 11.9609C10.0812 11.9609 10.2387 12.0262 10.3549 12.1424C10.4711 12.2586 10.5364 12.4161 10.5364 12.5804V14.191C10.5364 14.3553 10.4711 14.5129 10.3549 14.629C10.2387 14.7452 10.0812 14.8105 9.91686 14.8105C9.75256 14.8105 9.59499 14.7452 9.47881 14.629C9.36263 14.5129 9.29736 14.3553 9.29736 14.191V12.5804C9.29736 12.4161 9.36263 12.2586 9.47881 12.1424C9.59499 12.0262 9.75256 11.9609 9.91686 11.9609Z" fill="white"/>
<path d="M11.4659 10.4164C11.4659 10.2521 11.5312 10.0945 11.6474 9.97832C11.7636 9.86214 11.9211 9.79688 12.0854 9.79688H14.228C14.3923 9.79688 14.5498 9.86214 14.666 9.97832C14.7822 10.0945 14.8475 10.2521 14.8475 10.4164C14.8475 10.5807 14.7822 10.7382 14.666 10.8544C14.5498 10.9706 14.3923 11.0359 14.228 11.0359H12.0854C11.9211 11.0359 11.7636 10.9706 11.6474 10.8544C11.5312 10.7382 11.4659 10.5807 11.4659 10.4164Z" fill="white"/>
<path d="M5.21301 10.4164C5.21301 10.2521 5.27828 10.0945 5.39446 9.97832C5.51064 9.86214 5.66821 9.79688 5.83251 9.79688H7.50487C7.66917 9.79688 7.82674 9.86214 7.94292 9.97832C8.05909 10.0945 8.12436 10.2521 8.12436 10.4164C8.12436 10.5807 8.05909 10.7382 7.94292 10.8544C7.82674 10.9706 7.66917 11.0359 7.50487 11.0359H5.83251C5.66821 11.0359 5.51064 10.9706 5.39446 10.8544C5.27828 10.7382 5.21301 10.5807 5.21301 10.4164Z" fill="white"/>
</svg>
