<svg width="22" height="14" viewBox="0 0 22 14" fill="none" xmlns="http://www.w3.org/2000/svg">
<path d="M16.9568 2.30952H11.3302V1L7.99683 2.88571L11.3302 4.77143V3.61905H16.9568C18.6368 3.61905 19.9435 4.82381 19.9435 6.44762C19.9435 8.09762 18.6102 9.38095 16.9568 9.38095H15.8635V10.6905H16.9568C19.3568 10.6905 21.1968 8.88333 21.1968 6.5V6.47381C21.1968 4.11667 19.4102 2.30952 16.9568 2.30952Z" fill="white" stroke="white"/>
<path d="M5.23995 11.3819H10.8666V12.6914L14.2 10.8057L10.8666 8.91998V10.0724H5.23995C3.55995 10.0724 2.25328 8.8676 2.25328 7.24379C2.25328 5.59379 3.58662 4.31045 5.23995 4.31045H6.33328V3.00093H5.23995C2.83995 3.00093 0.999951 4.80807 0.999951 7.19141V7.2176C0.999951 9.57474 2.78662 11.3819 5.23995 11.3819Z" fill="white" stroke="white"/>
</svg>
