<svg width="60" height="60" viewBox="0 0 60 60" fill="none" xmlns="http://www.w3.org/2000/svg">
<path d="M30 60C46.5685 60 60 46.5685 60 30C60 13.4315 46.5685 0 30 0C13.4315 0 0 13.4315 0 30C0 46.5685 13.4315 60 30 60Z" fill="#FCF8FC"/>
<path fill-rule="evenodd" clip-rule="evenodd" d="M38.2449 26.5234V32.3956C38.2449 32.8007 37.9364 33.1296 37.5562 33.1296H32.4879L29.2915 36.0656H34.1126L38.2449 39.0017V36.0656H40.3111C40.6913 36.0656 40.9998 35.7368 40.9998 35.3316V27.2575C40.9998 26.8523 40.6913 26.5234 40.3111 26.5234H38.2449Z" fill="#7755FE"/>
<path fill-rule="evenodd" clip-rule="evenodd" d="M35.9306 20H22.8194C22.3671 20 22 20.3899 22 20.8704V30.4445C22 30.925 22.3671 31.3149 22.8194 31.3149H25.2778V36.075L31.0139 31.3149H35.9306C36.3829 31.3149 36.75 30.925 36.75 30.4445V20.8704C36.75 20.3899 36.3829 20 35.9306 20Z" fill="#7755FE"/>
</svg>
