<svg width="50" height="38" viewBox="0 0 50 38" fill="none" xmlns="http://www.w3.org/2000/svg">
<g opacity="0.74">
<path d="M20.0523 8.64816H31.9733C32.0999 8.65402 32.2263 8.63362 32.345 8.58819C32.4636 8.54277 32.572 8.47327 32.6636 8.38388C32.7552 8.29449 32.8281 8.18708 32.8779 8.06812C32.9277 7.94916 32.9534 7.82113 32.9534 7.69176C32.9534 7.56239 32.9277 7.43435 32.8779 7.3154C32.8281 7.19644 32.7552 7.08902 32.6636 6.99964C32.572 6.91025 32.4636 6.84075 32.345 6.79532C32.2263 6.7499 32.0999 6.7295 31.9733 6.73536H20.0523C19.9257 6.7295 19.7993 6.7499 19.6807 6.79532C19.562 6.84075 19.4537 6.91025 19.3621 6.99964C19.2705 7.08902 19.1976 7.19644 19.1478 7.3154C19.0979 7.43435 19.0723 7.56239 19.0723 7.69176C19.0723 7.82113 19.0979 7.94916 19.1478 8.06812C19.1976 8.18708 19.2705 8.29449 19.3621 8.38388C19.4537 8.47327 19.562 8.54277 19.6807 8.58819C19.7993 8.63362 19.9257 8.65402 20.0523 8.64816Z" fill="#4F1699" stroke="white" stroke-width="0.5"/>
<path d="M20.0523 12.2068H24.0276C24.1542 12.2126 24.2806 12.1922 24.3992 12.1468C24.5179 12.1014 24.6263 12.0319 24.7178 11.9425C24.8094 11.8531 24.8823 11.7457 24.9322 11.6267C24.982 11.5078 25.0076 11.3797 25.0076 11.2504C25.0076 11.121 24.982 10.9929 24.9322 10.874C24.8823 10.755 24.8094 10.6476 24.7178 10.5582C24.6263 10.4688 24.5179 10.3993 24.3992 10.3539C24.2806 10.3085 24.1542 10.2881 24.0276 10.2939H20.0523C19.9257 10.2881 19.7993 10.3085 19.6807 10.3539C19.562 10.3993 19.4537 10.4688 19.3621 10.5582C19.2705 10.6476 19.1976 10.755 19.1478 10.874C19.0979 10.9929 19.0723 11.121 19.0723 11.2504C19.0723 11.3797 19.0979 11.5078 19.1478 11.6267C19.1976 11.7457 19.2705 11.8531 19.3621 11.9425C19.4537 12.0319 19.562 12.1014 19.6807 12.1468C19.7993 12.1922 19.9257 12.2126 20.0523 12.2068Z" fill="#4F1699" stroke="white" stroke-width="0.5"/>
<path d="M47.062 28.5567H45.6959V26.2515C45.6956 26.1441 45.6776 26.0374 45.6426 25.9361C46.0599 25.6521 46.4486 25.3267 46.8031 24.9645C47.6774 24.0716 48.322 22.9719 48.6795 21.7632C49.0371 20.5545 49.0965 19.2743 48.8525 18.0365C48.6085 16.7987 48.0686 15.6417 47.2809 14.6684C46.4932 13.6951 45.4821 12.9357 44.3375 12.4577V1.95738C44.3375 1.70356 44.2388 1.46011 44.0631 1.28058C43.8873 1.10105 43.649 1.00013 43.4004 1H1.93763C1.68896 1 1.45047 1.10087 1.27463 1.28041C1.09879 1.45996 1.00001 1.70347 1.00001 1.95738V26.8822C0.997935 27.7705 1.32065 28.6275 1.90497 29.2855C2.38914 29.8339 3.0261 30.2178 3.73025 30.3856C3.96307 30.4447 4.20221 30.4739 4.44211 30.4724C4.47381 30.4724 4.49975 30.4724 4.51848 30.4724L32.7071 30.4685H34.0737V36.0402C34.0734 36.1661 34.0974 36.2909 34.1444 36.4073C34.1913 36.5237 34.2603 36.6296 34.3474 36.7187C34.4345 36.8079 34.538 36.8786 34.6519 36.9269C34.7658 36.9752 34.888 37 35.0113 37H47.062C47.3107 37 47.5492 36.8991 47.725 36.7196C47.9008 36.54 47.9996 36.2965 47.9996 36.0426V29.5141C47.9996 29.2601 47.9008 29.0166 47.725 28.8371C47.5492 28.6575 47.3107 28.5567 47.062 28.5567ZM46.1244 31.8212H35.9484V30.4768H40.82C40.8656 30.4768 40.9108 30.4768 40.9564 30.4729H46.1244V31.8212ZM47.1264 19.5449C47.1264 21.0692 46.5334 22.531 45.4778 23.6088C44.4222 24.6866 42.9906 25.2922 41.4978 25.2922C41.4084 25.2922 41.3196 25.2897 41.2317 25.2853H41.1899C39.7994 25.2086 38.4862 24.6079 37.5044 23.5995C36.5227 22.5911 35.9422 21.2467 35.8754 19.8264C35.8711 19.7337 35.8687 19.6401 35.8687 19.5464C35.8695 18.0222 36.4627 16.5606 37.518 15.4826C38.5733 14.4047 40.0045 13.7985 41.4973 13.7972C41.5905 13.7972 41.6822 13.7996 41.774 13.804H41.8033C43.2408 13.8857 44.5931 14.526 45.583 15.5935C46.5728 16.661 47.125 18.0748 47.1264 19.5449ZM42.4628 2.91281V11.9452C42.2754 11.9207 42.0876 11.904 41.8979 11.8961C41.7644 11.8888 41.6308 11.8844 41.4978 11.8844C40.3504 11.8845 39.2183 12.1532 38.1886 12.67C37.1589 13.1867 36.2589 13.9377 35.5579 14.8651C34.8569 15.7926 34.3735 16.8719 34.145 18.0199C33.9164 19.168 33.9487 20.3543 34.2394 21.4876C34.2887 21.6805 34.3454 21.8713 34.4094 22.06H28.7957C28.6691 22.0541 28.5427 22.0745 28.4241 22.12C28.3054 22.1654 28.1971 22.2349 28.1055 22.3243C28.0139 22.4137 27.941 22.5211 27.8912 22.64C27.8413 22.759 27.8157 22.887 27.8157 23.0164C27.8157 23.1458 27.8413 23.2738 27.8912 23.3928C27.941 23.5117 28.0139 23.6191 28.1055 23.7085C28.1971 23.7979 28.3054 23.8674 28.4241 23.9128C28.5427 23.9583 28.6691 23.9787 28.7957 23.9728H35.3725L35.3811 23.9846C35.4556 24.092 35.5329 24.1965 35.6117 24.2985C35.8086 24.5536 36.0212 24.7958 36.2482 25.0234C36.3389 25.1151 36.4312 25.2048 36.5263 25.2907H32.7076C32.5844 25.2906 32.4624 25.3152 32.3486 25.3633C32.2348 25.4114 32.1314 25.4819 32.0443 25.5708C31.9572 25.6597 31.8882 25.7653 31.8411 25.8815C31.794 25.9977 31.7698 26.1223 31.77 26.2481V28.5532L4.51848 28.5572C4.49447 28.5572 4.47045 28.5572 4.44547 28.5572C4.03582 28.5358 3.6482 28.3612 3.35655 28.0667C3.20368 27.9112 3.08253 27.7262 3.00008 27.5226C2.91763 27.3189 2.87553 27.1006 2.87621 26.8803V23.9743H21.4696C21.5962 23.9801 21.7226 23.9597 21.8412 23.9143C21.9599 23.8689 22.0683 23.7994 22.1599 23.71C22.2515 23.6206 22.3244 23.5132 22.3742 23.3942C22.424 23.2753 22.4497 23.1472 22.4497 23.0179C22.4497 22.8885 22.424 22.7605 22.3742 22.6415C22.3244 22.5226 22.2515 22.4151 22.1599 22.3258C22.0683 22.2364 21.9599 22.1669 21.8412 22.1214C21.7226 22.076 21.5962 22.0556 21.4696 22.0615H2.87333V2.91281H42.4628ZM33.6452 27.2074H43.8207V28.5572H33.6452V27.2074ZM46.1244 35.0872H35.9484V33.736H46.1244V35.0872Z" fill="#4F1699" stroke="white" stroke-width="0.5"/>
<path d="M26.0028 22.6508C25.9296 22.4696 25.8037 22.3157 25.6421 22.2099C25.4805 22.1041 25.291 22.0516 25.0992 22.0593C24.9074 22.0671 24.7225 22.1349 24.5696 22.2534C24.4167 22.3719 24.3032 22.5356 24.2443 22.7221C24.1855 22.9087 24.1842 23.1092 24.2406 23.2966C24.297 23.484 24.4083 23.6491 24.5597 23.7697C24.711 23.8904 24.8949 23.9606 25.0866 23.971C25.2783 23.9814 25.4685 23.9315 25.6315 23.8279C25.8181 23.7067 25.9574 23.5227 26.0252 23.3078C26.093 23.0928 26.0851 22.8604 26.0028 22.6508Z" fill="#4F1699" stroke="white" stroke-width="0.5"/>
<path d="M15.9755 10.0442H13.0923H13.0918V10.4504C12.9561 10.4506 12.824 10.4786 12.7025 10.5307C12.5789 10.5837 12.4661 10.6615 12.3714 10.7602L12.0797 10.4874C12.0795 10.4875 12.0794 10.4877 12.0793 10.4878C12.0791 10.488 12.079 10.4881 12.0789 10.4882L12.3713 10.7603C12.3712 10.7604 12.3711 10.7604 12.371 10.7605C12.1836 10.9559 12.0813 11.2171 12.0813 11.4858V11.4875H11.6886V11.4879C11.6886 11.488 11.6886 11.4881 11.6886 11.4882L11.6886 12.7886L11.6886 12.7889C11.6888 13.1661 11.8326 13.5312 12.0938 13.8033C12.3557 14.076 12.7147 14.2328 13.0932 14.2331H13.0934H15.9766L15.9766 15.4149C15.9766 15.415 15.9766 15.4151 15.9766 15.4152C15.9764 15.4567 15.9603 15.493 15.9372 15.517C15.9147 15.5404 15.8881 15.55 15.8644 15.55H15.864H7.562C7.53835 15.55 7.5118 15.5404 7.48927 15.5169C7.4662 15.4929 7.45015 15.4566 7.45 15.4152V8.90004C7.45018 8.88565 7.45206 8.87144 7.45552 8.85779C7.46402 8.82586 7.48143 8.80105 7.50142 8.78513C7.52121 8.76938 7.54282 8.76265 7.56279 8.76265H15.865C15.877 8.76265 15.8892 8.76507 15.9013 8.7703C15.9135 8.77555 15.9257 8.78376 15.9369 8.79541C15.9481 8.8071 15.9578 8.82196 15.9648 8.83958L16.3833 8.67416L13.0919 10.4504C13.0921 10.4504 13.0923 10.4504 13.0924 10.4504L13.0929 10.4504L15.9755 10.4504M15.9755 10.0442V10.4504M15.9755 10.0442H16.4255V10.4504H15.9755M15.9755 10.0442V10.4942V10.4504M16.6224 10.9318C16.6328 10.9356 16.6431 10.9398 16.6533 10.9442M16.6224 10.9318C16.5636 10.9113 16.5021 10.9006 16.4401 10.9004M16.6224 10.9318L16.6179 10.9442H16.6181M16.6224 10.9318L16.6181 10.9442M16.6533 10.9442L13.1382 11.7388L13.3301 11.8291M16.6533 10.9442H16.6181M16.6533 10.9442H16.6181M16.4401 10.9004H16.4255H14.0753V10.9442M16.4401 10.9004L16.4399 10.9442M16.4401 10.9004V10.9442H16.4399M14.0753 10.9442H14.0161M14.0753 10.9442V11.3213M14.0753 10.9442H16.4255H16.4399M14.0161 10.9442L14.0713 10.9004H13.0929M14.0161 10.9442H13.0929M14.0161 10.9442L13.5045 11.3504H13.5795M13.0929 10.9004C13.0925 10.9004 13.0922 10.9004 13.0918 10.9004C13.0915 10.9004 13.0912 10.9004 13.0909 10.9004C13.0192 10.9007 12.949 10.9153 12.8837 10.9427C12.8161 10.971 12.7539 11.0129 12.7008 11.0668C12.7006 11.0671 12.7003 11.0673 12.7001 11.0676C12.6987 11.0691 12.6972 11.0705 12.6958 11.072C12.5905 11.1818 12.5313 11.3306 12.5313 11.4858V11.4868V11.4875V12.787C12.5313 12.7875 12.5313 12.7879 12.5313 12.7884L12.5886 12.7884M13.0929 10.9004V10.9442M13.0929 10.9004L13.0929 10.9442M12.5886 12.7884V12.7886H12.5313C12.5318 12.9432 12.5909 13.0913 12.6958 13.2007C12.6999 13.205 12.7041 13.2092 12.7083 13.2134C12.8122 13.3152 12.9497 13.3722 13.0929 13.3724M12.5886 12.7884C12.5887 12.9322 12.6414 13.0672 12.731 13.167C12.7349 13.1714 12.7389 13.1757 12.743 13.18C12.8391 13.28 12.9653 13.3328 13.0929 13.3331M12.5886 12.7884V12.787L12.5886 11.4875L12.5886 11.4868C12.5886 11.4864 12.5886 11.4861 12.5886 11.4858C12.5886 11.3418 12.6419 11.2065 12.7324 11.1072C12.7339 11.1055 12.7355 11.1038 12.737 11.1021L12.7378 11.1013C12.7854 11.0501 12.8414 11.0105 12.9019 10.9839C12.9623 10.9574 13.0265 10.944 13.0908 10.9442H13.0918H13.0929M13.0929 13.3724H13.0934V13.3331H13.0937M13.0929 13.3724L13.0929 13.3331M13.0929 13.3724V13.3331M13.0937 13.3331L13.0937 13.3724H16.4266H16.4271H16.4379M13.0937 13.3331H16.4266H16.4271H16.4377M13.0937 13.3331C13.0934 13.3331 13.0932 13.3331 13.0929 13.3331M16.4379 13.3724C16.4999 13.3721 16.5615 13.3615 16.6202 13.3409C16.6273 13.3384 16.6343 13.3358 16.6412 13.3331H16.6175H16.4379M16.4379 13.3724V13.3331M16.4379 13.3724L16.4377 13.3331M16.4379 13.3331V12.9224H16.4365C16.4363 12.9224 16.4361 12.9224 16.436 12.9224L16.4377 13.3331M16.4379 13.3331H16.4377M13.0929 13.3331L13.0933 12.9224H13.0929V13.3331M13.0929 13.3331C13.0929 13.3331 13.0929 13.3331 13.0929 13.3331M13.0929 10.9442V11.3504H13.0933L13.0929 10.9442M13.0929 10.9442H13.0929M13.5795 11.3504C13.4947 11.3777 13.4154 11.4206 13.3457 11.4769C13.3429 11.4792 13.3401 11.4815 13.3374 11.4838L13.6248 11.8291M13.5795 11.3504H13.7908H13.7968H13.9846H14.0753V11.3213M13.5795 11.3504C13.6469 11.3286 13.7179 11.3167 13.7903 11.3156L13.7968 11.3155V11.3156H13.9846C14.015 11.3156 14.0453 11.3175 14.0753 11.3213M13.6248 11.8291H13.3301M13.6248 11.8291H13.6253L13.6246 11.8296C13.6247 11.8295 13.6249 11.8294 13.625 11.8293L13.6248 11.8291ZM13.3301 11.8291H13.3301M13.3301 11.8291L13.3313 11.8296L13.3301 11.8291M13.3301 11.8291H13.1753V11.8296V12.0583M13.3301 11.8291L13.1382 11.7388L13.1753 12.0583M13.1753 12.0583H13.0674V12.0596M13.1753 12.0583L13.0674 12.0596M13.1753 12.0583H13.5174H13.1753ZM13.0674 12.0596L13.0674 12.2513L13.1753 12.2515V12.0609L13.0674 12.0617C13.0674 12.061 13.0674 12.0603 13.0674 12.0596ZM13.1753 12.2521H13.0674V12.2516L13.1753 12.2521ZM13.1753 12.2521V12.508V12.6409M13.1753 12.2521V12.6409M13.1753 12.6409V12.7898L13.2421 12.7343M13.1753 12.6409L13.4831 12.9224M13.1753 12.6409C13.1951 12.6736 13.2174 12.7048 13.2421 12.7343M13.1753 12.6409L13.5879 12.4463L13.2421 12.7343M13.2421 12.7343C13.2525 12.7466 13.2633 12.7587 13.2745 12.7704C13.3342 12.8327 13.4047 12.8844 13.4831 12.9224M13.4831 12.9224H13.5177H13.7979H13.9846H14.2648H14.2994C14.2899 12.927 14.2802 12.9314 14.2705 12.9356C14.1804 12.9745 14.0832 12.9948 13.9846 12.9948H13.7979C13.6993 12.9948 13.6021 12.9745 13.512 12.9356C13.5023 12.9314 13.4926 12.927 13.4831 12.9224ZM14.0753 11.3213L16.4399 10.9442M16.4266 13.7831V13.8224H15.9766V13.7831H16.4266ZM14.6643 7.34745L14.6918 7.45252H13.8643H13.8417L14.5334 7.25549L14.5343 7.25526C14.5463 7.25182 14.5584 7.25095 14.5703 7.25251C14.5823 7.25408 14.5946 7.25817 14.6066 7.26532C14.6186 7.2725 14.6304 7.28283 14.6406 7.29657C14.6508 7.31035 14.659 7.32707 14.6639 7.34597L14.6643 7.34745ZM12.6417 6.45523C12.6563 6.46036 12.6715 6.46976 12.6847 6.48383L12.3259 6.58588L12.5683 6.46076L12.5684 6.46071C12.5923 6.44838 12.618 6.4469 12.6417 6.45523Z" fill="#FFFFFA" stroke="#4F1699" stroke-width="0.9"/>
</g>
</svg>
