<svg width="11" height="13" viewBox="0 0 11 13" fill="none" xmlns="http://www.w3.org/2000/svg">
<path fill-rule="evenodd" clip-rule="evenodd" d="M0.394531 7.00203C0.117269 6.75977 0.0888932 6.33861 0.331152 6.06135L4.99117 0.728019C5.09938 0.60418 5.24196 0.530776 5.39092 0.507828C5.42649 0.503019 5.46281 0.5 5.49985 0.5L5.40907 0.505286C5.43106 0.502511 5.45317 0.500828 5.4753 0.500238L5.49985 0.5C5.50839 0.5 5.51689 0.50016 5.52535 0.500479C5.53844 0.50139 5.55176 0.502421 5.56506 0.503851C5.58739 0.505337 5.60883 0.508512 5.62992 0.512682C5.63753 0.515627 5.64623 0.517605 5.65491 0.519759C5.81487 0.556512 5.95162 0.651538 6.04349 0.78071L10.6679 6.06064C10.9106 6.33756 10.8828 6.75876 10.6059 7.00141C10.3289 7.24406 9.90776 7.21628 9.66511 6.93936L6.1665 2.948L6.16651 11.8333C6.16651 12.1681 5.91984 12.4452 5.59836 12.4928L5.49985 12.5C5.13166 12.5 4.83318 12.2015 4.83318 11.8333L4.8325 2.936L1.33521 6.93865C1.11717 7.18818 0.754236 7.23612 0.481704 7.06661L0.394531 7.00203Z" fill="#3DD598"/>
</svg>
