<svg width="20" height="19" viewBox="0 0 20 19" fill="none" xmlns="http://www.w3.org/2000/svg">
<mask id="mask0" mask-type="alpha" maskUnits="userSpaceOnUse" x="0" y="0" width="21" height="19">
<path d="M19.0002 0H10.0002C9.73525 0 9.48025 0.1007 9.29325 0.27835L0.29325 8.82835C-0.09775 9.1998 -0.09775 9.8002 0.29325 10.1716L9.29325 18.7217C9.48825 18.9069 9.74425 19 10.0002 19C10.2562 19 10.5122 18.9069 10.7072 18.7217L19.7073 10.1716C19.8953 9.994 20.0002 9.75175 20.0002 9.5V0.95C20.0002 0.4256 19.5522 0 19.0002 0ZM4.00025 7.9933L11.5863 15.2L10.0002 16.7067L2.41425 9.5L4.00025 7.9933ZM18.0002 1.9V9.1067L13.0002 13.8567L5.41425 6.65L10.4142 1.9H18.0002ZM15.0002 5.70009C15.5522 5.70009 16.0002 5.2745 16.0002 4.75009C16.0002 4.22569 15.5522 3.80009 15.0002 3.80009C14.4482 3.80009 14.0002 4.22569 14.0002 4.75009C14.0002 5.2745 14.4482 5.70009 15.0002 5.70009Z" fill="white"/>
</mask>
<g mask="url(#mask0)">
<path d="M19.0002 0H10.0002C9.73525 0 9.48025 0.1007 9.29325 0.27835L0.29325 8.82835C-0.09775 9.1998 -0.09775 9.8002 0.29325 10.1716L9.29325 18.7217C9.48825 18.9069 9.74425 19 10.0002 19C10.2562 19 10.5122 18.9069 10.7072 18.7217L19.7073 10.1716C19.8953 9.994 20.0002 9.75175 20.0002 9.5V0.95C20.0002 0.4256 19.5522 0 19.0002 0ZM4.00025 7.9933L11.5863 15.2L10.0002 16.7067L2.41425 9.5L4.00025 7.9933ZM18.0002 1.9V9.1067L13.0002 13.8567L5.41425 6.65L10.4142 1.9H18.0002ZM15.0002 5.70009C15.5522 5.70009 16.0002 5.2745 16.0002 4.75009C16.0002 4.22569 15.5522 3.80009 15.0002 3.80009C14.4482 3.80009 14.0002 4.22569 14.0002 4.75009C14.0002 5.2745 14.4482 5.70009 15.0002 5.70009Z" fill="#919EAB"/>
<path d="M21.0002 0H0.000244141V20H21.0002V0Z" fill="white"/>
</g>
</svg>
