<svg width="24" height="24" viewBox="0 0 24 24" fill="none" xmlns="http://www.w3.org/2000/svg">
<path fill-rule="evenodd" clip-rule="evenodd" d="M21 5.31138C21 6.90734 18.8402 7.62186 16.7 7.62186C14.5589 7.62186 12.3991 6.90734 12.3991 5.31138C12.3991 3.71453 14.5589 3 16.7 3C18.8402 3 21 3.71453 21 5.31138ZM20.8578 8.95203C20.1964 9.88489 18.6001 10.4641 16.6905 10.4641C14.78 10.4641 13.1837 9.88489 12.5222 8.95203C12.2934 8.62815 12.3664 8.17796 12.6852 7.9452C13.0057 7.71244 13.4499 7.78642 13.6787 8.1103C13.9921 8.55147 15.1539 9.0206 16.6905 9.0206C18.2271 9.0206 19.388 8.55147 19.7014 8.1103C19.9302 7.78642 20.3744 7.71244 20.6949 7.9452C21.0136 8.17796 21.0866 8.62815 20.8578 8.95203ZM20.8578 11.5863C20.1964 12.5192 18.6001 13.0984 16.6905 13.0984C14.78 13.0984 13.1837 12.5192 12.5222 11.5863C12.2934 11.2624 12.3664 10.8122 12.6852 10.5795C13.0057 10.3458 13.4499 10.4207 13.6787 10.7446C13.9921 11.1857 15.1539 11.6549 16.6905 11.6549C18.2271 11.6549 19.388 11.1857 19.7014 10.7446C19.9302 10.4207 20.3744 10.3458 20.6949 10.5795C21.0136 10.8122 21.0866 11.2624 20.8578 11.5863ZM16.6905 15.7326C18.6001 15.7326 20.1964 15.1534 20.8578 14.2206C21.0866 13.8967 21.0136 13.4465 20.6949 13.2137C20.3744 12.9801 19.9302 13.055 19.7014 13.3788C19.388 13.82 18.2271 14.2891 16.6905 14.2891C15.1539 14.2891 13.9921 13.82 13.6787 13.3788C13.4499 13.055 13.0057 12.9801 12.6852 13.2137C12.3664 13.4465 12.2934 13.8967 12.5222 14.2206C13.1837 15.1534 14.78 15.7326 16.6905 15.7326ZM16.6903 16.9231C18.2269 16.9231 19.3878 16.454 19.7012 16.0128C19.93 15.6899 20.3769 15.615 20.6947 15.8477C21.0152 16.0805 21.0873 16.5316 20.8576 16.8555C20.1962 17.7874 18.5999 18.3657 16.6903 18.3657C14.7816 18.3657 13.1844 17.7874 12.5229 16.8555C12.2933 16.5316 12.3654 16.0805 12.685 15.8477C13.0037 15.615 13.4506 15.6899 13.6785 16.0128C13.9919 16.454 15.1546 16.9231 16.6903 16.9231ZM19.7012 18.6471C19.3878 19.0883 18.2269 19.5574 16.6903 19.5574C15.1546 19.5574 13.9919 19.0883 13.6785 18.6471C13.4506 18.3232 13.0037 18.2502 12.685 18.482C12.3654 18.7148 12.2933 19.1659 12.5229 19.4898C13.1844 20.4217 14.7816 21 16.6903 21C18.5999 21 20.1962 20.4217 20.8576 19.4898C21.0873 19.1659 21.0152 18.7148 20.6947 18.482C20.3769 18.2502 19.93 18.3232 19.7012 18.6471ZM3.00001 10.5799C3.00001 8.98307 5.16069 8.26764 7.3009 8.26764C9.44111 8.26764 11.6018 8.98307 11.6018 10.5799C11.6018 12.1759 9.44111 12.8904 7.3009 12.8904C5.16069 12.8904 3.00001 12.1759 3.00001 10.5799ZM7.3009 15.7326C9.21142 15.7326 10.8077 15.1534 11.4691 14.2206C11.6979 13.8967 11.6249 13.4465 11.3062 13.2137C10.9857 12.9801 10.5415 13.055 10.3127 13.3788C9.9993 13.82 8.8375 14.2891 7.3009 14.2891C5.7643 14.2891 4.60338 13.82 4.29001 13.3788C4.06121 13.055 3.61697 12.9801 3.29647 13.2137C2.97775 13.4465 2.90475 13.8967 3.13355 14.2206C3.79502 15.1534 5.39127 15.7326 7.3009 15.7326ZM7.30072 16.9231C8.83733 16.9231 9.99913 16.454 10.3125 16.0128C10.5413 15.6899 10.9882 15.615 11.306 15.8477C11.6265 16.0805 11.6986 16.5316 11.469 16.8555C10.8075 17.7874 9.21035 18.3657 7.30072 18.3657C5.39199 18.3657 3.79573 17.7874 3.13426 16.8555C2.90457 16.5316 2.97669 16.0805 3.29629 15.8477C3.61501 15.615 4.06192 15.6899 4.28983 16.0128C4.60321 16.454 5.76501 16.9231 7.30072 16.9231ZM10.3125 18.6471C9.99913 19.0883 8.83733 19.5574 7.30072 19.5574C5.76501 19.5574 4.60321 19.0883 4.28983 18.6471C4.06192 18.3232 3.61501 18.2502 3.29629 18.482C2.97669 18.7148 2.90457 19.1659 3.13426 19.4898C3.79573 20.4217 5.39199 21 7.30072 21C9.21035 21 10.8075 20.4217 11.469 19.4898C11.6986 19.1659 11.6265 18.7148 11.306 18.482C10.9882 18.2502 10.5413 18.3232 10.3125 18.6471Z" fill="#858EBD"/>
</svg>
