<svg width="795" height="116" viewBox="0 0 795 116" fill="none" xmlns="http://www.w3.org/2000/svg">
<mask id="mask0" mask-type="alpha" maskUnits="userSpaceOnUse" x="0" y="0" width="795" height="116">
<path d="M793.692 0H1.30757C0.585417 0 0 0.89543 0 2V114C0 115.105 0.585417 116 1.30757 116H793.692C794.415 116 795 115.105 795 114V2C795 0.89543 794.415 0 793.692 0Z" fill="white"/>
</mask>
<g mask="url(#mask0)">
<path d="M793.692 0H1.30757C0.585417 0 0 0.89543 0 2V114C0 115.105 0.585417 116 1.30757 116H793.692C794.415 116 795 115.105 795 114V2C795 0.89543 794.415 0 793.692 0Z" fill="url(#paint0_linear)"/>
<g opacity="0.04">
<mask id="mask1" mask-type="alpha" maskUnits="userSpaceOnUse" x="415" y="86" width="98" height="120">
<path d="M512.653 86.3116L444.898 205.837L443.069 143.597L415.468 102.573L512.653 86.3116Z" fill="white"/>
</mask>
<g mask="url(#mask1)">
<path d="M559.504 59.9414L493.544 178.415L490.93 115.452L462.918 73.0479L559.504 59.9414Z" fill="url(#paint1_linear)"/>
<path d="M605.239 129.604L586.652 66.2578L492.993 141.447L511.58 204.794L605.239 129.604Z" fill="url(#paint2_linear)"/>
</g>
<mask id="mask2" mask-type="alpha" maskUnits="userSpaceOnUse" x="506" y="7" width="59" height="84">
<path d="M506.546 7.89722L564.425 30.7273L542.149 52.3846L533.059 90.5188L506.546 7.89722Z" fill="white"/>
</mask>
<g mask="url(#mask2)">
<path d="M499.539 31.1803L557.402 53.9339L535.114 75.6247L526.003 113.776L499.539 31.1803Z" fill="url(#paint3_linear)"/>
<path d="M477.309 13.1803L535.171 35.9339L512.884 57.6247L503.772 95.7764L477.309 13.1803Z" fill="url(#paint4_linear)"/>
<path d="M523.49 -35.739L504.105 1.17188L553.561 62.9037L572.945 25.9929L523.49 -35.739Z" fill="url(#paint5_linear)"/>
</g>
<mask id="mask3" mask-type="alpha" maskUnits="userSpaceOnUse" x="568" y="103" width="56" height="86">
<path d="M623.48 103.684L606.348 188.819L593.043 151.905L568.466 132.85L623.48 103.684Z" fill="white"/>
</mask>
<g mask="url(#mask3)">
<path d="M623.48 103.683L606.347 188.819L593.043 151.905L568.465 132.851L623.48 103.683Z" fill="url(#paint6_linear)"/>
<path d="M642.152 60.2421L625.019 145.378L611.715 108.464L587.137 89.4092L642.152 60.2421Z" fill="url(#paint7_linear)"/>
<path d="M642.804 98.2421L625.672 183.378L612.367 146.464L587.79 127.409L642.804 98.2421Z" fill="url(#paint8_linear)"/>
<path d="M654.162 127.876L630.434 92.8203L587.502 160.834L611.23 195.891L654.162 127.876Z" fill="url(#paint9_linear)"/>
</g>
</g>
<g opacity="0.2">
<mask id="mask4" mask-type="alpha" maskUnits="userSpaceOnUse" x="606" y="157" width="98" height="120">
<path d="M703.653 157.312L635.898 276.837L634.069 214.597L606.468 173.573L703.653 157.312Z" fill="white"/>
</mask>
<g mask="url(#mask4)">
</g>
<mask id="mask5" mask-type="alpha" maskUnits="userSpaceOnUse" x="697" y="78" width="59" height="84">
<path d="M697.546 78.8972L755.425 101.727L733.149 123.385L724.059 161.519L697.546 78.8972Z" fill="white"/>
</mask>
<g mask="url(#mask5)">
<path d="M690.539 102.18L748.402 124.934L726.114 146.625L717.003 184.776L690.539 102.18Z" fill="url(#paint10_linear)"/>
<path d="M668.309 84.1803L726.171 106.934L703.884 128.625L694.772 166.776L668.309 84.1803Z" fill="url(#paint11_linear)"/>
<path d="M714.49 35.261L695.105 72.1719L744.561 133.904L763.945 96.9929L714.49 35.261Z" fill="url(#paint12_linear)"/>
</g>
<mask id="mask6" mask-type="alpha" maskUnits="userSpaceOnUse" x="444" y="87" width="98" height="120">
<path d="M541.653 87.3116L473.898 206.837L472.069 144.597L444.468 103.573L541.653 87.3116Z" fill="white"/>
</mask>
<g mask="url(#mask6)">
<path d="M588.504 60.9414L522.544 179.415L519.93 116.452L491.918 74.0479L588.504 60.9414Z" fill="url(#paint13_linear)"/>
<path d="M634.239 130.604L615.652 67.2578L521.993 142.447L540.58 205.794L634.239 130.604Z" fill="url(#paint14_linear)"/>
</g>
<mask id="mask7" mask-type="alpha" maskUnits="userSpaceOnUse" x="535" y="8" width="59" height="84">
<path d="M535.546 8.89722L593.425 31.7273L571.149 53.3846L562.059 91.5188L535.546 8.89722Z" fill="white"/>
</mask>
<g mask="url(#mask7)">
<path d="M528.539 32.1803L586.402 54.9339L564.114 76.6247L555.003 114.776L528.539 32.1803Z" fill="url(#paint15_linear)"/>
<path d="M506.309 14.1803L564.171 36.9339L541.884 58.6247L532.772 96.7764L506.309 14.1803Z" fill="url(#paint16_linear)"/>
<path d="M552.49 -34.739L533.105 2.17188L582.561 63.9037L601.945 26.9929L552.49 -34.739Z" fill="url(#paint17_linear)"/>
</g>
<mask id="mask8" mask-type="alpha" maskUnits="userSpaceOnUse" x="597" y="104" width="56" height="86">
<path d="M652.48 104.684L635.348 189.819L622.043 152.905L597.466 133.85L652.48 104.684Z" fill="white"/>
</mask>
<g mask="url(#mask8)">
<path d="M652.48 104.683L635.347 189.819L622.043 152.905L597.465 133.851L652.48 104.683Z" fill="url(#paint18_linear)"/>
<path d="M671.152 61.2421L654.019 146.378L640.715 109.464L616.137 90.4092L671.152 61.2421Z" fill="url(#paint19_linear)"/>
<path d="M671.804 99.2421L654.672 184.378L641.367 147.464L616.79 128.409L671.804 99.2421Z" fill="url(#paint20_linear)"/>
<path d="M683.162 128.876L659.434 93.8203L616.502 161.834L640.23 196.891L683.162 128.876Z" fill="url(#paint21_linear)"/>
</g>
</g>
</g>
<defs>
<linearGradient id="paint0_linear" x1="795" y1="0" x2="761.854" y2="227.164" gradientUnits="userSpaceOnUse">
<stop stop-color="#FFFEFF"/>
<stop offset="1" stop-color="#D7FFFE"/>
</linearGradient>
<linearGradient id="paint1_linear" x1="559.504" y1="59.9414" x2="466.929" y2="86.8493" gradientUnits="userSpaceOnUse">
<stop stop-color="#A5B4FC"/>
<stop offset="1" stop-color="#818CF8"/>
</linearGradient>
<linearGradient id="paint2_linear" x1="572.964" y1="116.381" x2="492.561" y2="139.972" gradientUnits="userSpaceOnUse">
<stop stop-color="#4338CA"/>
<stop offset="1" stop-color="#6366F1" stop-opacity="0"/>
</linearGradient>
<linearGradient id="paint3_linear" x1="509.885" y1="44.1054" x2="551.188" y2="65.7767" gradientUnits="userSpaceOnUse">
<stop stop-color="#4338CA"/>
<stop offset="1" stop-color="#6366F1" stop-opacity="0"/>
</linearGradient>
<linearGradient id="paint4_linear" x1="477.309" y1="13.1803" x2="532.042" y2="41.8983" gradientUnits="userSpaceOnUse">
<stop stop-color="#A5B4FC"/>
<stop offset="1" stop-color="#818CF8"/>
</linearGradient>
<linearGradient id="paint5_linear" x1="525.933" y1="-2.13616" x2="574.361" y2="23.297" gradientUnits="userSpaceOnUse">
<stop stop-color="#4338CA"/>
<stop offset="1" stop-color="#6366F1" stop-opacity="0"/>
</linearGradient>
<linearGradient id="paint6_linear" x1="623.48" y1="103.683" x2="572.211" y2="138.385" gradientUnits="userSpaceOnUse">
<stop stop-color="#A5B4FC"/>
<stop offset="1" stop-color="#818CF8"/>
</linearGradient>
<linearGradient id="paint7_linear" x1="642.152" y1="60.2421" x2="590.883" y2="94.9433" gradientUnits="userSpaceOnUse">
<stop stop-color="#A5B4FC"/>
<stop offset="1" stop-color="#818CF8"/>
</linearGradient>
<linearGradient id="paint8_linear" x1="642.804" y1="98.2421" x2="591.535" y2="132.943" gradientUnits="userSpaceOnUse">
<stop stop-color="#A5B4FC"/>
<stop offset="1" stop-color="#818CF8"/>
</linearGradient>
<linearGradient id="paint9_linear" x1="631.763" y1="127.037" x2="585.72" y2="158.202" gradientUnits="userSpaceOnUse">
<stop stop-color="#4338CA"/>
<stop offset="1" stop-color="#6366F1" stop-opacity="0"/>
</linearGradient>
<linearGradient id="paint10_linear" x1="690.539" y1="102.18" x2="745.272" y2="130.898" gradientUnits="userSpaceOnUse">
<stop stop-color="#A5B4FC"/>
<stop offset="1" stop-color="#818CF8"/>
</linearGradient>
<linearGradient id="paint11_linear" x1="668.309" y1="84.1803" x2="723.042" y2="112.898" gradientUnits="userSpaceOnUse">
<stop stop-color="#A5B4FC"/>
<stop offset="1" stop-color="#818CF8"/>
</linearGradient>
<linearGradient id="paint12_linear" x1="716.933" y1="68.8638" x2="765.361" y2="94.297" gradientUnits="userSpaceOnUse">
<stop stop-color="#4338CA"/>
<stop offset="1" stop-color="#6366F1" stop-opacity="0"/>
</linearGradient>
<linearGradient id="paint13_linear" x1="588.504" y1="60.9414" x2="495.929" y2="87.8493" gradientUnits="userSpaceOnUse">
<stop stop-color="#A5B4FC"/>
<stop offset="1" stop-color="#818CF8"/>
</linearGradient>
<linearGradient id="paint14_linear" x1="601.964" y1="117.381" x2="521.561" y2="140.972" gradientUnits="userSpaceOnUse">
<stop stop-color="#4338CA"/>
<stop offset="1" stop-color="#6366F1" stop-opacity="0"/>
</linearGradient>
<linearGradient id="paint15_linear" x1="528.539" y1="32.1803" x2="583.272" y2="60.8983" gradientUnits="userSpaceOnUse">
<stop stop-color="#A5B4FC"/>
<stop offset="1" stop-color="#818CF8"/>
</linearGradient>
<linearGradient id="paint16_linear" x1="506.309" y1="14.1803" x2="561.042" y2="42.8983" gradientUnits="userSpaceOnUse">
<stop stop-color="#A5B4FC"/>
<stop offset="1" stop-color="#818CF8"/>
</linearGradient>
<linearGradient id="paint17_linear" x1="554.933" y1="-1.13616" x2="603.361" y2="24.297" gradientUnits="userSpaceOnUse">
<stop stop-color="#4338CA"/>
<stop offset="1" stop-color="#6366F1" stop-opacity="0"/>
</linearGradient>
<linearGradient id="paint18_linear" x1="652.48" y1="104.683" x2="601.211" y2="139.385" gradientUnits="userSpaceOnUse">
<stop stop-color="#A5B4FC"/>
<stop offset="1" stop-color="#818CF8"/>
</linearGradient>
<linearGradient id="paint19_linear" x1="671.152" y1="61.2421" x2="619.883" y2="95.9433" gradientUnits="userSpaceOnUse">
<stop stop-color="#A5B4FC"/>
<stop offset="1" stop-color="#818CF8"/>
</linearGradient>
<linearGradient id="paint20_linear" x1="671.804" y1="99.2421" x2="620.535" y2="133.943" gradientUnits="userSpaceOnUse">
<stop stop-color="#A5B4FC"/>
<stop offset="1" stop-color="#818CF8"/>
</linearGradient>
<linearGradient id="paint21_linear" x1="660.763" y1="128.037" x2="614.72" y2="159.202" gradientUnits="userSpaceOnUse">
<stop stop-color="#4338CA"/>
<stop offset="1" stop-color="#6366F1" stop-opacity="0"/>
</linearGradient>
</defs>
</svg>
