<svg width="20" height="20" viewBox="0 0 20 20" fill="none" xmlns="http://www.w3.org/2000/svg">
<path fill-rule="evenodd" clip-rule="evenodd" d="M8.70627 1.49732C9.03629 1.86366 9.50622 2.07281 9.9993 2.07281C10.4924 2.07281 10.9623 1.86366 11.2923 1.49732L12.1336 0.574234C12.6276 0.0274475 13.4123 -0.149329 14.0931 0.132773C14.7739 0.414875 15.2036 1.09482 15.1661 1.8308L15.1029 3.07581C15.0782 3.56694 15.2624 4.04561 15.6098 4.39358C15.9573 4.74156 16.4357 4.92638 16.9269 4.90241L18.1719 4.83927C18.9073 4.80301 19.5862 5.23309 19.8676 5.91359C20.1489 6.59408 19.9721 7.378 19.4258 7.87174L18.4991 8.70768C18.1333 9.03815 17.9245 9.50812 17.9245 10.0011C17.9245 10.4942 18.1333 10.9641 18.4991 11.2946L19.4258 12.1306C19.9726 12.6246 20.1493 13.4093 19.8672 14.0901C19.5851 14.7709 18.9052 15.2005 18.1692 15.163L16.9242 15.0999C16.432 15.0746 15.952 15.2591 15.6035 15.6076C15.255 15.9561 15.0705 16.436 15.0958 16.9283L15.159 18.1733C15.1916 18.9054 14.7626 19.5796 14.0856 19.8602C13.4086 20.1408 12.6284 19.9677 12.1336 19.4272L11.2968 18.5014C10.9665 18.1356 10.4966 17.9268 10.0037 17.9268C9.51085 17.9268 9.04103 18.1356 8.71072 18.5014L7.87034 19.4272C7.37625 19.9703 6.59469 20.1453 5.91616 19.8648C5.23763 19.5843 4.8078 18.9085 4.84142 18.1751L4.90545 16.93C4.93077 16.4378 4.74628 15.9579 4.39775 15.6094C4.04922 15.2608 3.56931 15.0763 3.07707 15.1017L1.83206 15.1648C1.09638 15.2032 0.416144 14.7745 0.133414 14.0942C-0.149316 13.4139 0.0266508 12.6294 0.572828 12.135L1.49858 11.2991C1.86445 10.9686 2.07325 10.4986 2.07325 10.0056C2.07325 9.51257 1.86445 9.0426 1.49858 8.71212L0.572828 7.87174C0.0284829 7.37796 -0.147223 6.59558 0.133716 5.91646C0.414655 5.23734 1.09174 4.80774 1.82584 4.84282L3.07084 4.90596C3.56404 4.93189 4.04504 4.74717 4.39409 4.39777C4.74315 4.04838 4.92741 3.5672 4.901 3.07403L4.84142 1.82813C4.80699 1.09435 5.23654 0.417825 5.91527 0.136848C6.594 -0.144128 7.37604 0.0308301 7.87034 0.574234L8.70627 1.49732Z" fill="white" fill-opacity="0.85"/>
<circle cx="9.99921" cy="9.99957" r="3.81989" fill="#7245AD" stroke="white" stroke-width="3" stroke-linecap="round" stroke-linejoin="round"/>
</svg>
