<svg width="1440" height="1024" viewBox="0 0 1440 1024" fill="none" xmlns="http://www.w3.org/2000/svg">
<rect width="1440" height="1024" fill="#4F1699"/>
<g opacity="0.051946">
<ellipse cx="636" cy="257" rx="89" ry="76" fill="#D8D8D8"/>
<ellipse cx="403" cy="323.5" rx="26" ry="22.5" fill="#D8D8D8"/>
<ellipse cx="333" cy="794.5" rx="26" ry="22.5" fill="#D8D8D8"/>
<ellipse cx="202" cy="983" rx="49" ry="41" fill="#D8D8D8"/>
<ellipse cx="295.5" cy="153.5" rx="11.5" ry="9.5" fill="#D8D8D8"/>
<ellipse cx="537.5" cy="516.5" rx="11.5" ry="9.5" fill="#D8D8D8"/>
<ellipse cx="129.5" cy="65" rx="76.5" ry="65" fill="#D8D8D8"/>
<ellipse cx="617.5" cy="798" rx="76.5" ry="65" fill="#D8D8D8"/>
<ellipse cx="47.5" cy="705" rx="42.5" ry="36" fill="#D8D8D8"/>
<ellipse cx="308" cy="663.5" rx="14" ry="11.5" fill="#D8D8D8"/>
<ellipse cx="157" cy="390.5" rx="26" ry="22.5" fill="#D8D8D8"/>
</g>
<g opacity="0.0488514">
<ellipse cx="1345" cy="257" rx="89" ry="76" fill="#D8D8D8"/>
<ellipse cx="1112" cy="323.5" rx="26" ry="22.5" fill="#D8D8D8"/>
<ellipse cx="1042" cy="794.5" rx="26" ry="22.5" fill="#D8D8D8"/>
<ellipse cx="911" cy="983" rx="49" ry="41" fill="#D8D8D8"/>
<ellipse cx="1004.5" cy="153.5" rx="11.5" ry="9.5" fill="#D8D8D8"/>
<ellipse cx="1246.5" cy="516.5" rx="11.5" ry="9.5" fill="#D8D8D8"/>
<ellipse cx="838.5" cy="65" rx="76.5" ry="65" fill="#D8D8D8"/>
<ellipse cx="1326.5" cy="798" rx="76.5" ry="65" fill="#D8D8D8"/>
<ellipse cx="756.5" cy="705" rx="42.5" ry="36" fill="#D8D8D8"/>
<ellipse cx="1017" cy="663.5" rx="14" ry="11.5" fill="#D8D8D8"/>
<ellipse cx="866" cy="390.5" rx="26" ry="22.5" fill="#D8D8D8"/>
</g>
</svg>
