<svg width="20" height="16" viewBox="0 0 20 16" fill="none" xmlns="http://www.w3.org/2000/svg">
<path d="M18.6383 0H1.36487C1.0032 0.00117291 0.656643 0.164259 0.400905 0.453626C0.145167 0.742992 0.0010366 1.13512 0 1.54434V3.85596H20V1.54434C19.999 1.13573 19.8553 0.744139 19.6002 0.454874C19.3451 0.165608 18.9994 0.00210942 18.6383 0Z" fill="#E5DCF0"/>
<path d="M0 14.456C0.0010366 14.8652 0.145167 15.2574 0.400905 15.5468C0.656643 15.8361 1.0032 15.9992 1.36487 16.0004H18.6375C18.9987 15.9985 19.3447 15.8351 19.5999 15.5458C19.8552 15.2565 19.999 14.8648 20 14.456V6.6543H0V14.456Z" fill="white"/>
</svg>
