<svg width="36" height="36" viewBox="0 0 36 36" fill="none" xmlns="http://www.w3.org/2000/svg">
<path fill-rule="evenodd" clip-rule="evenodd" d="M18 0C27.9411 0 36 8.05887 36 18C36 27.9411 27.9411 36 18 36C8.05887 36 0 27.9411 0 18C0 8.05887 8.05887 0 18 0ZM26.4711 12.5126C25.7658 11.8291 24.6224 11.8291 23.9172 12.5126L14.3589 21.7751L11.0828 18.6004C10.3776 17.917 9.23416 17.917 8.52893 18.6004C7.82369 19.2838 7.82369 20.3918 8.52893 21.0752L13.082 25.4874C13.7872 26.1709 14.9306 26.1709 15.6359 25.4874L26.4711 14.9874C27.1763 14.304 27.1763 13.196 26.4711 12.5126Z" fill="#0FD26F"/>
</svg>
