<svg width="32" height="32" viewBox="0 0 32 32" fill="none" xmlns="http://www.w3.org/2000/svg">
<path d="M16 32C24.8366 32 32 24.8366 32 16C32 7.16344 24.8366 0 16 0C7.16344 0 0 7.16344 0 16C0 24.8366 7.16344 32 16 32Z" fill="#DFE8F8" fill-opacity="0.5"/>
<path fill-rule="evenodd" clip-rule="evenodd" d="M11.4209 9.91203L16 14.4908L20.5791 9.91203C20.9956 9.49547 21.671 9.49547 22.0876 9.91203C22.5041 10.3286 22.5041 11.004 22.0876 11.4205L17.5088 15.9996L22.0876 20.5787C22.5041 20.9953 22.5041 21.6706 22.0876 22.0872C21.671 22.5037 20.9956 22.5037 20.5791 22.0872L16 17.5084L11.4209 22.0872C11.0043 22.5037 10.329 22.5037 9.9124 22.0872C9.49584 21.6706 9.49584 20.9953 9.9124 20.5787L14.4912 15.9996L9.9124 11.4205C9.49584 11.004 9.49584 10.3286 9.9124 9.91203C10.329 9.49547 11.0043 9.49547 11.4209 9.91203Z" fill="#332C2C"/>
</svg>
