<svg width="50" height="50" viewBox="0 0 50 50" fill="none" xmlns="http://www.w3.org/2000/svg">
<circle cx="25" cy="25" r="25" fill="#F6EFFF"/>
<path d="M36.3659 15H15.6378C15.2038 15.0014 14.788 15.1971 14.4811 15.5444C14.1742 15.8916 14.0012 16.3621 14 16.8532V19.6272H38V16.8532C37.9988 16.3629 37.8263 15.893 37.5202 15.5458C37.2142 15.1987 36.7993 15.0025 36.3659 15Z" fill="#E2CBFF"/>
<path d="M14 32.3464C14.0012 32.8375 14.1742 33.3081 14.4811 33.6553C14.788 34.0026 15.2038 34.1982 15.6378 34.1997H36.365C36.7985 34.1974 37.2136 34.0013 37.5199 33.6542C37.8262 33.307 37.9988 32.837 38 32.3464V22.9844H14V32.3464Z" fill="#C395FE"/>
</svg>
