<svg width="44" height="44" viewBox="0 0 44 44" fill="none" xmlns="http://www.w3.org/2000/svg">
<rect width="44" height="44" fill="#E5E5E5"/>
<g clip-path="url(#clip0)">
<rect width="1440" height="1114" transform="translate(-276 -95)" fill="white"/>
<path d="M1164 -95H-276V1019H1164V-95Z" fill="#F6F4F8"/>
<g filter="url(#filter0_d)">
<path d="M42 20C42 8.9543 33.0457 0 22 0C10.9543 0 2 8.9543 2 20C2 31.0457 10.9543 40 22 40C33.0457 40 42 31.0457 42 20Z" fill="black"/>
</g>
<path d="M42 20C42 8.9543 33.0457 0 22 0C10.9543 0 2 8.9543 2 20C2 31.0457 10.9543 40 22 40C33.0457 40 42 31.0457 42 20Z" fill="white"/>
<path d="M22 0C33.0457 0 42 8.9543 42 20C42 31.0457 33.0457 40 22 40C10.9543 40 2 31.0457 2 20C2 8.9543 10.9543 0 22 0Z" fill="#4F1699"/>
<path opacity="0.1" d="M22 0.5C27.3848 0.5 32.2598 2.68261 35.7886 6.21142C39.3174 9.74022 41.5 14.6152 41.5 20C41.5 25.3848 39.3174 30.2598 35.7886 33.7886C32.2598 37.3174 27.3848 39.5 22 39.5C16.6152 39.5 11.7402 37.3174 8.21142 33.7886C4.68261 30.2598 2.5 25.3848 2.5 20C2.5 14.6152 4.68261 9.74022 8.21142 6.21142C11.7402 2.68261 16.6152 0.5 22 0.5Z" stroke="#363648"/>
<path d="M30.2478 29C30.6084 29.0009 30.9186 28.7358 30.9865 28.3688C31.0544 28.0018 30.8608 27.6366 30.5254 27.4992L25.4865 25.4261C25.1946 25.3123 25.001 25.0231 25.0004 24.6998V23.2519C24.9987 23.0763 25.0566 22.9057 25.1639 22.7698C26.4333 21.2111 27.1661 19.2589 27.2467 17.2208C27.2467 13.4168 25.26 11.0327 22.0623 11C20.2612 11.0056 18.5997 12.0062 17.7032 13.6252C15.3533 17.8383 17.9778 21.6905 18.8391 22.7698C18.9439 22.9049 18.9997 23.0739 18.9966 23.2473V24.6936C18.9947 25.0213 18.7967 25.3132 18.4999 25.4261L13.4746 27.4946C13.1395 27.6318 12.9459 27.9966 13.0134 28.3634C13.0808 28.7302 13.3904 28.9955 13.7507 28.9953L30.2478 29Z" fill="white"/>
<path d="M33.248 28.5H33.2491C33.3557 28.5003 33.4686 28.4198 33.4948 28.2779C33.5216 28.1334 33.4427 28.0056 33.3359 27.9619L33.3352 27.9616L28.3001 25.8901C27.8113 25.6972 27.5014 25.2194 27.5004 24.7008L27.5004 24.6998L27.5004 23.254V23.2519H28.0004C27.9987 23.0763 28.0566 22.9057 28.1639 22.7698L33.248 28.5ZM33.248 28.5L16.7508 28.4953H16.7505C16.6439 28.4954 16.5312 28.4148 16.5051 28.2729C16.4785 28.1285 16.5574 28.0009 16.6641 27.9572L16.6649 27.9569L21.6848 25.8907C22.1786 25.6995 22.4935 25.2194 22.4966 24.6966H22.4966V24.6936V23.2511C22.5005 22.9672 22.4089 22.6885 22.2341 22.4633L22.2341 22.4633L22.2299 22.458C21.3813 21.3946 18.9547 17.7864 21.1398 13.8688L21.1406 13.8674C21.9517 12.4026 23.4481 11.5062 25.0605 11.5C26.525 11.5158 27.6761 12.0642 28.4695 13.0163C29.2702 13.977 29.745 15.3962 29.7467 17.2109L33.248 28.5Z" fill="white" stroke="#4F1699"/>
</g>
<defs>
<filter id="filter0_d" x="0" y="0" width="44" height="44" filterUnits="userSpaceOnUse" color-interpolation-filters="sRGB">
<feFlood flood-opacity="0" result="BackgroundImageFix"/>
<feColorMatrix in="SourceAlpha" type="matrix" values="0 0 0 0 0 0 0 0 0 0 0 0 0 0 0 0 0 0 127 0"/>
<feOffset dy="2"/>
<feGaussianBlur stdDeviation="1"/>
<feColorMatrix type="matrix" values="0 0 0 0 0 0 0 0 0 0 0 0 0 0 0 0 0 0 0.05 0"/>
<feBlend mode="normal" in2="BackgroundImageFix" result="effect1_dropShadow"/>
<feBlend mode="normal" in="SourceGraphic" in2="effect1_dropShadow" result="shape"/>
</filter>
<clipPath id="clip0">
<rect width="1440" height="1114" fill="white" transform="translate(-276 -95)"/>
</clipPath>
</defs>
</svg>
