<svg width="60" height="60" viewBox="0 0 60 60" fill="none" xmlns="http://www.w3.org/2000/svg">
<path d="M30 60C46.5685 60 60 46.5685 60 30C60 13.4315 46.5685 0 30 0C13.4315 0 0 13.4315 0 30C0 46.5685 13.4315 60 30 60Z" fill="#FCF8FC"/>
<path d="M33 40.9992C32.623 40.9992 32.275 40.7862 32.105 40.4462L29.137 34.5102C28.974 34.1842 29.002 33.7942 29.209 33.4932L34 26.9992L27.505 31.7892C27.204 31.9972 26.814 32.0232 26.488 31.8612L20.553 28.8942C20.197 28.7152 19.98 28.3422 20.002 27.9442C20.023 27.5462 20.28 27.1982 20.654 27.0612L39.654 20.0612C40.019 19.9282 40.43 20.0152 40.707 20.2922C40.983 20.5672 41.073 20.9792 40.938 21.3452L33.938 40.3452C33.8 40.7192 33.453 40.9762 33.055 40.9972C33.037 40.9982 33.018 40.9992 33 40.9992Z" fill="#7755FE"/>
</svg>
