<svg width="28" height="28" viewBox="0 0 28 28" fill="none" xmlns="http://www.w3.org/2000/svg">
<path d="M26.7271 0.167969H1.27285C0.66264 0.167969 0.167969 0.66264 0.167969 1.27285V26.7271C0.167969 27.3373 0.66264 27.832 1.27285 27.832H26.7271C27.3373 27.832 27.832 27.3373 27.832 26.7271V1.27285C27.832 0.66264 27.3373 0.167969 26.7271 0.167969Z" fill="#5C2682"/>
<path d="M5.51216 11.3197V12.3417H7.77287V13.2828H5.51216V15.117H4.46973V10.3789H8.07723V11.3197H5.51216Z" fill="white"/>
<path d="M12.6949 14.7074C12.5621 14.8123 12.4179 14.902 12.2651 14.9748C12.1022 15.0513 11.9306 15.1077 11.7541 15.1428C11.549 15.1831 11.3404 15.2024 11.1314 15.2004C10.7992 15.2035 10.4699 15.139 10.1634 15.0109C9.87469 14.8906 9.61248 14.7147 9.39172 14.4932C9.17292 14.2709 9.00038 14.0075 8.88408 13.7181C8.76122 13.415 8.69909 13.0907 8.70124 12.7636V12.7502C8.69877 12.4239 8.76091 12.1004 8.88408 11.7982C9.00192 11.5087 9.17425 11.2446 9.39172 11.0201C9.61298 10.7934 9.87774 10.6138 10.1701 10.492C10.488 10.361 10.8293 10.296 11.1731 10.3011C11.3762 10.2995 11.5791 10.3176 11.7787 10.3551C11.9492 10.3877 12.1159 10.4376 12.2763 10.5041C12.4219 10.5655 12.5604 10.6427 12.6893 10.7342C12.8146 10.8237 12.9323 10.9234 13.0412 11.0321L12.3771 11.7968C12.2075 11.6409 12.0173 11.509 11.8118 11.4048C11.6102 11.308 11.3888 11.2594 11.1652 11.2628C10.9752 11.2611 10.7871 11.3003 10.6136 11.3779C10.4475 11.4523 10.2988 11.5607 10.1771 11.696C10.0539 11.8337 9.95748 11.9932 9.89292 12.1664C9.82433 12.3493 9.78988 12.5431 9.79128 12.7384V12.7519C9.7901 12.9482 9.82453 13.1432 9.89292 13.3273C9.95649 13.501 10.0514 13.6616 10.1729 13.801C10.2969 13.9413 10.4496 14.0531 10.6207 14.129C10.7918 14.205 10.9772 14.2431 11.1644 14.2409C11.4353 14.2409 11.6643 14.1912 11.8515 14.0919C12.0545 13.9815 12.2422 13.845 12.4098 13.6859L13.0732 14.356C12.9561 14.4825 12.8297 14.6 12.6949 14.7074Z" fill="white"/>
<path d="M17.6154 15.117V12.0236L16.2818 14.0474H16.2538L14.9339 12.0441V15.117H13.9062V10.3789H15.0296L16.275 12.3826L17.5205 10.3789H18.6441V15.117H17.6154Z" fill="white"/>
<path d="M23.6769 14.386C23.5931 14.5489 23.47 14.6885 23.3188 14.792C23.1485 14.9067 22.9588 14.9894 22.7588 15.0358C22.5203 15.0923 22.2758 15.1195 22.0308 15.117H19.7812V10.3789H21.9773C22.4636 10.3789 22.8452 10.4895 23.1222 10.7107C23.3992 10.9319 23.5378 11.2297 23.538 11.6042V11.619C23.5399 11.7405 23.5228 11.8615 23.4873 11.9777C23.4558 12.0768 23.4105 12.1711 23.3529 12.2577C23.2981 12.3398 23.2321 12.4138 23.1569 12.4778C23.0837 12.5406 23.0037 12.595 22.9184 12.6402C23.1922 12.7441 23.4078 12.8852 23.5652 13.0632C23.7225 13.2413 23.8011 13.4879 23.8009 13.803V13.8164C23.8057 14.0135 23.7632 14.2088 23.6769 14.386ZM22.509 11.78C22.509 11.6221 22.4504 11.5014 22.3332 11.418C22.2159 11.3345 22.0467 11.2928 21.8255 11.2928H20.7965V12.2944H21.7569C21.9871 12.2944 22.1698 12.2549 22.3052 12.1759C22.4405 12.097 22.5082 11.9695 22.5082 11.7935L22.509 11.78ZM22.773 13.6753C22.7755 13.6025 22.7601 13.5301 22.7283 13.4645C22.6964 13.3989 22.649 13.3421 22.5902 13.299C22.4683 13.2066 22.2723 13.1599 22.0022 13.159H20.7982V14.2014H22.0369C22.2671 14.2014 22.4476 14.1597 22.5785 14.0763C22.7093 13.9928 22.7746 13.8631 22.7745 13.6871L22.773 13.6753Z" fill="white"/>
<path d="M23.723 18.1523V20.4724H4.36719V19.2522C4.36715 19.1077 4.39557 18.9647 4.45083 18.8312C4.50609 18.6978 4.5871 18.5765 4.68924 18.4744C4.79138 18.3723 4.91264 18.2912 5.04609 18.236C5.17955 18.1807 5.32258 18.1523 5.46703 18.1523H23.723Z" fill="#FAB613"/>
<path d="M4.36719 21.2266H23.723V23.5466H5.46703C5.32256 23.5467 5.1795 23.5182 5.04603 23.463C4.91256 23.4077 4.79128 23.3267 4.68914 23.2245C4.587 23.1223 4.506 23.001 4.45075 22.8675C4.39551 22.7341 4.36711 22.591 4.36719 22.4465V21.2266Z" fill="#FAB613"/>
</svg>
