<svg width="20" height="20" viewBox="0 0 20 20" fill="none" xmlns="http://www.w3.org/2000/svg">
<path d="M10 20C15.5228 20 20 15.5228 20 10C20 4.47715 15.5228 0 10 0C4.47715 0 0 4.47715 0 10C0 15.5228 4.47715 20 10 20Z" fill="#FEAD9A"/>
<path d="M9.99986 16.4314C13.5503 16.4314 16.4284 13.5532 16.4284 10.0028C16.4284 6.45239 13.5503 3.57422 9.99986 3.57422C6.44946 3.57422 3.57129 6.45239 3.57129 10.0028C3.57129 13.5532 6.44946 16.4314 9.99986 16.4314Z" fill="white"/>
<path fill-rule="evenodd" clip-rule="evenodd" d="M4.28599 10.0022C4.28599 8.68366 4.73956 7.47152 5.49171 6.50438L13.4981 14.5108C12.5303 15.2629 11.3189 15.7165 10.0003 15.7165C6.84957 15.7165 4.28599 13.1529 4.28599 10.0022ZM14.5089 13.5001L6.50242 5.49366C7.47028 4.74152 8.68171 4.28795 10.0003 4.28795C13.151 4.28795 15.7146 6.85152 15.7146 10.0022C15.7146 11.3208 15.261 12.5329 14.5089 13.5001ZM2.85742 10.0022C2.85742 13.9408 6.06171 17.1451 10.0003 17.1451C13.9389 17.1451 17.1431 13.9408 17.1431 10.0022C17.1431 6.06366 13.9389 2.85938 10.0003 2.85938C6.06171 2.85938 2.85742 6.06366 2.85742 10.0022Z" fill="#EE1630"/>
</svg>
