<svg width="24" height="22" viewBox="0 0 24 22" fill="none" xmlns="http://www.w3.org/2000/svg">
<path d="M9 0H1.5C0.6 0 0 0.55 0 1.375V8.25C0 9.075 0.6 9.625 1.5 9.625H9C9.9 9.625 10.5 9.075 10.5 8.25V1.375C10.5 0.55 9.9 0 9 0Z" fill="#111111"/>
<path d="M22.5 0H15C14.1 0 13.5 0.55 13.5 1.375V8.25C13.5 9.075 14.1 9.625 15 9.625H22.5C23.4 9.625 24 9.075 24 8.25V1.375C24 0.55 23.4 0 22.5 0Z" fill="#111111"/>
<path d="M9 12.375H1.5C0.6 12.375 0 12.925 0 13.75V20.625C0 21.45 0.6 22 1.5 22H9C9.9 22 10.5 21.45 10.5 20.625V13.75C10.5 12.925 9.9 12.375 9 12.375Z" fill="#111111"/>
<path d="M22.5 12.375H15C14.1 12.375 13.5 12.925 13.5 13.75V20.625C13.5 21.45 14.1 22 15 22H22.5C23.4 22 24 21.45 24 20.625V13.75C24 12.925 23.4 12.375 22.5 12.375Z" fill="#111111"/>
</svg>
