<svg width="20" height="20" viewBox="0 0 20 20" fill="none" xmlns="http://www.w3.org/2000/svg">
<path d="M7.5 0H1.25C0.5 0 0 0.5 0 1.25V7.5C0 8.25 0.5 8.75 1.25 8.75H7.5C8.25 8.75 8.75 8.25 8.75 7.5V1.25C8.75 0.5 8.25 0 7.5 0Z" fill="#92929D"/>
<path d="M18.75 0H12.5C11.75 0 11.25 0.5 11.25 1.25V7.5C11.25 8.25 11.75 8.75 12.5 8.75H18.75C19.5 8.75 20 8.25 20 7.5V1.25C20 0.5 19.5 0 18.75 0Z" fill="#92929D"/>
<path d="M7.5 11.25H1.25C0.5 11.25 0 11.75 0 12.5V18.75C0 19.5 0.5 20 1.25 20H7.5C8.25 20 8.75 19.5 8.75 18.75V12.5C8.75 11.75 8.25 11.25 7.5 11.25Z" fill="#92929D"/>
<path d="M18.75 11.25H12.5C11.75 11.25 11.25 11.75 11.25 12.5V18.75C11.25 19.5 11.75 20 12.5 20H18.75C19.5 20 20 19.5 20 18.75V12.5C20 11.75 19.5 11.25 18.75 11.25Z" fill="#92929D"/>
</svg>
