<svg width="44" height="44" viewBox="0 0 44 44" fill="none" xmlns="http://www.w3.org/2000/svg">
<g filter="url(#filter0_d)">
<path d="M42 20C42 8.9543 33.0457 0 22 0C10.9543 0 2 8.9543 2 20C2 31.0457 10.9543 40 22 40C33.0457 40 42 31.0457 42 20Z" fill="black"/>
</g>
<path d="M42 20C42 8.9543 33.0457 0 22 0C10.9543 0 2 8.9543 2 20C2 31.0457 10.9543 40 22 40C33.0457 40 42 31.0457 42 20Z" fill="white"/>
<path d="M22 0C33.0457 0 42 8.9543 42 20C42 31.0457 33.0457 40 22 40C10.9543 40 2 31.0457 2 20C2 8.9543 10.9543 0 22 0Z" fill="#4F1699"/>
<path opacity="0.1" d="M22 0.5C27.3848 0.5 32.2598 2.68261 35.7886 6.21142C39.3174 9.74022 41.5 14.6152 41.5 20C41.5 25.3848 39.3174 30.2598 35.7886 33.7886C32.2598 37.3174 27.3848 39.5 22 39.5C16.6152 39.5 11.7402 37.3174 8.21142 33.7886C4.68261 30.2598 2.5 25.3848 2.5 20C2.5 14.6152 4.68261 9.74022 8.21142 6.21142C11.7402 2.68261 16.6152 0.5 22 0.5Z" stroke="#363648"/>
<path fill-rule="evenodd" clip-rule="evenodd" d="M22 14.9956L27 10L32 14.9956L27 20L22 14.9956ZM12 11.31V19.31H20V11.31H12ZM20 29.31H12V21.31H20V29.31ZM23 29.31V21.31H31V29.31H23Z" fill="white"/>
<defs>
<filter id="filter0_d" x="0" y="0" width="44" height="44" filterUnits="userSpaceOnUse" color-interpolation-filters="sRGB">
<feFlood flood-opacity="0" result="BackgroundImageFix"/>
<feColorMatrix in="SourceAlpha" type="matrix" values="0 0 0 0 0 0 0 0 0 0 0 0 0 0 0 0 0 0 127 0"/>
<feOffset dy="2"/>
<feGaussianBlur stdDeviation="1"/>
<feColorMatrix type="matrix" values="0 0 0 0 0 0 0 0 0 0 0 0 0 0 0 0 0 0 0.05 0"/>
<feBlend mode="normal" in2="BackgroundImageFix" result="effect1_dropShadow"/>
<feBlend mode="normal" in="SourceGraphic" in2="effect1_dropShadow" result="shape"/>
</filter>
</defs>
</svg>
