<svg width="108" height="34" viewBox="0 0 108 34" fill="none" xmlns="http://www.w3.org/2000/svg">
<path d="M34.1427 13.2702V15.9882C33.1308 15.3533 31.9615 15.014 30.7669 15.0086C29.768 15.0086 29.2086 15.3471 29.2086 15.8874C29.2086 16.4876 29.8497 16.7253 31.1078 17.0662C32.9254 17.5056 34.863 18.1251 34.863 20.4613C34.863 22.639 33.1439 24.0364 30.1474 24.0364C28.5507 24.0364 27.1725 23.6378 26.1929 22.9992V20.0627C27.2655 20.9554 28.6175 21.4431 30.0129 21.4409C31.1318 21.4409 31.7705 21.0807 31.7705 20.4805C31.7705 19.8034 30.9709 19.5825 29.5327 19.1839C27.7752 18.6845 26.1377 17.9642 26.1377 15.9474C26.1377 13.9305 27.7968 12.4131 30.6516 12.4131C31.9458 12.4131 33.2831 12.7252 34.1427 13.2702Z" fill="white"/>
<path d="M46.4069 19.1243H38.8773C39.2975 20.7017 40.6757 21.5253 42.3516 21.5253C43.5853 21.4979 44.7852 21.117 45.809 20.428V23.0499C44.6355 23.7203 43.3043 24.0651 41.953 24.0488C38.0585 24.0488 35.8208 21.6333 35.8208 18.2863C35.8208 14.7712 38.2986 12.4351 41.3743 12.4351C44.1907 12.4351 46.4885 14.3727 46.4885 18.0654C46.493 18.4201 46.4657 18.7745 46.4069 19.1243ZM43.4512 17.2035C43.432 15.7629 42.5316 14.9273 41.3551 14.9273C40.1786 14.9273 39.1174 15.8061 38.8173 17.2035H43.4512Z" fill="white"/>
<path d="M51.7204 12.6918H54.6785V15.333H51.7204V19.3042C51.7204 20.7016 52.64 21.2418 53.8813 21.2418C54.2164 21.2351 54.5505 21.2014 54.8802 21.141V23.8181C54.3095 23.9443 53.7262 24.0047 53.1418 23.9982C50.2054 23.9982 48.6279 22.2599 48.6279 19.5035V15.3282H47.0601V12.687H48.6375V10.1348H51.7132L51.7204 12.6918Z" fill="white"/>
<path d="M60.0111 12.6918H62.9668V15.333H60.0111V19.3042C60.0111 20.7016 60.9307 21.2419 62.172 21.2419C62.5063 21.2351 62.8396 21.2013 63.1684 21.141V23.8181C62.5986 23.9442 62.0161 24.0046 61.4325 23.9982C58.4961 23.9982 56.9186 22.2599 56.9186 19.5035V15.3282H55.3604V12.687H56.9378V10.1348H60.0135L60.0111 12.6918Z" fill="white"/>
<path d="M64.5654 7.71924H67.7612V23.77H64.5654V7.71924Z" fill="white"/>
<path d="M69.5407 22.0894C69.5407 21.7336 69.6462 21.3858 69.8439 21.09C70.0417 20.7942 70.3227 20.5637 70.6514 20.4277C70.9802 20.2916 71.3419 20.2562 71.6908 20.3257C72.0397 20.3953 72.3601 20.5668 72.6115 20.8186C72.8629 21.0703 73.034 21.391 73.1031 21.74C73.1723 22.089 73.1363 22.4507 72.9998 22.7792C72.8634 23.1078 72.6325 23.3885 72.3364 23.5858C72.0404 23.7831 71.6924 23.8882 71.3366 23.8877C71.0998 23.8906 70.8648 23.8461 70.6454 23.7567C70.426 23.6673 70.2268 23.5349 70.0594 23.3673C69.892 23.1997 69.7599 23.0003 69.6708 22.7808C69.5817 22.5613 69.5375 22.3262 69.5407 22.0894Z" fill="white"/>
<path d="M90.6719 16.4276V23.7699H87.4761V17.0855C87.4761 15.885 87.0775 15.3087 85.9995 15.3087C84.9599 15.3087 84.3812 16.0674 84.3812 16.9654V23.7699H81.1855V17.0855C81.1855 15.885 80.7845 15.3087 79.7064 15.3087C78.6284 15.3087 78.1098 16.1467 78.1098 17.1071V23.7699H74.9116V12.6916H77.3871L77.7064 14.2307H77.7664C78.3451 13.251 79.3055 12.4131 80.8421 12.4131C82.3788 12.4131 83.38 13.1502 83.9394 14.2907C84.6597 13.131 85.7162 12.4131 87.1136 12.4131C89.5338 12.4131 90.6719 14.0098 90.6719 16.4276Z" fill="white"/>
<path d="M102.763 19.1243H95.2289C95.6466 20.7017 97.0248 21.5253 98.7031 21.5253C99.9361 21.4978 101.135 21.117 102.158 20.428V23.0499C100.986 23.7203 99.6551 24.0651 98.3046 24.0488C94.4077 24.0488 92.1724 21.6333 92.1724 18.2863C92.1724 14.7712 94.6478 12.4351 97.7235 12.4351C100.54 12.4351 102.838 14.3727 102.838 18.0654C102.845 18.4199 102.82 18.7743 102.763 19.1243ZM99.8076 17.2035C99.786 15.7629 98.888 14.9273 97.7091 14.9273C96.5302 14.9273 95.4714 15.8061 95.1736 17.2035H99.8076Z" fill="white"/>
<path d="M14.5811 7.89697L7.70703 14.7687H14.5811L21.4552 7.89697H14.5811Z" fill="white"/>
<path d="M7.70703 14.7686L14.5811 21.6379H21.4552L14.5811 14.7686H7.70703Z" fill="white"/>
<path d="M14.5811 21.6377L7.70703 28.5118H14.5811L21.4552 21.6377H14.5811Z" fill="white"/>
</svg>
