<svg width="60" height="60" viewBox="0 0 60 60" fill="none" xmlns="http://www.w3.org/2000/svg">
<path d="M30 60C46.5685 60 60 46.5685 60 30C60 13.4315 46.5685 0 30 0C13.4315 0 0 13.4315 0 30C0 46.5685 13.4315 60 30 60Z" fill="#FCF8FC"/>
<path d="M28 21.0008C28.377 21.0008 28.725 21.2138 28.895 21.5538L31.863 27.4898C32.026 27.8158 31.998 28.2058 31.791 28.5068L27 35.0008L33.495 30.2108C33.796 30.0028 34.186 29.9768 34.512 30.1388L40.447 33.1058C40.803 33.2848 41.02 33.6578 40.998 34.0558C40.977 34.4538 40.72 34.8018 40.346 34.9388L21.346 41.9388C20.981 42.0718 20.57 41.9848 20.293 41.7078C20.017 41.4328 19.927 41.0208 20.062 40.6548L27.062 21.6548C27.2 21.2808 27.547 21.0238 27.945 21.0028C27.963 21.0018 27.982 21.0008 28 21.0008Z" fill="#7755FE"/>
</svg>
