<svg width="24" height="24" viewBox="0 0 24 24" fill="none" xmlns="http://www.w3.org/2000/svg">
<path fill-rule="evenodd" clip-rule="evenodd" d="M12 7C12.5523 7 13 7.44772 13 8V12C13 12.5523 12.5523 13 12 13C11.4477 13 11 12.5523 11 12V8C11 7.44772 11.4477 7 12 7Z" fill="#858EBD"/>
<path fill-rule="evenodd" clip-rule="evenodd" d="M5 12C5 11.4477 5.44772 11 6 11H18C18.5523 11 19 11.4477 19 12V16C19 16.5523 18.5523 17 18 17C17.4477 17 17 16.5523 17 16V13H7V16C7 16.5523 6.55228 17 6 17C5.44772 17 5 16.5523 5 16V12Z" fill="#858EBD"/>
<path d="M16 5C16 3.34315 14.6569 2 13 2H11C9.34315 2 8 3.34315 8 5C8 6.65685 9.34315 8 11 8H13C14.6569 8 16 6.65685 16 5Z" fill="#858EBD"/>
<path d="M22 19C22 17.3431 20.6569 16 19 16H17C15.3431 16 14 17.3431 14 19C14 20.6569 15.3431 22 17 22H19C20.6569 22 22 20.6569 22 19Z" fill="#858EBD"/>
<path d="M10 19C10 17.3431 8.65685 16 7 16H5C3.34315 16 2 17.3431 2 19C2 20.6569 3.34315 22 5 22H7C8.65685 22 10 20.6569 10 19Z" fill="#858EBD"/>
</svg>
