<svg width="44" height="44" viewBox="0 0 44 44" fill="none" xmlns="http://www.w3.org/2000/svg">
<g filter="url(#filter0_d)">
<path d="M42 20C42 8.9543 33.0457 0 22 0C10.9543 0 2 8.9543 2 20C2 31.0457 10.9543 40 22 40C33.0457 40 42 31.0457 42 20Z" fill="black"/>
</g>
<path d="M42 20C42 8.9543 33.0457 0 22 0C10.9543 0 2 8.9543 2 20C2 31.0457 10.9543 40 22 40C33.0457 40 42 31.0457 42 20Z" fill="white"/>
<path d="M22 0C33.0457 0 42 8.9543 42 20C42 31.0457 33.0457 40 22 40C10.9543 40 2 31.0457 2 20C2 8.9543 10.9543 0 22 0Z" fill="#4F1699"/>
<path opacity="0.1" d="M22 0.5C27.3848 0.5 32.2598 2.68261 35.7886 6.21142C39.3174 9.74022 41.5 14.6152 41.5 20C41.5 25.3848 39.3174 30.2598 35.7886 33.7886C32.2598 37.3174 27.3848 39.5 22 39.5C16.6152 39.5 11.7402 37.3174 8.21142 33.7886C4.68261 30.2598 2.5 25.3848 2.5 20C2.5 14.6152 4.68261 9.74022 8.21142 6.21142C11.7402 2.68261 16.6152 0.5 22 0.5Z" stroke="#363648"/>
<g clip-path="url(#clip0)">
<path d="M30.6957 13.8956H29.2398C29.4319 13.5917 29.5586 13.2506 29.5947 12.8898C29.7102 11.7368 29.1029 10.7032 28.0691 10.245C27.1189 9.82375 26.0511 9.99594 25.2821 10.6934L23.4438 12.3594C23.0858 11.9678 22.5712 11.7217 22 11.7217C21.4278 11.7217 20.9123 11.9686 20.5543 12.3614L18.7136 10.6932C17.9434 9.99574 16.876 9.82422 15.9262 10.2452C14.8927 10.7035 14.2854 11.7374 14.4011 12.8904C14.4373 13.2509 14.564 13.5919 14.756 13.8956H13.3043C12.5839 13.8956 12 14.4796 12 15.2V17.1565C12 17.5166 12.292 17.8087 12.6522 17.8087H31.3479C31.708 17.8087 32 17.5167 32 17.1565V15.2C32 14.4796 31.4161 13.8956 30.6957 13.8956ZM20.0435 13.6782V13.8956H16.9754C16.1648 13.8956 15.5268 13.1399 15.7293 12.2959C15.8184 11.9243 16.0867 11.6074 16.4337 11.447C16.9102 11.2268 17.438 11.2975 17.8382 11.6597L20.044 13.659C20.0439 13.6655 20.0435 13.6718 20.0435 13.6782ZM28.3005 12.7166C28.252 13.3945 27.6396 13.8957 26.9601 13.8957H23.9565V13.6783C23.9565 13.6706 23.9561 13.663 23.956 13.6553C24.4557 13.2023 25.5397 12.2198 26.1276 11.6869C26.4618 11.3841 26.9293 11.2427 27.3615 11.3716C27.9817 11.5566 28.3459 12.084 28.3005 12.7166Z" fill="white"/>
<path d="M13.3043 19.1133V28.6785C13.3043 29.3989 13.8883 29.9828 14.6087 29.9828H20.6956V19.1133H13.3043Z" fill="white"/>
<path d="M23.3043 19.1133V29.9828H29.3913C30.1117 29.9828 30.6956 29.3989 30.6956 28.6785V19.1133H23.3043Z" fill="white"/>
</g>
<defs>
<filter id="filter0_d" x="0" y="0" width="44" height="44" filterUnits="userSpaceOnUse" color-interpolation-filters="sRGB">
<feFlood flood-opacity="0" result="BackgroundImageFix"/>
<feColorMatrix in="SourceAlpha" type="matrix" values="0 0 0 0 0 0 0 0 0 0 0 0 0 0 0 0 0 0 127 0"/>
<feOffset dy="2"/>
<feGaussianBlur stdDeviation="1"/>
<feColorMatrix type="matrix" values="0 0 0 0 0 0 0 0 0 0 0 0 0 0 0 0 0 0 0.05 0"/>
<feBlend mode="normal" in2="BackgroundImageFix" result="effect1_dropShadow"/>
<feBlend mode="normal" in="SourceGraphic" in2="effect1_dropShadow" result="shape"/>
</filter>
<clipPath id="clip0">
<rect width="20" height="20" fill="white" transform="translate(12 10)"/>
</clipPath>
</defs>
</svg>
