<svg width="42" height="42" viewBox="0 0 42 42" fill="none" xmlns="http://www.w3.org/2000/svg">
<g opacity="0.74">
<path d="M29.3751 20.6258C29.3298 20.4307 29.2353 20.2505 29.1004 20.1024C28.9656 19.9542 28.795 19.8432 28.605 19.7799L22.8554 17.8634L26.9384 9.70016C27.0643 9.45103 27.0971 9.16515 27.0309 8.89398C26.9647 8.62281 26.804 8.38416 26.5775 8.22101C26.351 8.05786 26.0737 7.98091 25.7955 8.00403C25.5174 8.02714 25.2566 8.1488 25.0601 8.3471L13.3434 20.0689C13.2021 20.21 13.0993 20.385 13.0446 20.5771C12.99 20.7692 12.9854 20.9721 13.0313 21.1665C13.0772 21.3608 13.1721 21.5403 13.3069 21.6876C13.4417 21.835 13.6119 21.9455 13.8014 22.0085L19.5511 23.9251L15.468 32.0883C15.3422 32.3374 15.3093 32.6233 15.3755 32.8944C15.4417 33.1656 15.6025 33.4043 15.829 33.5674C16.0554 33.7306 16.3327 33.8075 16.6109 33.7844C16.8891 33.7613 17.1498 33.6396 17.3463 33.4413L29.0652 21.7224C29.2057 21.5811 29.308 21.4062 29.3622 21.2143C29.4164 21.0224 29.4209 20.8199 29.3751 20.6258V20.6258Z" stroke="#4F1699" stroke-width="1.8"/>
<path d="M20.9983 1C18.0738 1.02097 15.189 1.6785 12.5442 2.92689C9.89946 4.17529 7.55827 5.98461 5.68333 8.22912V6.93746C5.68333 6.62669 5.55988 6.32865 5.34013 6.10891C5.12039 5.88916 4.82235 5.76571 4.51159 5.76571C4.20082 5.76571 3.90278 5.88916 3.68304 6.10891C3.46329 6.32865 3.33984 6.62669 3.33984 6.93746V11.9156C3.33984 13.0338 4.78466 13.1942 4.51159 13.0873C4.53543 13.0873 4.55999 13.0873 4.58383 13.0873L9.27152 12.7983C9.42511 12.7889 9.57533 12.7492 9.7136 12.6817C9.85187 12.6141 9.97548 12.52 10.0774 12.4047C10.1793 12.2894 10.2575 12.1551 10.3075 12.0096C10.3575 11.8641 10.3783 11.7101 10.3689 11.5565C10.3594 11.4029 10.3197 11.2527 10.2522 11.1144C10.1846 10.9762 10.0905 10.8526 9.97521 10.7507C9.8599 10.6488 9.72565 10.5706 9.58012 10.5206C9.43459 10.4706 9.28063 10.4497 9.12704 10.4592L6.75249 10.6037C8.94415 7.59061 12.0336 5.34897 15.578 4.20017C19.1223 3.05137 22.9393 3.05443 26.4818 4.20891C30.0242 5.3634 33.1101 7.61 35.297 10.6266C37.4838 13.6431 38.6592 17.2747 38.6547 21.0005C38.6547 21.3113 38.7781 21.6093 38.9979 21.8291C39.2176 22.0488 39.5156 22.1723 39.8264 22.1723C40.1372 22.1723 40.4352 22.0488 40.655 21.8291C40.8747 21.6093 40.9982 21.3113 40.9982 21.0005C40.9776 15.7025 38.8639 10.6273 35.1177 6.88098C31.3715 3.13461 26.2964 1.02074 20.9983 1V1Z" fill="#4F1699" stroke="white" stroke-width="0.5"/>
<path d="M37.4093 28.9146L32.7216 29.2035C32.412 29.2241 32.1233 29.3666 31.9186 29.5998C31.714 29.833 31.6102 30.1379 31.63 30.4475C31.6525 30.7564 31.795 31.0443 32.0271 31.2494C32.2593 31.4545 32.5625 31.5606 32.8718 31.5448L35.2464 31.4004C33.0546 34.414 29.9648 36.656 26.42 37.8049C22.8752 38.9538 19.0576 38.9506 15.5148 37.7956C11.9719 36.6406 8.88592 34.3933 6.69934 31.3759C4.51276 28.3585 3.33798 24.7262 3.34349 20.9999C3.34349 20.6891 3.22003 20.3911 3.00029 20.1713C2.78055 19.9516 2.48251 19.8281 2.17174 19.8281C1.86098 19.8281 1.56294 19.9516 1.3432 20.1713C1.12345 20.3911 1 20.6891 1 20.9999C1.02055 26.298 3.13434 31.3733 6.88072 35.1197C10.6271 38.8661 15.7024 40.9799 21.0005 41.0004C23.925 40.9795 26.8099 40.3219 29.4547 39.0735C32.0994 37.8251 34.4406 36.0158 36.3155 33.7713V35.0629C36.3155 35.3737 36.439 35.6718 36.6587 35.8915C36.8785 36.1112 37.1765 36.2347 37.4873 36.2347C37.7981 36.2347 38.0961 36.1112 38.3158 35.8915C38.5356 35.6718 38.659 35.3737 38.659 35.0629V30.0863C38.6444 29.7667 38.5056 29.4654 38.2722 29.2465C38.0388 29.0277 37.7292 28.9086 37.4093 28.9146Z" fill="#4F1699" stroke="white" stroke-width="0.5"/>
</g>
</svg>
