<svg width="20" height="20" viewBox="0 0 20 20" fill="none" xmlns="http://www.w3.org/2000/svg">
<path fill-rule="evenodd" clip-rule="evenodd" d="M3.90274 14.6979C0.921742 11.7169 0.921742 6.88375 3.90274 3.90274C6.88375 0.921742 11.7169 0.921742 14.6979 3.90274C17.4227 6.62755 17.6569 10.8998 15.4004 13.8906L18.4123 16.9024C19.1979 17.6881 18.0195 18.8666 17.2338 18.081L17.2337 18.081L14.2579 15.1052C11.2588 17.6721 6.74117 17.5363 3.90274 14.6979ZM13.5194 5.08126C11.1893 2.75113 7.41138 2.75113 5.08126 5.08126C2.75113 7.41138 2.75113 11.1893 5.08126 13.5194C7.41138 15.8495 11.1893 15.8495 13.5194 13.5194C15.8495 11.1893 15.8495 7.41138 13.5194 5.08126Z" fill="#92929D"/>
</svg>
