<svg width="194" height="42" viewBox="0 0 194 42" fill="none" xmlns="http://www.w3.org/2000/svg">
<path d="M53.9088 11.2128V16.7029C51.8453 15.4204 49.4607 14.735 47.0246 14.7241C44.9877 14.7241 43.8469 15.408 43.8469 16.4992C43.8469 17.7117 45.1542 18.1918 47.7199 18.8805C51.4264 19.768 55.3778 21.0193 55.3778 25.7382C55.3778 30.137 51.872 32.9596 45.7613 32.9596C42.5053 32.9596 39.6948 32.1545 37.6971 30.8645V24.9331C39.8844 26.7362 42.6414 27.7214 45.4872 27.7169C47.7688 27.7169 49.0713 26.9894 49.0713 25.777C49.0713 24.4093 47.4408 23.9631 44.5079 23.158C40.9238 22.1493 37.5845 20.6943 37.5845 16.6204C37.5845 12.5466 40.9678 9.48145 46.7896 9.48145C49.4287 9.48145 52.156 10.1119 53.9088 11.2128Z" fill="#401A6D"/>
<path d="M78.9192 23.0371H63.5643C64.4212 26.2235 67.2317 27.887 70.6493 27.887C73.1652 27.8316 75.6123 27.0623 77.7 25.6706V30.9666C75.3069 32.3206 72.5923 33.0171 69.8365 32.9842C61.8947 32.9842 57.3313 28.1052 57.3313 21.3445C57.3313 14.2443 62.3843 9.52539 68.6565 9.52539C74.3999 9.52539 79.0857 13.4392 79.0857 20.8983C79.0949 21.6147 79.0392 22.3305 78.9192 23.0371ZM72.8918 19.1572C72.8527 16.2473 71.0165 14.5595 68.6173 14.5595C66.2181 14.5595 64.054 16.3346 63.4419 19.1572H72.8918Z" fill="#401A6D"/>
<path d="M89.7548 10.044H95.787V15.3788H89.7548V23.4005C89.7548 26.2231 91.6301 27.3143 94.1615 27.3143C94.8448 27.3007 95.526 27.2326 96.1983 27.1107V32.5182C95.0346 32.7731 93.8452 32.8952 92.6534 32.882C86.6652 32.882 83.4483 29.3707 83.4483 23.803V15.3691H80.251V10.0343H83.4679V4.87891H89.7401L89.7548 10.044Z" fill="#401A6D"/>
<path d="M106.662 10.044H112.689V15.3789H106.662V23.4005C106.662 26.2231 108.537 27.3144 111.069 27.3144C111.75 27.3006 112.43 27.2325 113.101 27.1107V32.5183C111.939 32.7729 110.751 32.895 109.561 32.882C103.572 32.882 100.356 29.3707 100.356 23.8031V15.3692H97.1779V10.0343H100.395V4.87891H106.667L106.662 10.044Z" fill="#401A6D"/>
<path d="M115.95 0H122.467V32.4213H115.95V0Z" fill="#401A6D"/>
<path d="M126.095 29.0266C126.095 28.3079 126.311 27.6054 126.714 27.0079C127.117 26.4105 127.69 25.9449 128.36 25.6701C129.031 25.3953 129.768 25.3236 130.48 25.4642C131.192 25.6048 131.845 25.9512 132.358 26.4597C132.87 26.9682 133.219 27.6159 133.36 28.3209C133.501 29.0259 133.428 29.7564 133.15 30.4201C132.871 31.0837 132.4 31.6507 131.797 32.0493C131.193 32.4479 130.483 32.6601 129.758 32.6591C129.275 32.665 128.796 32.575 128.348 32.3945C127.901 32.214 127.495 31.9465 127.153 31.608C126.812 31.2694 126.542 30.8666 126.361 30.4232C126.179 29.9799 126.089 29.505 126.095 29.0266Z" fill="#401A6D"/>
<path d="M169.188 17.5904V32.4213H162.671V18.9193C162.671 16.4943 161.858 15.3304 159.66 15.3304C157.539 15.3304 156.359 16.8629 156.359 18.6768V32.4213H149.842V18.9193C149.842 16.4943 149.025 15.3304 146.826 15.3304C144.628 15.3304 143.57 17.023 143.57 18.9629V32.4213H137.048V10.044H142.096L142.748 13.1528H142.87C144.05 11.174 146.009 9.48145 149.142 9.48145C152.276 9.48145 154.318 10.9704 155.459 13.274C156.927 10.9316 159.082 9.48145 161.931 9.48145C166.867 9.48145 169.188 12.7066 169.188 17.5904Z" fill="#401A6D"/>
<path d="M193.846 23.0371H178.481C179.333 26.2235 182.144 27.887 185.566 27.887C188.081 27.8314 190.526 27.0622 192.612 25.6706V30.9666C190.221 32.3206 187.508 33.0172 184.754 32.9842C176.807 32.9842 172.248 28.1052 172.248 21.3445C172.248 14.2443 177.296 9.52539 183.569 9.52539C189.312 9.52539 193.998 13.4392 193.998 20.8983C194.012 21.6143 193.961 22.3301 193.846 23.0371ZM187.819 19.1572C187.775 16.2473 185.943 14.5595 183.539 14.5595C181.135 14.5595 178.976 16.3346 178.369 19.1572H187.819Z" fill="#401A6D"/>
<path d="M14.0182 0.358887L0 14.2392H14.0182L28.0364 0.358887H14.0182Z" fill="#512E90"/>
<path d="M0 14.2393L14.0182 28.1147H28.0364L14.0182 14.2393H0Z" fill="#8E4F9F"/>
<path d="M14.0182 28.1147L0 41.9999H14.0182L28.0364 28.1147H14.0182Z" fill="#EE2365"/>
</svg>
