<svg width="20" height="20" viewBox="0 0 20 20" fill="none" xmlns="http://www.w3.org/2000/svg">
<mask id="mask0" mask-type="alpha" maskUnits="userSpaceOnUse" x="0" y="0" width="21" height="20">
<path d="M19.0002 0.523438H10.0002C9.73525 0.523438 9.48025 0.624137 9.29325 0.801787L0.29325 9.35179C-0.09775 9.72324 -0.09775 10.3236 0.29325 10.6951L9.29325 19.2451C9.48825 19.4303 9.74425 19.5234 10.0002 19.5234C10.2562 19.5234 10.5122 19.4303 10.7072 19.2451L19.7073 10.6951C19.8953 10.5174 20.0002 10.2752 20.0002 10.0234V1.47344C20.0002 0.949037 19.5522 0.523438 19.0002 0.523438ZM4.00025 8.51674L11.5863 15.7234L10.0002 17.2301L2.41425 10.0234L4.00025 8.51674ZM18.0002 2.42344V9.63014L13.0002 14.3801L5.41425 7.17344L10.4142 2.42344H18.0002ZM15.0002 6.22353C15.5522 6.22353 16.0002 5.79793 16.0002 5.27353C16.0002 4.74913 15.5522 4.32353 15.0002 4.32353C14.4482 4.32353 14.0002 4.74913 14.0002 5.27353C14.0002 5.79793 14.4482 6.22353 15.0002 6.22353Z" fill="white"/>
</mask>
<g mask="url(#mask0)">
<path d="M19.0002 0.523438H10.0002C9.73525 0.523438 9.48025 0.624137 9.29325 0.801787L0.29325 9.35179C-0.09775 9.72324 -0.09775 10.3236 0.29325 10.6951L9.29325 19.2451C9.48825 19.4303 9.74425 19.5234 10.0002 19.5234C10.2562 19.5234 10.5122 19.4303 10.7072 19.2451L19.7073 10.6951C19.8953 10.5174 20.0002 10.2752 20.0002 10.0234V1.47344C20.0002 0.949037 19.5522 0.523438 19.0002 0.523438ZM4.00025 8.51674L11.5863 15.7234L10.0002 17.2301L2.41425 10.0234L4.00025 8.51674ZM18.0002 2.42344V9.63014L13.0002 14.3801L5.41425 7.17344L10.4142 2.42344H18.0002ZM15.0002 6.22353C15.5522 6.22353 16.0002 5.79793 16.0002 5.27353C16.0002 4.74913 15.5522 4.32353 15.0002 4.32353C14.4482 4.32353 14.0002 4.74913 14.0002 5.27353C14.0002 5.79793 14.4482 6.22353 15.0002 6.22353Z" fill="#919EAB"/>
<path d="M21.0002 0.523438H0.000244141V20.5234H21.0002V0.523438Z" fill="white"/>
</g>
</svg>
