<svg width="64" height="64" viewBox="0 0 64 64" fill="none" xmlns="http://www.w3.org/2000/svg">
<path fill-rule="evenodd" clip-rule="evenodd" d="M32 0C49.6731 0 64 14.3269 64 32C64 49.6731 49.6731 64 32 64C14.3269 64 0 49.6731 0 32C0 14.3269 14.3269 0 32 0ZM47.1307 21.7373C45.881 20.4876 43.8549 20.4876 42.6052 21.7373L25.668 38.6745L19.8627 32.8693C18.6131 31.6196 16.5869 31.6196 15.3373 32.8693C14.0876 34.1189 14.0876 36.1451 15.3373 37.3947L23.4053 45.4627C24.6549 46.7124 26.6811 46.7124 27.9307 45.4627L47.1307 26.2627C48.3804 25.0131 48.3804 22.9869 47.1307 21.7373Z" fill="#37B74D"/>
</svg>
