<svg width="50" height="50" viewBox="0 0 50 50" fill="none" xmlns="http://www.w3.org/2000/svg">
<rect width="50" height="50" rx="10" fill="#FEF3F9"/>
<g clip-path="url(#clip0)">
<path d="M18.7499 20.4168C17.8295 20.4168 17.0833 19.6706 17.0833 18.7502C17.0833 17.8297 17.8295 17.0835 18.7499 17.0835C19.6703 17.0835 20.4166 17.8297 20.4166 18.7502C20.4166 19.6706 19.6703 20.4168 18.7499 20.4168Z" stroke="#F173BD" stroke-width="2" stroke-miterlimit="10" stroke-linecap="round" stroke-linejoin="round"/>
<path d="M19.9999 32.9167H17.4999L17.0833 28.3333L15.8333 27.9167V24.1667C15.8333 23.2462 16.5795 22.5 17.4999 22.5H19.9999C20.6058 22.5 21.1362 22.8238 21.4278 23.3071" stroke="#F173BD" stroke-width="2" stroke-miterlimit="10" stroke-linecap="round" stroke-linejoin="round"/>
<path d="M31.2499 20.4168C32.1703 20.4168 32.9166 19.6706 32.9166 18.7502C32.9166 17.8297 32.1703 17.0835 31.2499 17.0835C30.3295 17.0835 29.5833 17.8297 29.5833 18.7502C29.5833 19.6706 30.3295 20.4168 31.2499 20.4168Z" stroke="#F173BD" stroke-width="2" stroke-miterlimit="10" stroke-linecap="round" stroke-linejoin="round"/>
<path d="M29.9999 32.9167H32.4999L32.9166 28.3333L34.1666 27.9167V24.1667C34.1666 23.2462 33.4204 22.5 32.4999 22.5H29.9999C29.3941 22.5 28.8637 22.8238 28.572 23.3071" stroke="#F173BD" stroke-width="2" stroke-miterlimit="10" stroke-linecap="round" stroke-linejoin="round"/>
<path d="M25 20.8335C23.6192 20.8335 22.5 19.7143 22.5 18.3335C22.5 16.9527 23.6192 15.8335 25 15.8335C26.3808 15.8335 27.5 16.9527 27.5 18.3335C27.5 19.7143 26.3808 20.8335 25 20.8335Z" stroke="#F173BD" stroke-width="2" stroke-miterlimit="10" stroke-linecap="round" stroke-linejoin="round"/>
<path d="M27.0833 34.167H22.9166L22.4999 29.167L20.8333 28.7503V24.5837C20.8333 23.6632 21.5795 22.917 22.4999 22.917H27.4999C28.4203 22.917 29.1666 23.6632 29.1666 24.5837V28.7503L27.4999 29.167L27.0833 34.167Z" stroke="#F173BD" stroke-width="2" stroke-miterlimit="10" stroke-linecap="round" stroke-linejoin="round"/>
</g>
<defs>
<clipPath id="clip0">
<rect width="20" height="20" fill="white" transform="translate(15 15)"/>
</clipPath>
</defs>
</svg>
