<svg width="22" height="14" viewBox="0 0 22 14" fill="none" xmlns="http://www.w3.org/2000/svg">
<path d="M16.7598 2.30952H11.1331V1L7.7998 2.88571L11.1331 4.77143V3.61905H16.7598C18.4398 3.61905 19.7465 4.82381 19.7465 6.44762C19.7465 8.09762 18.4131 9.38095 16.7598 9.38095H15.6665V10.6905H16.7598C19.1598 10.6905 20.9998 8.88333 20.9998 6.5V6.47381C20.9998 4.11667 19.2131 2.30952 16.7598 2.30952Z" fill="#858EBD" stroke="#858EBD"/>
<path d="M5.04 11.3819H10.6667V12.6914L14 10.8057L10.6667 8.91998V10.0724H5.04C3.36 10.0724 2.05333 8.8676 2.05333 7.24379C2.05333 5.59379 3.38667 4.31045 5.04 4.31045H6.13333V3.00093H5.04C2.64 3.00093 0.8 4.80807 0.8 7.19141V7.2176C0.8 9.57474 2.58667 11.3819 5.04 11.3819Z" fill="#858EBD" stroke="#858EBD"/>
</svg>
