<svg width="20" height="16" viewBox="0 0 20 16" fill="none" xmlns="http://www.w3.org/2000/svg">
<g clip-path="url(#clip0)">
<path fill-rule="evenodd" clip-rule="evenodd" d="M7.31373 5.03125C7.15362 5.28459 7.03929 5.5641 6.97595 5.85703C6.91729 6.07836 6.84973 6.76458 6.84973 6.76458C7.21993 7.02118 7.45472 7.431 7.48884 7.88014H7.49595C7.49595 7.88014 8.12351 8.16458 8.34484 8.22414C8.62878 8.32243 8.92938 8.36352 9.22929 8.34503C9.24219 8.22962 9.24871 8.1136 9.24884 7.99747C9.24588 6.71343 8.48774 5.55132 7.31373 5.03125Z" fill="white"/>
<path fill-rule="evenodd" clip-rule="evenodd" d="M8.14398 8.97672C7.92353 8.91716 7.23731 8.84961 7.23731 8.84961C6.98098 9.22067 6.5706 9.45592 6.12087 9.48961V9.49672C6.12087 9.49672 5.83642 10.1243 5.77687 10.3456C5.67869 10.6296 5.6379 10.9302 5.65687 11.2301C7.06051 11.3813 8.40055 10.6064 8.96976 9.3145C8.71622 9.15476 8.43678 9.04046 8.14398 8.97672Z" fill="white"/>
<path fill-rule="evenodd" clip-rule="evenodd" d="M4.51225 8.1198H4.50514C4.50514 8.1198 3.87758 7.83536 3.65625 7.7758C3.37089 7.67699 3.06874 7.6359 2.76736 7.65491C2.75445 7.77061 2.74792 7.88694 2.7478 8.00336C2.74967 9.2891 3.50881 10.4531 4.68469 10.9731C4.8448 10.7198 4.95913 10.4403 5.02247 10.1474C5.08114 9.92602 5.14958 9.2398 5.14958 9.2398C4.7788 8.98197 4.54452 8.57026 4.51225 8.1198Z" fill="white"/>
<path fill-rule="evenodd" clip-rule="evenodd" d="M3.8567 7.02484C4.07803 7.08351 4.76425 7.15195 4.76425 7.15195C5.02077 6.78123 5.43112 6.54632 5.8807 6.51284V6.50484C5.8807 6.50484 6.16514 5.87729 6.2247 5.65595C6.32272 5.37195 6.36379 5.0714 6.34558 4.77151C6.22988 4.7586 6.11356 4.75208 5.99714 4.75195C4.71236 4.75488 3.5497 5.51384 3.03003 6.68884C3.28378 6.84839 3.56359 6.96212 3.8567 7.02484Z" fill="white"/>
<path fill-rule="evenodd" clip-rule="evenodd" d="M14.5004 0.000838585H1.50044C0.671772 0.000838585 0 0.67261 0 1.50128V14.5013C0.000490714 15.3296 0.672119 16.0008 1.50044 16.0008L15 16.001C16.4996 16.001 15.9995 16.329 16 15.501V1.50084C16.5 -0.499029 16 0.000838585 14.5004 0.000838585ZM6 12.0008C3.79086 12.0008 2 10.21 2 8.00084C2 5.7917 3.79086 4.00084 6 4.00084C8.20914 4.00084 10 5.7917 10 8.00084C10 10.21 8.20914 12.0008 6 12.0008ZM14.5004 13.2506C14.5004 13.5186 14.3575 13.7663 14.1253 13.9003C13.8932 14.0343 13.6072 14.0343 13.3751 13.9003C13.143 13.7663 13 13.5186 13 13.2506V2.75106C13 2.48303 13.143 2.23536 13.3751 2.10135C13.6072 1.96733 13.8932 1.96733 14.1253 2.10135C14.3575 2.23536 14.5004 2.48303 14.5004 2.75106V13.2506Z" fill="white"/>
</g>
<path d="M17 0H18C19.1046 0 20 0.895431 20 2V14C20 15.1046 19.1046 16 18 16H17V0Z" fill="#E5DCF0"/>
<defs>
<clipPath id="clip0">
<rect width="16" height="16" fill="white"/>
</clipPath>
</defs>
</svg>
