<svg width="50" height="50" viewBox="0 0 50 50" fill="none" xmlns="http://www.w3.org/2000/svg">
<rect width="50" height="50" rx="10" fill="#E4FAFE"/>
<path d="M36.9584 20.3333C36.9584 21.4792 36.0209 22.4167 34.8751 22.4167C34.6876 22.4167 34.5105 22.3958 34.3438 22.3438L30.6355 26.0417C30.6876 26.2083 30.7084 26.3958 30.7084 26.5833C30.7084 27.7292 29.7709 28.6667 28.6251 28.6667C27.4792 28.6667 26.5417 27.7292 26.5417 26.5833C26.5417 26.3958 26.5626 26.2083 26.6147 26.0417L23.9584 23.3854C23.7917 23.4375 23.6042 23.4583 23.4167 23.4583C23.2292 23.4583 23.0417 23.4375 22.8751 23.3854L18.1355 28.1354C18.1876 28.3021 18.2084 28.4792 18.2084 28.6667C18.2084 29.8125 17.2709 30.75 16.1251 30.75C14.9792 30.75 14.0417 29.8125 14.0417 28.6667C14.0417 27.5208 14.9792 26.5833 16.1251 26.5833C16.3126 26.5833 16.4897 26.6042 16.6563 26.6562L21.4063 21.9167C21.3542 21.75 21.3334 21.5625 21.3334 21.375C21.3334 20.2292 22.2709 19.2917 23.4167 19.2917C24.5626 19.2917 25.5001 20.2292 25.5001 21.375C25.5001 21.5625 25.4792 21.75 25.4272 21.9167L28.0834 24.5729C28.2501 24.5208 28.4376 24.5 28.6251 24.5C28.8126 24.5 29.0001 24.5208 29.1667 24.5729L32.8647 20.8646C32.8126 20.6979 32.7917 20.5208 32.7917 20.3333C32.7917 19.1875 33.7292 18.25 34.8751 18.25C36.0209 18.25 36.9584 19.1875 36.9584 20.3333Z" fill="#32D2F1"/>
</svg>
