<svg width="32" height="32" viewBox="0 0 32 32" fill="none" xmlns="http://www.w3.org/2000/svg">
<path d="M16.9956 12.4838C16.9998 12.4768 17.0046 12.4768 17.0103 12.4838L17.0017 12.4908L16.9956 12.4838Z" fill="#0124DD"/>
<path d="M9.6444 14.9408C9.73688 14.6611 9.82456 14.3968 9.91032 14.1347C9.92088 14.1027 9.94232 14.0954 9.97016 14.0902C10.4332 14.0038 10.8982 13.9302 11.3711 13.9536C11.7049 13.9693 12.0258 14.0374 12.3132 14.2166C12.703 14.4592 12.8812 14.8246 12.9065 15.2726C12.9212 15.5302 12.8793 15.7846 12.8425 16.0368C12.766 16.5507 12.6873 17.064 12.6134 17.5779C12.6113 17.5995 12.6036 17.6201 12.5908 17.6376C12.5781 17.6551 12.5609 17.6688 12.541 17.6774C12.2396 17.8429 11.9126 17.9334 11.5766 17.9885C11.1607 18.0605 10.7366 18.0713 10.3177 18.0205C9.96856 17.9766 9.64312 17.8681 9.38968 17.6115C9.2797 17.4989 9.19432 17.3646 9.13896 17.2173C9.08361 17.0699 9.05948 16.9127 9.06812 16.7555C9.07675 16.5983 9.11796 16.4446 9.18913 16.3042C9.26029 16.1638 9.35986 16.0397 9.48152 15.9398C9.74136 15.7261 10.0486 15.6198 10.3721 15.551C10.862 15.4474 11.3564 15.4614 11.8511 15.4992C11.9129 15.5037 11.9263 15.4848 11.9292 15.4298C11.9513 15.0438 11.7196 14.7667 11.3129 14.6922C11.0306 14.6403 10.7535 14.6851 10.4764 14.7306C10.1936 14.7771 9.91532 14.8474 9.6444 14.9408ZM11.375 16.1049C11.1988 16.1038 11.0229 16.1168 10.8489 16.1437C10.6607 16.1757 10.478 16.2253 10.3263 16.3501C10.1548 16.4912 10.109 16.6806 10.143 16.8893C10.175 17.0797 10.3081 17.184 10.4806 17.2454C10.5596 17.2732 10.6419 17.291 10.7254 17.2982C11.0338 17.328 11.3334 17.2742 11.631 17.2006C11.6511 17.198 11.6697 17.188 11.683 17.1726C11.6963 17.1572 11.7035 17.1375 11.7033 17.1171C11.7439 16.8147 11.7842 16.512 11.829 16.2102C11.8367 16.1581 11.8194 16.1481 11.7759 16.1398C11.6434 16.1179 11.5093 16.1063 11.375 16.1049Z" fill="#114185"/>
<path d="M23.9284 17.0496C23.8772 17.2051 23.8324 17.3443 23.785 17.4835C23.7472 17.5978 23.7069 17.711 23.6711 17.8262C23.6676 17.8439 23.6591 17.8601 23.6464 17.8728C23.6338 17.8856 23.6176 17.8943 23.6 17.8979C23.1104 18.0285 22.6144 18.0992 22.1088 18.0355C21.5328 17.9629 21.0567 17.7155 20.7648 17.1872C20.5853 16.8602 20.5284 16.504 20.5527 16.137C20.5991 15.4387 20.89 14.8599 21.4308 14.4115C21.7594 14.1389 22.1428 13.9987 22.5645 13.9571C22.8554 13.9287 23.1447 13.9341 23.4285 14.0131C24.0064 14.1731 24.3917 14.6227 24.4656 15.2179C24.5082 15.56 24.4656 15.896 24.4103 16.2323C24.4036 16.2742 24.3824 16.2755 24.3504 16.2755C24.1952 16.2755 24.0397 16.2755 23.8845 16.2755C23.1379 16.2755 22.3912 16.2755 21.6445 16.2755C21.5844 16.2755 21.5668 16.2902 21.5658 16.352C21.5575 16.855 21.8352 17.1872 22.3296 17.272C22.6951 17.336 23.0506 17.2806 23.4055 17.2032C23.5829 17.1635 23.7576 17.1122 23.9284 17.0496ZM22.6228 15.6224H23.3396C23.5584 15.6224 23.5584 15.6224 23.5658 15.4035C23.5808 14.9603 23.3098 14.6714 22.8692 14.6467C22.3421 14.617 21.8452 14.9987 21.7172 15.5651C21.7066 15.6122 21.7172 15.6237 21.7652 15.6234C22.0503 15.6211 22.3348 15.6224 22.6228 15.6224Z" fill="#114185"/>
<path d="M25.7687 18.049C25.2988 18.0458 24.8324 17.9681 24.387 17.8186C24.3425 17.8032 24.3306 17.7904 24.3466 17.7421C24.4198 17.5204 24.4899 17.2977 24.5569 17.0739C24.5735 17.0189 24.593 17.0233 24.6372 17.0445C25.0651 17.2538 25.5483 17.3219 26.0174 17.239C26.1274 17.2223 26.2319 17.1795 26.322 17.1142C26.3637 17.0853 26.3984 17.0474 26.4236 17.0033C26.4487 16.9592 26.4636 16.9101 26.4672 16.8594C26.4709 16.8088 26.4631 16.758 26.4445 16.7108C26.4259 16.6636 26.397 16.6211 26.3598 16.5865C26.2784 16.5112 26.1871 16.4475 26.0884 16.3971C25.8436 16.2601 25.5946 16.1318 25.362 15.9731C24.737 15.5453 24.8132 14.6547 25.4286 14.264C25.7012 14.0908 25.9998 14.0041 26.3169 13.9712C26.8455 13.9164 27.3566 14.007 27.8603 14.1587C27.9064 14.1724 27.9182 14.1849 27.9006 14.2339C27.8248 14.4441 27.7515 14.6556 27.6827 14.8684C27.6644 14.9244 27.6427 14.9203 27.5995 14.9004C27.2844 14.7518 26.9395 14.6773 26.5911 14.6828C26.4222 14.687 26.2574 14.7148 26.1143 14.8147C26.0535 14.8535 26.0071 14.9111 25.9823 14.9788C25.9574 15.0465 25.9555 15.1205 25.9767 15.1894C26.0043 15.2667 26.0563 15.3329 26.1249 15.3779C26.2731 15.4892 26.4427 15.5645 26.6049 15.6534C26.8034 15.7571 26.9929 15.8772 27.1713 16.0125C27.6987 16.431 27.6452 17.2285 27.1393 17.6336C26.8129 17.8944 26.4308 17.9987 26.0244 18.0358C25.9223 18.0448 25.8209 18.0464 25.7687 18.049Z" fill="#114185"/>
<path d="M29.2225 18.0482C28.7589 18.0438 28.2988 17.9668 27.859 17.8201C27.8081 17.8031 27.795 17.7881 27.8139 17.7343C27.8862 17.5173 27.9547 17.2991 28.0212 17.0802C28.0372 17.0271 28.0532 17.0194 28.1051 17.0444C28.5311 17.2517 29.0116 17.32 29.4785 17.2396C29.5786 17.2239 29.6745 17.1882 29.7604 17.1346C29.9726 16.9993 29.9985 16.7506 29.8193 16.5765C29.7442 16.509 29.6606 16.4515 29.5707 16.4053C29.3147 16.2601 29.0488 16.1301 28.8078 15.9573C28.252 15.5557 28.3211 14.829 28.6609 14.4642C28.89 14.2188 29.1793 14.0869 29.5003 14.0162C29.9262 13.9202 30.3518 13.9432 30.7771 14.022C30.9563 14.054 31.1317 14.1026 31.307 14.15C31.3653 14.1663 31.3864 14.1836 31.3617 14.2501C31.2878 14.4508 31.2206 14.6537 31.1553 14.8581C31.1371 14.9141 31.1189 14.9221 31.0638 14.8981C30.753 14.7522 30.4133 14.6779 30.0699 14.6808C29.9099 14.6837 29.7553 14.7074 29.6158 14.7913C29.4836 14.8703 29.4168 14.9852 29.4366 15.1433C29.4491 15.2437 29.5096 15.3138 29.5857 15.3714C29.7457 15.4927 29.9297 15.5727 30.1038 15.6687C30.3022 15.7785 30.498 15.8927 30.6712 16.0402C31.1563 16.4562 31.1016 17.2274 30.6148 17.6242C30.3534 17.8377 30.05 17.9484 29.7227 18.0057C29.5573 18.0325 29.3901 18.0468 29.2225 18.0482Z" fill="#114185"/>
<path d="M16.5437 17.106C16.5274 17.202 16.4861 17.2881 16.4557 17.3787C16.3978 17.5512 16.336 17.722 16.2788 17.8948C16.2746 17.9121 16.265 17.9276 16.2514 17.9391C16.2378 17.9506 16.221 17.9575 16.2032 17.9588C15.8193 18.0228 15.4311 18.0635 15.041 18.034C14.4589 17.9902 13.9597 17.778 13.6167 17.282C13.3748 16.9326 13.2894 16.5355 13.3108 16.1172C13.3466 15.4196 13.6423 14.8487 14.1873 14.4116C14.4996 14.1614 14.8669 14.0385 15.2583 13.9873C15.7427 13.9186 16.236 13.9481 16.7088 14.074C16.7991 14.0986 16.8861 14.1332 16.9748 14.162C17.0068 14.1722 17.0151 14.186 17.0032 14.2209C16.9277 14.4417 16.8528 14.6631 16.7821 14.8855C16.7664 14.9345 16.7444 14.9246 16.7127 14.9121C16.4867 14.8194 16.2475 14.7634 16.0039 14.746C15.4769 14.7162 15.0186 14.8612 14.6897 15.2999C14.3815 15.7111 14.3338 16.394 14.6637 16.8068C14.8689 17.0628 15.1396 17.1985 15.4609 17.236C15.8074 17.2763 16.1424 17.2094 16.4733 17.1144C16.4944 17.1083 16.5159 17.1041 16.5373 17.099L16.5437 17.106Z" fill="#114185"/>
<path d="M20.1917 17.1018C20.1181 17.3136 20.0336 17.5232 19.9731 17.7395C19.9293 17.8973 19.8554 17.9722 19.6832 17.9895C19.2032 18.0375 18.7232 18.0912 18.2432 17.9642C17.4883 17.7636 16.9952 17.1613 16.9543 16.3786C16.9095 15.528 17.2352 14.8483 17.9203 14.3456C18.2083 14.1347 18.5443 14.0349 18.8951 13.9891C19.3794 13.9207 19.8725 13.9501 20.3453 14.0755C20.433 14.0995 20.5171 14.1354 20.6045 14.1606C20.6503 14.1741 20.6515 14.1949 20.6365 14.2349C20.5632 14.449 20.4906 14.663 20.4224 14.8787C20.4061 14.9302 20.3866 14.9283 20.3447 14.9123C20.0093 14.7843 19.6663 14.7149 19.3043 14.7523C18.6896 14.8182 18.2218 15.2246 18.1037 15.8227C18.0186 16.2544 18.0967 16.6493 18.4407 16.9549C18.7149 17.1981 19.0487 17.2659 19.4042 17.2451C19.655 17.2286 19.9028 17.1813 20.1421 17.1043C20.1565 17.1018 20.1693 17.0899 20.1917 17.1018Z" fill="#114185"/>
<path d="M8.00113 16.2206L4.0149 12.2344V12.8462L7.3893 16.2206L7.39058 16.2219L4.4677 19.1448L4.46418 19.1413L1.54323 16.2206L1.54067 16.2181L2.97459 14.7841H2.35219L0.916992 16.2194L0.918272 16.2206L4.4629 19.7653L4.46418 19.764L8.00433 16.2238L8.00113 16.2206Z" fill="#FE6309"/>
<path d="M4.01296 13.2676V13.8794L6.35568 16.2221L4.46833 18.1095L2.57936 16.2209L2.5768 16.2183L4.01073 14.7844H3.38832L1.95312 16.2196L1.9544 16.2209L4.15568 18.4221L4.46352 18.73L4.77648 18.4173L6.96944 16.2241L4.01296 13.2676Z" fill="#FE6309"/>
<path d="M5.93703 16.2196L4.76807 15.0493L4.45703 14.7383L4.15111 15.0442L2.97607 16.2183L4.15175 17.394L4.45959 17.7018L4.77191 17.3892L5.94023 16.2228L5.93703 16.2196ZM4.46503 17.0836L3.60103 16.2196L3.59847 16.217L4.46023 15.3552L5.32423 16.2192L4.46503 17.0836Z" fill="#FE6309"/>
</svg>
