<svg width="28" height="28" viewBox="0 0 28 28" fill="none" xmlns="http://www.w3.org/2000/svg">
<path d="M27.4966 0.503906H0.476562V27.5239H27.4966V0.503906Z" fill="#162D4C"/>
<path d="M12.2793 4.54888V4.53516H20.4273V4.54944L12.2793 4.54888Z" fill="#E4B935"/>
<path d="M12.2785 4.54883H20.4265C20.3649 4.84507 20.3044 5.14159 20.2414 5.43755C20.0003 6.57005 19.7583 7.70219 19.5157 8.83395C19.4177 9.29399 19.3197 9.75431 19.2206 10.2138C19.208 10.2698 19.2136 10.2897 19.2766 10.2905C19.5006 10.2939 19.7246 10.2905 19.9486 10.2818C20.0581 10.2753 20.1681 10.2825 20.2759 10.3031C20.4719 10.3445 20.5265 10.4859 20.4092 10.6503C20.3436 10.7358 20.2583 10.8042 20.1605 10.8497C19.9396 10.9636 19.7005 11.0123 19.4572 11.044C19.3373 11.0624 19.2161 11.0717 19.0948 11.072C19.0478 11.072 19.0358 11.0938 19.0279 11.1316C18.9532 11.4863 18.8779 11.8417 18.802 12.1979L18.1106 15.4576C18.0966 15.5237 18.0826 15.5895 18.0695 15.6561C18.0628 15.6937 18.0493 15.7163 18.0065 15.7085C17.9948 15.7074 17.9831 15.7074 17.9715 15.7085H9.99903C9.90271 15.7085 9.90299 15.7085 9.92371 15.6099C10.3228 13.7306 10.7217 11.8512 11.1204 9.97187C11.2095 9.55262 11.2988 9.13355 11.3884 8.71467C11.3962 8.69043 11.3946 8.66415 11.3839 8.64103C11.2649 8.40555 11.2271 8.14991 11.2022 7.89175C11.1386 7.23543 11.2912 6.60851 11.4702 5.98635C11.522 5.80715 11.7168 5.69683 11.9294 5.72091C12.0075 5.72959 12.0299 5.70831 12.0444 5.63439C12.1153 5.28047 12.1928 4.92795 12.2684 4.57487C12.271 4.5659 12.2744 4.55719 12.2785 4.54883ZM15.0505 10.3448C15.0714 10.3426 15.0924 10.3426 15.1132 10.3448C15.3692 10.4031 15.5002 10.2519 15.6038 10.0545C15.6156 10.0318 15.6276 10.0088 15.6377 9.98559C15.7096 9.82179 15.7094 9.82151 15.5769 9.70559C15.5682 9.69739 15.5588 9.68989 15.5489 9.68319C15.491 9.64791 15.4912 9.61011 15.5268 9.55243C15.6369 9.37323 15.7979 9.23087 15.9893 9.14346C16.1806 9.05605 16.3936 9.02755 16.6012 9.06159C16.6722 9.0712 16.7391 9.10028 16.7946 9.14559C16.9766 9.29147 17.1648 9.42895 17.3569 9.56167C17.5336 9.68711 17.718 9.8013 17.909 9.90355C17.9799 9.94051 17.9838 9.93883 17.9774 9.86267C17.965 9.71875 17.9508 9.57492 17.9345 9.43119C17.8984 9.10807 17.8007 8.81043 17.594 8.55087C17.4459 8.36495 17.3051 8.17315 17.1539 7.98947C17.1392 7.97365 17.1283 7.95469 17.122 7.93401C17.1157 7.91334 17.1143 7.89151 17.1178 7.87019C17.1514 7.60531 17.1519 7.60363 16.9867 7.39419C16.6227 6.93275 16.1904 6.53739 15.7486 6.15267C15.7225 6.13294 15.6922 6.1197 15.6601 6.11403C15.3546 6.03887 15.0421 5.99599 14.7277 5.98607C14.5451 5.97767 14.376 5.99783 14.2262 6.10983C14.1038 6.20139 13.9742 6.21651 13.8205 6.19103C13.3243 6.10843 12.8256 6.04067 12.3275 5.97011C12.1825 5.94967 12.0388 5.91411 11.8907 5.92139C11.7633 5.92727 11.6925 5.97151 11.6603 6.07651C11.5015 6.59507 11.3803 7.12119 11.3979 7.66859C11.4071 8.17376 11.5744 8.66336 11.8762 9.06859C12.2122 9.52163 12.6669 9.81227 13.1868 10.0091C13.7863 10.2353 14.413 10.3163 15.0491 10.3437L15.0505 10.3448ZM14.9945 13.7813C14.9651 13.8006 14.9458 13.8135 14.9262 13.8258C14.6834 13.9781 14.441 14.131 14.1968 14.2811C14.1475 14.3113 14.1453 14.327 14.1912 14.3651C14.5832 14.6885 14.9735 15.0144 15.3647 15.3392C15.3745 15.3476 15.3834 15.3619 15.4042 15.3521C15.4084 15.2798 15.4168 15.2056 15.4156 15.1314C15.4155 15.0477 15.4331 14.9648 15.4674 14.8884C15.5764 14.6285 15.6805 14.3667 15.7875 14.1061C15.8012 14.0741 15.8074 14.0394 15.8057 14.0047C15.7962 13.774 15.7872 13.5433 15.7802 13.3125C15.779 13.2708 15.7663 13.2302 15.7435 13.1952C15.496 12.7948 15.2502 12.3936 15.0018 11.9935C14.9908 11.9776 14.9836 11.9593 14.9809 11.9402C14.9782 11.921 14.98 11.9015 14.9861 11.8831C15.0276 11.7401 15.0651 11.5959 15.1062 11.4525C15.1218 11.3964 15.1265 11.3379 15.1202 11.28C15.1057 11.1221 15.0922 10.9642 15.0813 10.806C15.0782 10.7533 15.0634 10.736 15.0077 10.7357C14.6368 10.736 14.2669 10.6993 13.9034 10.6262C12.9567 10.4302 12.1937 9.95647 11.6494 9.14811C11.6384 9.13215 11.6331 9.10919 11.604 9.10275C11.6009 9.11591 11.5976 9.12879 11.5948 9.14167C11.3532 10.2874 11.1118 11.4334 10.8704 12.5795C10.8402 12.7226 10.8402 12.7243 10.9841 12.7394C11.077 12.7492 11.1655 12.7789 11.2641 12.743C11.7415 12.5714 12.222 12.4084 12.7008 12.239C12.7245 12.2281 12.7508 12.224 12.7768 12.2273C12.8027 12.2306 12.8272 12.241 12.8475 12.2575C13.4831 12.7111 14.12 13.163 14.7582 13.6133L14.9945 13.7813ZM12.7562 12.5053C12.7562 12.848 12.7562 13.186 12.7562 13.5242C12.7568 13.5819 12.7455 13.6391 12.7229 13.6922C12.5381 14.1321 12.3555 14.5731 12.1702 15.013C12.1596 15.0334 12.1546 15.0561 12.1554 15.079C12.1563 15.1019 12.1631 15.1242 12.1752 15.1437C12.2144 15.2126 12.2491 15.2837 12.2813 15.3563C12.2872 15.3746 12.2993 15.3903 12.3155 15.4008C12.3316 15.4114 12.3509 15.416 12.3701 15.4139C12.8158 15.4114 13.2613 15.4139 13.7068 15.412C13.7261 15.412 13.7482 15.4209 13.769 15.3983C13.7281 15.3143 13.6886 15.2272 13.6444 15.1432C13.6217 15.1028 13.6149 15.0553 13.6253 15.0102C13.7345 14.4765 13.8409 13.942 13.9518 13.4086C13.963 13.3557 13.9518 13.3293 13.9098 13.2999C13.5443 13.0455 13.1795 12.7902 12.8153 12.5339C12.7992 12.5168 12.7773 12.5062 12.754 12.5042L12.7562 12.5053ZM18.9204 10.8942C18.9716 10.8942 19.0229 10.8959 19.0741 10.8942C19.3802 10.8819 19.6823 10.8441 19.9735 10.7433C20.0631 10.7165 20.1457 10.6703 20.2154 10.608C20.2484 10.5764 20.2784 10.5391 20.2591 10.4913C20.242 10.4487 20.1958 10.4456 20.1572 10.4453C20.0639 10.4453 19.9701 10.4428 19.8772 10.4512C19.4839 10.4888 19.0871 10.4593 18.7037 10.3641C18.0216 10.1947 17.4137 9.87303 16.8515 9.45975C16.7785 9.40276 16.6914 9.36683 16.5995 9.35587C16.3371 9.32787 16.1092 9.38863 15.9395 9.60591C15.9082 9.64595 15.9073 9.67143 15.9485 9.70783C16.1649 9.89964 16.3982 10.0716 16.6454 10.2216C17.3426 10.6467 18.0944 10.8936 18.9182 10.8931L18.9204 10.8942ZM16.8333 10.5912C16.8406 10.6399 16.8473 10.6752 16.8509 10.713C16.8624 10.8334 16.9019 10.9505 16.8898 11.0731C16.8529 11.4491 16.7728 11.8187 16.7235 12.1931C16.6854 12.4846 16.6465 12.7763 16.6622 13.0709C16.6748 13.3089 16.7521 13.5234 16.954 13.6648C17.1444 13.7981 17.3535 13.8387 17.5733 13.7253C17.5904 13.7181 17.6048 13.7056 17.6143 13.6897C17.6239 13.6738 17.6282 13.6553 17.6265 13.6368C17.6256 13.5576 17.6179 13.4786 17.6033 13.4007C17.5935 13.3515 17.5775 13.3386 17.5243 13.3481C17.3266 13.3837 17.1908 13.2414 17.2295 13.0451C17.2634 12.8727 17.332 12.7119 17.3975 12.5504C17.5568 12.1626 17.7461 11.7879 17.9116 11.4024C17.9538 11.2938 17.9798 11.1795 17.9886 11.0633C17.993 11.0252 17.9886 11.0056 17.941 10.9995C17.8626 10.988 17.785 10.9719 17.7086 10.9513C17.402 10.8709 17.1077 10.7498 16.8333 10.5912Z" fill="#DFAC0F"/>
<path d="M15.1785 18.9442C15.2606 18.9574 15.341 18.9792 15.4185 19.0092C15.6728 19.1153 15.8083 19.3121 15.8206 19.5807C15.8436 20.0765 15.6047 20.4408 15.2105 20.7138C14.9571 20.8883 14.6563 20.981 14.3486 20.9793C13.9406 20.9823 13.5324 20.9793 13.1241 20.9793C13.0149 20.9793 12.9903 20.9485 13.0121 20.8426C13.2591 19.6459 13.5062 18.4492 13.7533 17.2525C13.7785 17.1295 13.8093 17.1055 13.9325 17.1055C14.196 17.1055 14.4595 17.1055 14.7233 17.1055C14.9671 17.1055 15.2077 17.1335 15.4333 17.2329C15.6781 17.3407 15.8618 17.5098 15.8881 17.7887C15.9256 18.1865 15.7915 18.5211 15.4709 18.772C15.3796 18.8393 15.2816 18.897 15.1785 18.9442ZM14.0986 20.5271V20.5229C14.1848 20.5229 14.271 20.5265 14.357 20.5229C14.7711 20.503 15.0427 20.2641 15.1175 19.857C15.178 19.5261 15.0173 19.297 14.6871 19.2472C14.4811 19.2167 14.273 19.2399 14.0661 19.2326C14.0319 19.2326 14.03 19.2517 14.0252 19.2752C14.0022 19.3891 13.9784 19.5031 13.9546 19.6168C13.8964 19.8968 13.8393 20.1768 13.7791 20.4568C13.7668 20.5128 13.7774 20.5338 13.8401 20.5296C13.9258 20.5229 14.0123 20.5271 14.0986 20.5271ZM14.331 18.7796C14.4194 18.7849 14.5081 18.7798 14.5953 18.7645C14.917 18.6908 15.1626 18.4044 15.1945 18.0645C15.22 17.7943 15.101 17.6335 14.8364 17.5792C14.7191 17.5551 14.6001 17.5619 14.4819 17.5543C14.4007 17.549 14.3733 17.5736 14.3579 17.6545C14.2904 18.0107 14.2156 18.3655 14.1394 18.7202C14.1274 18.7762 14.1442 18.7827 14.1912 18.7796C14.2383 18.7765 14.2842 18.7796 14.331 18.7796Z" fill="white"/>
<path d="M18.438 18.5308C18.4747 18.4398 18.5086 18.3628 18.5366 18.2852C18.5445 18.2545 18.5631 18.2277 18.5892 18.2097C18.6152 18.1917 18.6468 18.1836 18.6783 18.1869C18.7973 18.1894 18.9163 18.1869 19.0353 18.1869C19.1235 18.1869 19.1492 18.2197 19.1324 18.304C19.0018 18.9496 18.8711 19.5954 18.7404 20.2413C18.7272 20.2934 18.7226 20.3473 18.727 20.4009C18.739 20.4905 18.769 20.5221 18.8586 20.5339C18.9146 20.5412 18.9381 20.572 18.9286 20.6246C18.9126 20.7139 18.8942 20.803 18.8726 20.8912C18.868 20.9181 18.8537 20.9424 18.8324 20.9595C18.8111 20.9767 18.7843 20.9854 18.757 20.9841C18.6449 20.9893 18.5327 20.9784 18.4238 20.9517C18.2516 20.9063 18.1575 20.7951 18.1356 20.6157C18.1331 20.5952 18.1323 20.5745 18.1303 20.5504C18.1001 20.5577 18.0894 20.5829 18.0743 20.6003C17.7271 20.9794 17.297 21.1138 16.7958 21.0267C16.4582 20.9679 16.2482 20.7571 16.1725 20.4202C16.1079 20.1332 16.1426 19.8498 16.2005 19.5673C16.2689 19.2313 16.384 18.9146 16.5926 18.6352C16.9529 18.1483 17.5331 18.045 17.9744 18.1556C18.1785 18.2085 18.3291 18.3322 18.438 18.5308ZM16.786 20.0834C16.7861 20.1465 16.7915 20.2096 16.8023 20.2718C16.8328 20.4577 16.9353 20.5608 17.1212 20.5919C17.4852 20.6529 17.8335 20.4947 18.0147 20.1682C18.1943 19.8394 18.282 19.4683 18.2684 19.0938C18.2619 18.829 18.1362 18.6646 17.9133 18.5994C17.7825 18.5635 17.6452 18.5582 17.5121 18.584C17.2763 18.6237 17.1388 18.7816 17.0425 18.9827C16.8756 19.3304 16.8163 19.7037 16.786 20.0834Z" fill="white"/>
<path d="M23.838 17.1309C23.7605 17.5079 23.6829 17.8842 23.605 18.2598C23.5277 18.6359 23.4507 19.0119 23.3729 19.3905C23.4093 19.3882 23.4211 19.3625 23.4381 19.3457C23.7879 18.9993 24.1381 18.6535 24.4853 18.3046C24.5207 18.266 24.5641 18.2357 24.6125 18.2159C24.6609 18.196 24.7131 18.187 24.7653 18.1895C24.8933 18.1943 25.0218 18.1895 25.1501 18.1921C25.1781 18.1921 25.2133 18.1845 25.2257 18.2125C25.238 18.2405 25.2038 18.2601 25.1845 18.278C24.7552 18.6822 24.3245 19.0855 23.8926 19.4882C23.8472 19.5305 23.8472 19.5568 23.8794 19.6066C24.1471 20.0213 24.4114 20.4382 24.6777 20.8543C24.6903 20.8739 24.7029 20.8938 24.7138 20.9139C24.7368 20.9559 24.7242 20.9853 24.6766 20.9856C24.4736 20.9856 24.2706 20.9876 24.0679 20.9831C24.0071 20.9831 23.9721 20.9335 23.9424 20.8829C23.741 20.5368 23.5388 20.1914 23.3359 19.8469C23.3236 19.8259 23.3177 19.799 23.2867 19.7844C23.229 20.0644 23.1721 20.3408 23.1147 20.6177C23.0968 20.7045 23.0797 20.7913 23.0601 20.8775C23.0405 20.9638 23.0078 20.987 22.9241 20.9876C22.7936 20.9876 22.6628 20.9876 22.5321 20.9876C22.4156 20.9876 22.3937 20.9618 22.417 20.8501C22.4887 20.5037 22.5614 20.1574 22.6331 19.8107C22.7903 19.0546 22.9463 18.2995 23.101 17.5455C23.1034 17.5263 23.1108 17.5081 23.1224 17.4926C23.134 17.4771 23.1494 17.4648 23.1671 17.4571C23.3673 17.3579 23.5658 17.2555 23.7652 17.1549C23.7864 17.1396 23.8118 17.1312 23.838 17.1309Z" fill="white"/>
<path d="M20.388 18.6368C20.4851 18.5068 20.5971 18.3887 20.7217 18.2848C21.016 18.044 21.6124 18.0815 21.889 18.3344C22.113 18.5396 22.1738 18.8025 22.1254 19.0876C22.0624 19.4569 21.9787 19.8226 21.9056 20.1902C21.8896 20.27 21.8745 20.3509 21.8966 20.4327C21.912 20.4901 21.9367 20.5363 22.0086 20.5357C22.0691 20.5357 22.0926 20.5727 22.0825 20.6284C22.0666 20.7174 22.0487 20.8068 22.0279 20.895C22.0232 20.9208 22.0092 20.9441 21.9886 20.9604C21.968 20.9768 21.9422 20.9852 21.9159 20.984C21.804 20.9901 21.6917 20.9787 21.5833 20.9501C21.3313 20.8793 21.207 20.6981 21.2193 20.4181C21.2274 20.228 21.2831 20.0466 21.3164 19.8612C21.3618 19.6092 21.4377 19.3628 21.4517 19.1052C21.4549 19.0541 21.4549 19.0029 21.4517 18.9518C21.4321 18.669 21.2557 18.534 20.9782 18.5811C20.8915 18.5951 20.8088 18.6273 20.7355 18.6755C20.6621 18.7238 20.5998 18.787 20.5526 18.8611C20.4277 19.0442 20.3748 19.2531 20.3306 19.4664C20.2341 19.9312 20.1367 20.396 20.0385 20.8608C20.0178 20.9588 19.9845 20.9843 19.8843 20.9846C19.749 20.9846 19.6135 20.9846 19.4783 20.9846C19.3923 20.9846 19.3662 20.9493 19.3825 20.8647C19.5132 20.2261 19.6444 19.5876 19.7762 18.949C19.7907 18.8784 19.8081 18.809 19.7868 18.7351C19.77 18.6791 19.7398 18.6427 19.6748 18.6373C19.5967 18.6309 19.5799 18.6037 19.5956 18.5253C19.6113 18.4469 19.6269 18.3699 19.6432 18.2927C19.6467 18.2632 19.6611 18.2361 19.6835 18.2167C19.7059 18.1973 19.7348 18.187 19.7644 18.1877C19.8788 18.1803 19.9935 18.1915 20.1043 18.2207C20.2889 18.2742 20.3659 18.3685 20.3843 18.5595C20.3843 18.5797 20.3843 18.5998 20.388 18.6368Z" fill="white"/>
<path d="M4.03559 18.7726H4.45839C4.66839 18.7726 4.87839 18.7726 5.08839 18.7726C5.18947 18.7726 5.21383 18.8023 5.19395 18.9014C5.17827 18.979 5.16147 19.0563 5.14411 19.1335C5.12199 19.231 5.08811 19.2579 4.98199 19.2579C4.65999 19.2579 4.33799 19.2579 4.01627 19.2556C3.95495 19.2556 3.92947 19.2674 3.91631 19.3337C3.81887 19.8271 3.71527 20.319 3.61419 20.8118C3.58619 20.9518 3.56379 20.9709 3.41819 20.9709C3.28519 20.9709 3.15219 20.9709 3.01947 20.9709C2.92315 20.9709 2.89823 20.9398 2.91783 20.8452C3.03543 20.2751 3.15331 19.7052 3.27147 19.1355C3.40027 18.513 3.5287 17.8905 3.65675 17.2682C3.68811 17.1159 3.70911 17.0974 3.86647 17.0977L5.68647 17.101C5.81639 17.101 5.83599 17.1248 5.80939 17.2489C5.79371 17.3217 5.77887 17.3947 5.76151 17.4673C5.73995 17.5577 5.70803 17.5829 5.61507 17.5829C5.19507 17.5829 4.77507 17.5829 4.35507 17.5829C4.29907 17.5829 4.27555 17.5933 4.26379 17.6529C4.19099 18.0239 4.11315 18.3952 4.03559 18.7726Z" fill="white"/>
<path d="M9.54177 21.0419C9.32016 21.0398 9.10033 21.002 8.89077 20.9299C8.81692 20.9069 8.74969 20.8665 8.69477 20.812C8.63877 20.7535 8.63877 20.7 8.68777 20.6373C8.71969 20.5972 8.75525 20.5603 8.78941 20.5216C8.87341 20.4256 8.88741 20.4222 9.01341 20.4656C9.18813 20.5244 9.36397 20.5776 9.54961 20.5869C9.71397 20.5956 9.87554 20.5891 10.0307 20.5258C10.0917 20.5019 10.1459 20.4631 10.1882 20.413C10.2305 20.3629 10.2597 20.303 10.2731 20.2388C10.2992 20.1378 10.2698 20.068 10.181 20.012C10.0865 19.9566 9.98552 19.9131 9.8803 19.8827C9.76102 19.844 9.64201 19.8023 9.52077 19.7707C9.08677 19.655 8.98233 19.3277 9.06717 18.955C9.16825 18.5112 9.51938 18.199 9.98614 18.1324C10.3185 18.0856 10.6467 18.1044 10.9597 18.2424C11.0226 18.2673 11.0807 18.3029 11.1313 18.3477C11.1834 18.3975 11.1873 18.439 11.1425 18.4941C11.0865 18.5608 11.0283 18.6235 10.9726 18.6901C10.9446 18.7229 10.9141 18.7207 10.8782 18.7103C10.7419 18.6714 10.6117 18.6117 10.4714 18.5863C10.3115 18.5583 10.1513 18.5485 9.99341 18.5938C9.92532 18.6118 9.86299 18.647 9.81244 18.696C9.76188 18.7451 9.72479 18.8063 9.70473 18.8738C9.65433 19.0236 9.7095 19.1306 9.86014 19.1779C10.0466 19.2364 10.2339 19.2919 10.4201 19.3487C10.5143 19.3749 10.6048 19.4125 10.6898 19.4607C10.8471 19.5545 10.925 19.6954 10.9342 19.8754C10.9591 20.3587 10.699 20.742 10.2197 20.9302C10.0139 21.0108 9.79937 21.0427 9.54177 21.0419Z" fill="white"/>
<path d="M11.8817 18.606C11.7963 18.606 11.7101 18.606 11.6241 18.606C11.5244 18.606 11.5023 18.58 11.5213 18.4845C11.5351 18.4159 11.5493 18.3476 11.5659 18.2798C11.5705 18.2518 11.5854 18.2264 11.6076 18.2087C11.6299 18.191 11.6579 18.1821 11.6863 18.1838C11.7633 18.1838 11.8405 18.1793 11.9173 18.1838C11.9688 18.1874 11.9845 18.1678 11.9926 18.1202C12.0139 17.9942 12.0413 17.8682 12.0654 17.7431C12.0699 17.7201 12.0718 17.6991 12.0973 17.6871C12.3277 17.5711 12.5579 17.4541 12.7948 17.334C12.8009 17.4093 12.7766 17.4723 12.7645 17.5361C12.7279 17.7321 12.6878 17.9245 12.6464 18.1183C12.6355 18.1689 12.643 18.1883 12.701 18.1852C12.7962 18.1804 12.8922 18.1829 12.9877 18.1852C13.065 18.1866 13.0891 18.2146 13.0753 18.291C13.0616 18.3675 13.0451 18.4369 13.0275 18.5091C13.0098 18.5814 12.965 18.6091 12.8947 18.6085C12.7945 18.6085 12.694 18.6085 12.5937 18.6085C12.5579 18.6085 12.5397 18.6167 12.5319 18.6547C12.4279 19.1755 12.323 19.696 12.2171 20.216C12.2043 20.2756 12.2073 20.3376 12.2258 20.3958C12.24 20.4356 12.2664 20.47 12.3013 20.4939C12.3362 20.5178 12.3778 20.53 12.4201 20.5288C12.6052 20.5335 12.6069 20.5352 12.5716 20.7175C12.5607 20.7735 12.5484 20.8314 12.5352 20.888C12.5314 20.9139 12.5183 20.9375 12.4983 20.9544C12.4784 20.9713 12.453 20.9805 12.4269 20.9801C12.2779 20.9838 12.1275 20.9936 11.9789 20.9672C11.6877 20.9152 11.5435 20.7432 11.5384 20.4442C11.5351 20.2482 11.5885 20.0614 11.6269 19.8722C11.7109 19.4569 11.7974 19.042 11.8825 18.6267C11.8832 18.6198 11.8829 18.6129 11.8817 18.606Z" fill="white"/>
<path d="M8.01765 18.4963C8.04477 18.4615 8.07365 18.4281 8.10417 18.3963C8.31333 18.1981 8.56897 18.1317 8.84954 18.137C8.90554 18.137 8.9299 18.1549 8.91478 18.2179C8.88454 18.3423 8.8613 18.4683 8.83442 18.5934C8.81062 18.7054 8.77394 18.7239 8.66221 18.7102C8.37577 18.6752 8.06245 18.7737 7.96921 19.1862C7.84489 19.7378 7.72589 20.2908 7.60521 20.8432C7.57721 20.9751 7.55257 20.9953 7.41593 20.995C7.29244 20.995 7.16868 20.995 7.0452 20.995C6.9486 20.995 6.9248 20.9639 6.94524 20.8687C7.08282 20.2292 7.22058 19.5898 7.35852 18.9507C7.37332 18.8943 7.38066 18.8362 7.38036 18.7779C7.37588 18.685 7.34228 18.6463 7.24904 18.6312C7.19304 18.6223 7.16672 18.5909 7.17764 18.5338C7.1936 18.4498 7.20956 18.3658 7.2286 18.2818C7.23252 18.2535 7.24669 18.2277 7.26843 18.2092C7.29017 18.1907 7.31796 18.1809 7.34648 18.1815C7.49097 18.1793 7.63573 18.1815 7.77601 18.2244C7.90649 18.2641 7.98657 18.3481 7.99777 18.4898L8.01765 18.4963Z" fill="white"/>
<path d="M5.56806 20.5056C5.57394 20.3059 5.63162 20.1153 5.67306 19.9221C5.78702 19.3901 5.90406 18.8581 6.02026 18.3261C6.04154 18.2283 6.07626 18.2017 6.17426 18.2012C6.30493 18.2012 6.43559 18.2012 6.56626 18.2012C6.66454 18.2012 6.68834 18.2292 6.6679 18.3241C6.53033 18.9614 6.39229 19.5985 6.25378 20.2354C6.23482 20.3125 6.22793 20.3922 6.23334 20.4714C6.24174 20.5607 6.27338 20.5946 6.35962 20.6075C6.41114 20.6153 6.43494 20.6459 6.42626 20.6949C6.41002 20.7867 6.39154 20.878 6.37026 20.9684C6.36495 20.9926 6.35141 21.0142 6.33196 21.0295C6.3125 21.0448 6.28834 21.0529 6.26358 21.0524C6.12358 21.0569 5.98358 21.0457 5.85198 20.99C5.65682 20.9088 5.56302 20.7447 5.56806 20.5056Z" fill="white"/>
<path d="M15.3488 22.6939C15.5851 22.828 15.6058 23.0971 15.4048 23.2911C15.2581 23.4339 14.9378 23.4798 14.7557 23.3846C14.7133 23.3642 14.6776 23.3321 14.6528 23.2921C14.628 23.252 14.6151 23.2057 14.6157 23.1587C14.6102 23.0778 14.6276 22.9971 14.6657 22.9257C14.7039 22.8542 14.7614 22.795 14.8316 22.7546C14.8666 22.7328 14.905 22.7163 14.9414 22.6986C14.9414 22.6933 14.9414 22.6869 14.9391 22.6857C14.7401 22.5827 14.7843 22.3937 14.8885 22.2456C14.9411 22.1761 15.0166 22.1274 15.1016 22.1081C15.1966 22.083 15.296 22.0792 15.3928 22.0969C15.4857 22.1123 15.5708 22.1509 15.5997 22.2506C15.6173 22.3037 15.621 22.3604 15.6104 22.4154C15.5999 22.4703 15.5755 22.5217 15.5395 22.5645C15.4899 22.6227 15.4244 22.6577 15.3488 22.6939ZM14.8543 23.0887C14.8522 23.1286 14.865 23.1678 14.8902 23.1989C14.9154 23.2299 14.9512 23.2505 14.9907 23.2567C15.1758 23.2964 15.3547 23.1071 15.3085 22.9207C15.301 22.8838 15.2811 22.8506 15.252 22.8268C15.2229 22.803 15.1865 22.7899 15.1489 22.7899C14.9912 22.7832 14.8537 22.9221 14.8543 23.0887ZM15.2416 22.2576C15.2148 22.2574 15.1883 22.2625 15.1635 22.2726C15.1387 22.2827 15.1161 22.2975 15.0971 22.3163C15.0781 22.3351 15.0629 22.3575 15.0525 22.3822C15.0422 22.4068 15.0367 22.4333 15.0366 22.46C15.0355 22.4786 15.038 22.4973 15.0442 22.5149C15.0504 22.5324 15.06 22.5486 15.0725 22.5624C15.085 22.5763 15.1001 22.5874 15.117 22.5953C15.1338 22.6032 15.1521 22.6077 15.1707 22.6085C15.2729 22.6101 15.3807 22.4964 15.383 22.387C15.3844 22.3102 15.3272 22.2582 15.2416 22.2576Z" fill="white"/>
<path d="M16.6435 22.3486C16.6377 22.2863 16.6116 22.2276 16.5691 22.1816C16.5267 22.1356 16.4702 22.1048 16.4086 22.0941C16.3209 22.0784 16.2307 22.0854 16.1465 22.1145C15.9051 22.2016 15.8175 22.3982 15.7948 22.6303C15.771 22.88 15.916 23.0088 16.1664 22.9797C16.261 22.9685 16.3262 22.9156 16.3934 22.8537C16.3869 22.9352 16.3611 23.014 16.3181 23.0836C16.2456 23.2146 16.1372 23.2813 15.9838 23.2555C15.933 23.2497 15.8828 23.239 15.834 23.2236C15.75 23.192 15.748 23.2662 15.7242 23.3045C15.6946 23.3524 15.7464 23.3628 15.7738 23.3762C16.0054 23.4913 16.2596 23.4417 16.4178 23.2317C16.6161 22.9722 16.6855 22.6712 16.6435 22.3486ZM16.443 22.4726C16.4328 22.5514 16.4074 22.6275 16.3682 22.6966C16.324 22.7692 16.2632 22.8128 16.1739 22.8086C16.0619 22.8058 16.0129 22.7557 16.0154 22.6275C16.0206 22.5514 16.0404 22.4771 16.0737 22.4085C16.0946 22.3614 16.1294 22.3217 16.1734 22.2948C16.2386 22.257 16.3106 22.2366 16.378 22.2797C16.4455 22.3228 16.4556 22.397 16.443 22.4726Z" fill="white"/>
<path d="M17.2765 23.1003H16.7809C16.7123 23.1003 16.6991 23.0787 16.7305 23.0163C16.7429 22.9941 16.7582 22.9736 16.7758 22.9552C17.0024 22.6954 17.2325 22.4386 17.4546 22.1752C17.5198 22.0976 17.5946 22.1057 17.6755 22.1099C17.7211 22.1122 17.7035 22.15 17.6982 22.1746C17.6586 22.3684 17.6187 22.5619 17.5783 22.7553C17.5715 22.799 17.5621 22.8423 17.5503 22.885C17.5344 22.9342 17.5562 22.937 17.5965 22.9393C17.6282 22.941 17.6845 22.9113 17.6831 22.9813C17.6811 23.0765 17.6604 23.1067 17.5893 23.0992C17.5181 23.0916 17.4932 23.1199 17.4887 23.1832C17.4855 23.2062 17.4809 23.229 17.475 23.2515C17.44 23.4228 17.44 23.4214 17.265 23.4119C17.2216 23.4094 17.2138 23.392 17.2216 23.3559C17.2398 23.2739 17.2569 23.1918 17.2765 23.1003ZM17.4075 22.4608L17.0085 22.9368C17.1099 22.9368 17.1925 22.9368 17.2751 22.9368C17.2802 22.9375 17.2855 22.9371 17.2905 22.9357C17.2955 22.9342 17.3001 22.9318 17.3041 22.9285C17.3081 22.9252 17.3114 22.921 17.3137 22.9164C17.3161 22.9117 17.3174 22.9067 17.3177 22.9015C17.3457 22.7615 17.3745 22.6209 17.4073 22.4605L17.4075 22.4608Z" fill="white"/>
<path d="M9.28816 23.4265C9.18127 23.4263 9.07543 23.4054 8.97652 23.3649C8.95188 23.3542 8.90344 23.3478 8.92556 23.3089C8.94768 23.27 8.9516 23.1944 9.03056 23.2131C9.13868 23.2418 9.25023 23.2556 9.36208 23.254C9.42088 23.2526 9.47849 23.2372 9.53009 23.2089C9.66029 23.1361 9.66505 22.9972 9.53625 22.9214C9.47287 22.8877 9.4074 22.8581 9.34024 22.8329C9.06388 22.7139 9.01264 22.4442 9.23188 22.2353C9.40828 22.0673 9.62081 22.0531 9.84565 22.1107C9.86581 22.1161 9.88541 22.1233 9.90529 22.1301C10.012 22.1667 10.0139 22.1746 9.95569 22.2667C9.95267 22.2735 9.94833 22.2795 9.94294 22.2846C9.93755 22.2897 9.93121 22.2936 9.92429 22.2962C9.91736 22.2988 9.90999 22.3 9.9026 22.2998C9.8952 22.2995 9.88793 22.2978 9.88121 22.2947C9.77191 22.2606 9.65704 22.2481 9.54297 22.2577C9.50428 22.2602 9.46671 22.2717 9.43337 22.2915C9.40002 22.3112 9.37185 22.3386 9.35116 22.3714C9.29516 22.4624 9.31588 22.545 9.41136 22.5918C9.47605 22.6234 9.54437 22.6478 9.61045 22.6758C9.89549 22.7968 9.93581 23.1148 9.69109 23.3058C9.58917 23.3842 9.45449 23.4256 9.28816 23.4265Z" fill="white"/>
<path d="M10.941 22.6105C11.0062 22.5403 11.0608 22.4739 11.1518 22.4537C11.3985 22.3994 11.5687 22.5641 11.5183 22.811C11.4948 22.9272 11.4699 23.0431 11.4475 23.1596C11.4397 23.201 11.4349 23.2383 11.4906 23.2612C11.5343 23.2792 11.4965 23.3226 11.4951 23.3545C11.4957 23.3614 11.4947 23.3684 11.4924 23.375C11.4901 23.3816 11.4865 23.3877 11.4817 23.3928C11.4769 23.3979 11.4712 23.402 11.4648 23.4047C11.4583 23.4075 11.4514 23.4089 11.4444 23.4088C11.2915 23.4262 11.1958 23.3279 11.2227 23.1756C11.2428 23.061 11.2675 22.9474 11.2899 22.8331C11.294 22.8147 11.2965 22.796 11.2974 22.7771C11.2994 22.7108 11.2974 22.6436 11.2271 22.6091C11.1667 22.5792 11.0717 22.6047 11.0174 22.6651C10.9631 22.7256 10.9382 22.8051 10.9214 22.8863C10.8889 23.0412 10.8553 23.1957 10.8248 23.3511C10.8245 23.3597 10.8224 23.3682 10.8186 23.3759C10.8148 23.3836 10.8094 23.3905 10.8028 23.396C10.7962 23.4015 10.7885 23.4056 10.7803 23.4079C10.772 23.4103 10.7633 23.4109 10.7548 23.4096C10.591 23.4136 10.5913 23.415 10.6243 23.2545C10.6607 23.0766 10.6968 22.8988 10.7327 22.7211C10.7413 22.6777 10.7537 22.6318 10.6895 22.6156C10.6615 22.6083 10.6677 22.5817 10.675 22.5632C10.6879 22.531 10.6719 22.4843 10.7212 22.4703C10.7449 22.4628 10.77 22.4606 10.7946 22.4638C10.8193 22.4671 10.8429 22.4757 10.8639 22.489C10.8848 22.5024 10.9026 22.5202 10.9159 22.5412C10.9292 22.5622 10.9378 22.5859 10.941 22.6105Z" fill="white"/>
<path d="M13.0392 23.0148C12.9787 23.0148 12.9177 23.0179 12.8575 23.0148C12.8127 23.012 12.8015 23.031 12.8015 23.0708C12.7956 23.2181 12.8751 23.2962 13.021 23.2783C13.081 23.2707 13.1401 23.2572 13.1974 23.238C13.2419 23.2231 13.2584 23.238 13.2761 23.2758C13.2937 23.3136 13.2859 23.3427 13.2481 23.3617C13.133 23.4201 13.0034 23.4437 12.8751 23.4295C12.6581 23.4082 12.5598 23.2825 12.5803 23.0641C12.5891 22.9454 12.6203 22.8295 12.6724 22.7225C12.7796 22.5089 12.9804 22.4103 13.2106 22.4565C13.3444 22.4845 13.4234 22.5721 13.4301 22.7085C13.4323 22.7504 13.4295 22.7924 13.4217 22.8336C13.3937 22.9686 13.3377 23.0142 13.2002 23.017C13.1467 23.017 13.093 23.017 13.0395 23.017L13.0392 23.0148ZM12.8384 22.8616H13.1372C13.1486 22.863 13.1602 22.8611 13.1707 22.8561C13.1811 22.8512 13.1898 22.8434 13.196 22.8336C13.2262 22.7818 13.212 22.6732 13.168 22.6306C13.124 22.5881 13.0585 22.5847 12.9936 22.6217C12.9026 22.6729 12.8692 22.7645 12.8384 22.8616Z" fill="white"/>
<path d="M6.59085 17.1355C6.66533 17.1355 6.73981 17.1338 6.81485 17.1355C6.88261 17.1375 6.90921 17.1686 6.89633 17.2335C6.86721 17.3795 6.83641 17.5249 6.80393 17.6697C6.78685 17.7445 6.74793 17.775 6.66953 17.7756C6.52953 17.7756 6.38953 17.7756 6.24953 17.7756C6.16217 17.7742 6.13753 17.7409 6.15629 17.6557C6.18429 17.5194 6.21453 17.383 6.24505 17.2472C6.26325 17.166 6.29937 17.1372 6.38085 17.1352C6.45057 17.1352 6.52085 17.1352 6.59029 17.1352L6.59085 17.1355Z" fill="white"/>
<path d="M14.2416 22.3771C14.166 22.4085 14.0982 22.4367 14.0299 22.4639C14.0131 22.4706 13.9888 22.4824 13.9784 22.4757C13.9582 22.4628 13.9742 22.4373 13.9753 22.4171C13.9795 22.3443 14.0168 22.3021 14.0873 22.2755C14.2156 22.2262 14.3393 22.1677 14.4662 22.1136C14.4846 22.1055 14.5051 22.0856 14.5222 22.0974C14.5392 22.1091 14.5247 22.1363 14.5222 22.1553C14.4418 22.5501 14.36 22.9447 14.2805 23.3395C14.2699 23.3924 14.2464 23.4114 14.1912 23.4106C14.0319 23.4084 14.033 23.4106 14.0658 23.2552C14.124 22.9797 14.1806 22.7036 14.2377 22.4278C14.2396 22.4146 14.2394 22.4003 14.2416 22.3771Z" fill="white"/>
<path d="M11.7009 23.0922C11.7037 22.9636 11.7345 22.8371 11.791 22.7215C11.9078 22.4779 12.2191 22.3684 12.4568 22.4883C12.4871 22.5037 12.5434 22.5115 12.5235 22.5672C12.5008 22.6294 12.4456 22.656 12.3913 22.6302C12.1771 22.5294 12.0257 22.6563 11.9683 22.8349C11.9374 22.923 11.9233 23.0161 11.9268 23.1093C11.9341 23.2252 12.0061 23.2868 12.1228 23.2773C12.1782 23.27 12.2325 23.2561 12.2847 23.2359C12.3127 23.2266 12.3379 23.2177 12.3521 23.2566C12.3639 23.2888 12.3866 23.3168 12.3482 23.3496C12.2303 23.4501 11.9263 23.4579 11.805 23.361C11.7165 23.2922 11.6986 23.1958 11.7009 23.0922Z" fill="white"/>
<path d="M10.0415 23.196C10.0673 23.0675 10.0975 22.916 10.1291 22.7623C10.1454 22.6825 10.1644 22.6033 10.1784 22.5232C10.1787 22.5146 10.1807 22.5061 10.1844 22.4983C10.1882 22.4906 10.1935 22.4837 10.2001 22.4781C10.2067 22.4726 10.2144 22.4685 10.2226 22.4661C10.2309 22.4637 10.2396 22.4632 10.2481 22.4644C10.4136 22.4593 10.4128 22.4579 10.3797 22.6175C10.3431 22.7953 10.3067 22.9728 10.2717 23.1509C10.2633 23.194 10.2551 23.2349 10.3153 23.2582C10.3579 23.2744 10.3218 23.3142 10.3204 23.3452C10.319 23.3763 10.3106 23.399 10.275 23.406C10.1493 23.4306 10.0415 23.3458 10.0415 23.196Z" fill="white"/>
<path d="M10.3803 22.0665C10.4083 22.0665 10.4299 22.0665 10.4506 22.0665C10.4713 22.0665 10.4901 22.0755 10.4859 22.099C10.4764 22.1514 10.4646 22.2031 10.4517 22.2547C10.4467 22.2743 10.4288 22.281 10.4092 22.2846C10.244 22.3143 10.2249 22.2911 10.2585 22.129C10.2756 22.041 10.3389 22.0741 10.3803 22.0665Z" fill="white"/>
<path d="M15.0493 10.3446C14.4131 10.3166 13.7865 10.2362 13.1864 10.0086C12.6665 9.8126 12.2118 9.52112 11.8758 9.06808C11.574 8.66286 11.4067 8.17326 11.3975 7.66809C11.381 7.12069 11.5011 6.59457 11.6599 6.07601C11.6921 5.97101 11.7629 5.92678 11.8903 5.9209C12.0384 5.91362 12.1821 5.94889 12.3271 5.96961C12.8252 6.04017 13.3239 6.10793 13.8201 6.19053C13.9735 6.21601 14.1034 6.20089 14.2258 6.10933C14.3756 5.99733 14.5447 5.97717 14.7273 5.98557C15.0419 5.99621 15.3545 6.03985 15.66 6.11577C15.6921 6.12145 15.7225 6.13469 15.7485 6.15441C16.1903 6.53913 16.6218 6.93449 16.9866 7.39593C17.1518 7.60481 17.1513 7.60649 17.1177 7.87193C17.1142 7.89325 17.1156 7.91508 17.1219 7.93575C17.1282 7.95643 17.1391 7.97539 17.1538 7.99121C17.305 8.17489 17.4458 8.36669 17.5939 8.55261C17.8006 8.81217 17.8983 9.1098 17.9344 9.43292C17.9507 9.57647 17.9649 9.7203 17.9773 9.8644C17.9837 9.94056 17.9798 9.94224 17.9089 9.90528C17.7179 9.80303 17.5335 9.68884 17.3568 9.5634C17.1647 9.43068 16.9765 9.2932 16.7945 9.14732C16.739 9.10201 16.6721 9.07294 16.6011 9.06332C16.3935 9.02929 16.1805 9.05779 15.9892 9.14519C15.7978 9.2326 15.6368 9.37497 15.5267 9.55416C15.4911 9.61184 15.4909 9.64964 15.5488 9.68492C15.5587 9.69163 15.5681 9.69912 15.5768 9.70732C15.7093 9.82212 15.7095 9.8224 15.6376 9.98732C15.6275 10.0106 15.6155 10.0335 15.6037 10.0562C15.5001 10.2522 15.3691 10.4048 15.1131 10.3466C15.092 10.3436 15.0706 10.3429 15.0493 10.3446ZM15.728 7.90273L15.3497 7.47825C15.3181 7.44269 15.3007 7.47825 15.2823 7.49337C15.0907 7.66025 14.8996 7.82769 14.7088 7.99569C14.6926 8.00997 14.6685 8.01949 14.6651 8.05029L15.728 7.90273Z" fill="#162D4C"/>
<path d="M14.9933 13.7804L14.7578 13.6124C14.1206 13.161 13.4836 12.7094 12.8471 12.2574C12.8268 12.241 12.8023 12.2305 12.7764 12.2272C12.7505 12.224 12.7241 12.228 12.7004 12.239C12.2216 12.407 11.7411 12.5702 11.2637 12.743C11.1643 12.7788 11.0758 12.7491 10.9837 12.7393C10.8398 12.7242 10.8398 12.7225 10.87 12.5794C11.1108 11.4327 11.3517 10.2864 11.5927 9.14048C11.5955 9.1276 11.5989 9.11472 11.6019 9.10156C11.6299 9.108 11.6364 9.13096 11.6473 9.14692C12.1916 9.95528 12.9546 10.4302 13.9013 10.625C14.2649 10.6981 14.6348 10.7348 15.0056 10.7345C15.0616 10.7345 15.0762 10.7522 15.0793 10.8048C15.0891 10.963 15.1036 11.1209 15.1182 11.2788C15.1245 11.3367 15.1197 11.3952 15.1042 11.4513C15.063 11.5947 15.0255 11.7389 14.9841 11.882C14.9779 11.9003 14.9761 11.9198 14.9789 11.939C14.9816 11.9581 14.9887 11.9764 14.9998 11.9923C15.2481 12.3924 15.494 12.7936 15.7415 13.194C15.7643 13.229 15.777 13.2696 15.7782 13.3114C15.7852 13.5421 15.7941 13.7728 15.8036 14.0035C15.8054 14.0382 15.7991 14.0729 15.7854 14.1049C15.6785 14.3656 15.5743 14.6274 15.4654 14.8872C15.4311 14.9636 15.4135 15.0465 15.4136 15.1302C15.4136 15.2044 15.4063 15.2786 15.4021 15.3509C15.3814 15.3607 15.3724 15.3464 15.3626 15.338C14.9706 15.0132 14.5814 14.6873 14.1892 14.3639C14.1432 14.3261 14.1455 14.3104 14.1948 14.2799C14.4389 14.1298 14.6814 13.9769 14.9242 13.8246C14.9446 13.8126 14.9639 13.7997 14.9933 13.7804Z" fill="#162D4C"/>
<path d="M12.7553 12.5039C12.7782 12.5063 12.7995 12.5168 12.8152 12.5336C13.1801 12.7889 13.545 13.044 13.9097 13.2988C13.9523 13.3282 13.9629 13.3548 13.9517 13.4075C13.8397 13.9395 13.7345 14.4754 13.6253 15.0091C13.6148 15.0542 13.6216 15.1016 13.6443 15.1421C13.6885 15.2261 13.7283 15.3126 13.7689 15.3971C13.7482 15.4198 13.7261 15.4109 13.7067 15.4109C13.2613 15.4109 12.8158 15.4109 12.37 15.4128C12.3508 15.4148 12.3316 15.4102 12.3154 15.3997C12.2992 15.3892 12.2872 15.3735 12.2812 15.3551C12.249 15.2829 12.2143 15.2115 12.1751 15.1426C12.1631 15.1231 12.1563 15.1008 12.1554 15.0779C12.1545 15.055 12.1596 15.0322 12.1701 15.0119C12.3554 14.572 12.538 14.131 12.7228 13.6911C12.7454 13.638 12.7567 13.5808 12.7561 13.5231C12.7542 13.1846 12.7553 12.8466 12.7553 12.5039Z" fill="#162D4C"/>
<path d="M18.9181 10.8937C18.0944 10.8937 17.3426 10.6473 16.6437 10.2217C16.3965 10.0716 16.1632 9.89968 15.9468 9.70786C15.9056 9.67146 15.9065 9.64598 15.9378 9.60594C16.1075 9.38866 16.3354 9.32818 16.5978 9.3559C16.6897 9.36686 16.7769 9.40279 16.8498 9.45978C17.412 9.87306 18.0199 10.1948 18.702 10.3642C19.085 10.4588 19.4813 10.4877 19.8741 10.4499C19.9667 10.4415 20.0605 10.4432 20.1541 10.444C20.1927 10.444 20.2381 10.4474 20.256 10.4899C20.2753 10.5378 20.2453 10.5739 20.2123 10.6067C20.1426 10.669 20.06 10.7152 19.9704 10.7419C19.6792 10.8427 19.3771 10.8805 19.071 10.8928C19.0206 10.8954 18.9694 10.8937 18.9181 10.8937Z" fill="#162D4C"/>
<path d="M16.834 10.5918C17.1086 10.7505 17.4033 10.8717 17.7101 10.9522C17.7865 10.9728 17.8641 10.9889 17.9425 11.0003C17.9887 11.0065 17.9946 11.0261 17.9901 11.0642C17.9813 11.1804 17.9553 11.2946 17.9131 11.4032C17.7476 11.7882 17.5583 12.1629 17.399 12.5513C17.3326 12.7128 17.264 12.8735 17.231 13.046C17.1924 13.242 17.3282 13.3845 17.5258 13.349C17.579 13.3395 17.595 13.3523 17.6048 13.4016C17.6194 13.4795 17.6272 13.5585 17.628 13.6377C17.6297 13.6561 17.6254 13.6747 17.6159 13.6906C17.6063 13.7065 17.5919 13.7189 17.5748 13.7261C17.355 13.8395 17.1459 13.7989 16.9555 13.6657C16.7536 13.5243 16.6755 13.3098 16.6637 13.0718C16.648 12.7772 16.687 12.4855 16.725 12.194C16.7743 11.8199 16.8544 11.4503 16.8914 11.074C16.9034 10.9513 16.8634 10.8343 16.8524 10.7139C16.848 10.6769 16.8412 10.6397 16.834 10.5918Z" fill="#162D4C"/>
<path d="M15.7281 7.90285L14.6641 8.05042C14.6674 8.01962 14.6921 8.0101 14.7077 7.99581C14.8983 7.82781 15.0895 7.66036 15.2812 7.49348C15.2997 7.47752 15.317 7.4428 15.3487 7.47836L15.7281 7.90285Z" fill="#DCAA10"/>
</svg>
