<svg width="28" height="28" viewBox="0 0 28 28" fill="none" xmlns="http://www.w3.org/2000/svg">
<path d="M26.7271 0.167969H1.27285C0.66264 0.167969 0.167969 0.66264 0.167969 1.27285V26.7271C0.167969 27.3373 0.66264 27.832 1.27285 27.832H26.7271C27.3373 27.832 27.832 27.3373 27.832 26.7271V1.27285C27.832 0.66264 27.3373 0.167969 26.7271 0.167969Z" fill="#5C2682"/>
<path d="M5.51167 11.3217V12.3436H7.77238V13.2847H5.51167V15.119H4.46924V10.3809H8.07674V11.3217H5.51167Z" fill="white"/>
<path d="M12.6944 14.7054C12.5616 14.8104 12.4174 14.9001 12.2646 14.9728C12.1017 15.0494 11.9301 15.1058 11.7536 15.1408C11.5485 15.1811 11.3399 15.2004 11.1309 15.1985C10.7987 15.2015 10.4694 15.137 10.1629 15.0089C9.8742 14.8887 9.61199 14.7128 9.39123 14.4912C9.17244 14.269 8.99989 14.0056 8.88359 13.7162C8.76073 13.4131 8.6986 13.0888 8.70075 12.7617V12.7482C8.69828 12.422 8.76042 12.0984 8.88359 11.7962C9.00143 11.5068 9.17376 11.2426 9.39123 11.0181C9.6125 10.7915 9.87726 10.6119 10.1696 10.4901C10.4875 10.359 10.8288 10.2941 11.1726 10.2991C11.3757 10.2976 11.5786 10.3157 11.7782 10.3531C11.9487 10.3858 12.1154 10.4357 12.2758 10.5021C12.4214 10.5636 12.5599 10.6407 12.6888 10.7323C12.8141 10.8218 12.9318 10.9214 13.0408 11.0302L12.3766 11.7948C12.207 11.6389 12.0168 11.507 11.8113 11.4029C11.6097 11.306 11.3884 11.2574 11.1648 11.2609C10.9748 11.2591 10.7866 11.2984 10.6132 11.376C10.447 11.4504 10.2983 11.5587 10.1766 11.694C10.0534 11.8317 9.95699 11.9913 9.89243 12.1644C9.82384 12.3473 9.78939 12.5412 9.79079 12.7365V12.7499C9.78961 12.9463 9.82404 13.1412 9.89243 13.3253C9.956 13.499 10.0509 13.6596 10.1724 13.7991C10.2964 13.9393 10.4491 14.0512 10.6202 14.1271C10.7913 14.203 10.9768 14.2411 11.1639 14.2389C11.4348 14.2389 11.6638 14.1893 11.851 14.09C12.054 13.9795 12.2417 13.843 12.4094 13.684L13.0727 14.354C12.9557 14.4806 12.8292 14.598 12.6944 14.7054Z" fill="white"/>
<path d="M17.6154 15.119V12.0256L16.2818 14.0494H16.2538L14.9339 12.046V15.119H13.9062V10.3809H15.0296L16.275 12.3845L17.5205 10.3809H18.6441V15.119H17.6154Z" fill="white"/>
<path d="M23.6764 14.3879C23.5926 14.5509 23.4695 14.6904 23.3183 14.7939C23.1481 14.9087 22.9583 14.9913 22.7583 15.0378C22.5198 15.0942 22.2753 15.1215 22.0303 15.119H19.7808V10.3809H21.9768C22.4631 10.3809 22.8447 10.4915 23.1217 10.7127C23.3987 10.9339 23.5373 11.2317 23.5375 11.6061V11.621C23.5395 11.7424 23.5224 11.8635 23.4868 11.9796C23.4553 12.0788 23.4101 12.173 23.3524 12.2596C23.2976 12.3417 23.2316 12.4158 23.1564 12.4797C23.0832 12.5425 23.0032 12.597 22.9179 12.6421C23.1917 12.7461 23.4073 12.8871 23.5647 13.0652C23.722 13.2433 23.8006 13.4899 23.8004 13.805V13.8184C23.8052 14.0154 23.7627 14.2107 23.6764 14.3879ZM22.5085 11.782C22.5085 11.6241 22.4499 11.5034 22.3327 11.4199C22.2155 11.3365 22.0462 11.2948 21.825 11.2948H20.796V12.2963H21.7564C21.9866 12.2963 22.1693 12.2568 22.3047 12.1779C22.44 12.0989 22.5077 11.9714 22.5077 11.7954L22.5085 11.782ZM22.7726 13.6773C22.775 13.6044 22.7596 13.532 22.7278 13.4665C22.6959 13.4009 22.6485 13.3441 22.5897 13.301C22.4678 13.2086 22.2718 13.1619 22.0017 13.161H20.7977V14.2034H22.0364C22.2666 14.2034 22.4471 14.1617 22.578 14.0782C22.7088 13.9948 22.7741 13.8651 22.774 13.689L22.7726 13.6773Z" fill="white"/>
<path d="M23.7225 18.1543V20.4744H4.3667V19.2541C4.36666 19.1097 4.39509 18.9667 4.45034 18.8332C4.5056 18.6997 4.58662 18.5785 4.68875 18.4764C4.79089 18.3742 4.91215 18.2932 5.04561 18.2379C5.17906 18.1827 5.3221 18.1543 5.46654 18.1543H23.7225Z" fill="#FAB613"/>
<path d="M4.3667 21.2246H23.7225V23.5447H5.46654C5.32207 23.5447 5.17901 23.5163 5.04554 23.461C4.91207 23.4057 4.79079 23.3247 4.68865 23.2225C4.58651 23.1204 4.50551 22.9991 4.45026 22.8656C4.39502 22.7321 4.36663 22.589 4.3667 22.4446V21.2246Z" fill="#FAB613"/>
</svg>
