<svg width="28" height="28" viewBox="0 0 28 28" fill="none" xmlns="http://www.w3.org/2000/svg">
<path d="M3.64972 25.7002H2.56528L2.57928 25.1792V21.9233C2.57771 21.777 2.56837 21.631 2.55128 21.4857C2.54429 21.4163 2.52896 21.3481 2.50564 21.2824C2.47756 21.2274 2.44497 21.1749 2.4082 21.1253L2.4642 20.9761H3.66484L4.98812 20.9551C5.07127 21.0788 5.12139 21.2218 5.13372 21.3703C5.1496 21.5213 5.13102 21.6739 5.0794 21.8166H4.91448C4.8932 21.7147 4.8148 21.6279 4.67928 21.5562C4.54601 21.4851 4.39847 21.4447 4.24752 21.4381L3.61556 21.4101C3.58495 21.9566 3.56974 22.4997 3.56992 23.0391H4.46844C4.54087 23.0391 4.59687 23.038 4.63644 23.0358C4.68643 23.0309 4.73552 23.0193 4.78232 23.001C4.83684 22.9818 4.88653 22.951 4.92792 22.9106C4.94337 22.9907 4.95153 23.0721 4.95228 23.1536C4.95228 23.4478 4.73351 23.5949 4.29596 23.5949C4.20692 23.5949 4.08055 23.5926 3.91684 23.5879C3.75314 23.5833 3.63498 23.5809 3.56236 23.5809C3.56012 23.8889 3.56367 24.2271 3.573 24.5954L3.58336 25.1512L3.601 25.3735C3.60455 25.4839 3.6209 25.5936 3.64972 25.7002Z" fill="#11237D"/>
<path d="M6.85801 24.1514C6.85801 24.8137 6.88377 25.3301 6.93529 25.7006H5.92729L5.96593 23.2761C5.9674 23.1437 5.95444 23.0115 5.92729 22.8818C5.91069 22.7929 5.88106 22.7068 5.83937 22.6265C5.81028 22.5755 5.77354 22.5292 5.73045 22.4893C5.7042 22.4626 5.67338 22.4407 5.63945 22.4249C5.62585 22.4197 5.61164 22.4162 5.59717 22.4145V22.286C5.87138 22.1191 6.13019 22.0357 6.37361 22.0357C6.72006 22.0357 6.89319 22.2615 6.89301 22.713C6.89301 22.7824 6.88722 22.9 6.87565 23.0655C6.86389 23.2313 6.85801 23.3601 6.85801 23.4528V24.1514ZM5.84357 21.1257C5.84243 21.0599 5.85501 20.9945 5.88051 20.9338C5.90601 20.8731 5.94387 20.8184 5.99169 20.7732C6.03809 20.7265 6.09342 20.6897 6.15438 20.6649C6.21533 20.6402 6.28066 20.6279 6.34645 20.629C6.40977 20.6283 6.47253 20.6408 6.53079 20.6657C6.58905 20.6905 6.64154 20.7271 6.68497 20.7732C6.73131 20.8192 6.76782 20.8742 6.79227 20.9348C6.81672 20.9954 6.82861 21.0604 6.82721 21.1257C6.82807 21.1885 6.81587 21.2508 6.79139 21.3086C6.7669 21.3665 6.73066 21.4186 6.68497 21.4617C6.64089 21.5066 6.58818 21.5422 6.53001 21.5663C6.47183 21.5903 6.4094 21.6024 6.34645 21.6017C6.21431 21.6039 6.0867 21.5535 5.99169 21.4617C5.94457 21.4194 5.90699 21.3676 5.88145 21.3096C5.85591 21.2517 5.843 21.189 5.84357 21.1257Z" fill="#11237D"/>
<path d="M11.3875 25.4253V25.5816C11.1043 25.7249 10.8411 25.7967 10.5979 25.7969C10.4751 25.7939 10.3552 25.7585 10.2504 25.6944C10.1334 25.6289 10.0409 25.527 9.98693 25.4043C9.67594 25.6657 9.35301 25.7963 9.01813 25.7963C8.83291 25.7975 8.64907 25.7645 8.47577 25.6992C8.30263 25.6321 8.14406 25.5323 8.00873 25.4052C7.86705 25.2745 7.75505 25.0962 7.67273 24.8704C7.59041 24.6445 7.54943 24.3832 7.54981 24.0864C7.55015 23.8897 7.57431 23.6937 7.62177 23.5028C7.67072 23.3069 7.74608 23.1185 7.84577 22.9428C7.94274 22.7677 8.06354 22.6068 8.20473 22.4649C8.34969 22.3221 8.52144 22.2093 8.71013 22.1331C8.91246 22.0497 9.12942 22.0076 9.34825 22.0093C9.46279 22.0116 9.57683 22.0251 9.68873 22.0496C9.81939 22.0761 9.88473 22.0941 9.88473 22.1034C9.88473 21.9574 9.88351 21.8226 9.88109 21.6988C9.87866 21.575 9.87521 21.4621 9.87073 21.36C9.86708 21.2686 9.85707 21.1776 9.84077 21.0876C9.82803 21.016 9.80746 20.946 9.77945 20.879C9.75539 20.8216 9.71902 20.7703 9.6729 20.7286C9.62679 20.6869 9.57206 20.6558 9.51261 20.6376V20.5091L9.61089 20.457C9.69903 20.411 9.792 20.3748 9.88809 20.3492C9.99975 20.3156 10.1156 20.2981 10.2322 20.2971C10.3197 20.2952 10.407 20.3046 10.492 20.3251C10.5616 20.3449 10.625 20.382 10.6763 20.4329C10.7374 20.4978 10.7793 20.5783 10.7972 20.6656C10.826 20.7941 10.8393 20.9256 10.8367 21.0573V21.1478C10.8367 21.1896 10.8309 21.347 10.8194 21.6201C10.8078 21.8932 10.7954 22.2283 10.7821 22.6253C10.7692 23.0214 10.7628 23.3908 10.7628 23.7336C10.7628 23.9305 10.7639 24.092 10.7662 24.218C10.7684 24.344 10.7732 24.4702 10.7804 24.5968C10.7848 24.6961 10.7941 24.7952 10.8084 24.8936C10.8202 24.966 10.8373 25.0374 10.8594 25.1072C10.8741 25.1632 10.8997 25.2157 10.9347 25.2618C10.9667 25.2975 11.004 25.328 11.0453 25.3522C11.0911 25.3802 11.1417 25.3992 11.1946 25.4082C11.2584 25.4182 11.3229 25.4239 11.3875 25.4253ZM9.39025 25.2828C9.5799 25.2828 9.73549 25.24 9.85701 25.1543L9.86429 24.3378V22.5654C9.60669 22.5029 9.41479 22.4716 9.28861 22.4716C9.14778 22.4693 9.01076 22.5174 8.90221 22.6071C8.78959 22.7014 8.70359 22.8235 8.65273 22.9613C8.59745 23.1034 8.55637 23.2505 8.53009 23.4006C8.50445 23.5475 8.49152 23.6962 8.49145 23.8453C8.49145 24.2968 8.57451 24.6493 8.74065 24.9028C8.90678 25.1563 9.12331 25.2827 9.39025 25.282V25.2828Z" fill="#11237D"/>
<path d="M14.5401 23.7167L14.4766 23.7433C14.3573 23.7898 14.1958 23.813 13.9922 23.813L12.3987 23.792C12.4032 23.8452 12.4057 23.9334 12.4057 24.0561C12.4148 24.4011 12.5195 24.6717 12.7198 24.8681C12.9201 25.0645 13.143 25.1629 13.3885 25.1635C13.6097 25.1616 13.8279 25.1124 14.0286 25.0193C14.2451 24.922 14.4352 24.753 14.5989 24.5122C14.6387 24.6537 14.6387 24.8034 14.5989 24.9448C14.5607 25.0799 14.4888 25.203 14.39 25.3027C14.2841 25.4082 14.1628 25.4971 14.0302 25.5664C13.8863 25.6431 13.7328 25.7004 13.5738 25.7367C13.4116 25.7743 13.2456 25.7931 13.0791 25.7927C12.8765 25.7944 12.6752 25.7609 12.4841 25.6936C12.2999 25.6273 12.1303 25.526 11.9846 25.3953C11.8352 25.2624 11.7165 25.0836 11.6284 24.8589C11.5403 24.6341 11.4952 24.3759 11.4932 24.0841C11.4932 23.7022 11.5592 23.356 11.6914 23.0456C11.8236 22.7351 12.0146 22.4893 12.2646 22.308C12.5121 22.1269 12.8118 22.0312 13.1186 22.0353C13.29 22.0331 13.4608 22.0559 13.6256 22.1031C13.758 22.1395 13.8836 22.1969 13.9978 22.273C14.0954 22.3422 14.1806 22.4274 14.2498 22.525C14.314 22.6119 14.3681 22.7058 14.411 22.805C14.4492 22.8996 14.4774 22.998 14.495 23.0985C14.5117 23.1835 14.5241 23.2693 14.532 23.3555C14.5368 23.4194 14.539 23.4846 14.539 23.5515L14.5401 23.7167ZM13.0729 22.4696C12.9816 22.4682 12.8921 22.4949 12.8164 22.546C12.7357 22.6038 12.6707 22.6808 12.6272 22.77C12.5754 22.8687 12.5325 22.9718 12.4989 23.078C12.4607 23.2029 12.4297 23.3299 12.406 23.4583C12.5441 23.456 12.7523 23.4491 13.0306 23.4376C13.309 23.426 13.5243 23.419 13.6766 23.4166C13.6744 23.305 13.6615 23.1939 13.638 23.0848C13.6153 22.9796 13.58 22.8776 13.5327 22.781C13.4895 22.6904 13.4244 22.6121 13.3431 22.5533C13.2642 22.4974 13.1696 22.4681 13.0729 22.4696Z" fill="#11237D"/>
<path d="M16.3759 25.7003H15.3679C15.3819 24.9723 15.3889 24.2985 15.3889 23.6787L15.4065 21.4452C15.4065 21.2111 15.3685 21.0244 15.2925 20.8852C15.2166 20.7459 15.1319 20.6627 15.0386 20.6354V20.5069L15.1369 20.4548C15.2275 20.4089 15.3228 20.3728 15.4211 20.347C15.5351 20.3134 15.6533 20.2959 15.7722 20.2949C15.9962 20.2949 16.1506 20.3529 16.2356 20.4688C16.3205 20.5847 16.3626 20.763 16.3619 21.0036C16.3619 21.1496 16.3549 21.3164 16.3409 21.504C16.311 22.0113 16.2961 22.6343 16.2961 23.373V24.2796C16.2961 24.5389 16.3019 24.7901 16.3137 25.0334C16.3231 25.2566 16.3439 25.4792 16.3759 25.7003Z" fill="#11237D"/>
<path d="M18.2991 24.1513C18.2991 24.8136 18.3249 25.33 18.3764 25.7006H17.3684L17.4073 23.2761C17.4089 23.1436 17.3958 23.0114 17.3684 22.8818C17.352 22.7928 17.3225 22.7068 17.2808 22.6265C17.2517 22.5754 17.215 22.5292 17.1719 22.4893C17.1456 22.4625 17.1146 22.4406 17.0806 22.4249C17.0671 22.4196 17.053 22.4161 17.0386 22.4145V22.286C17.3126 22.1191 17.5713 22.0357 17.8147 22.0357C18.1612 22.0357 18.3343 22.2614 18.3341 22.713C18.3341 22.7824 18.3283 22.8999 18.3168 23.0655C18.305 23.2313 18.2991 23.3601 18.2991 23.4527V24.1513ZM17.2847 21.1257C17.2834 21.0599 17.2959 20.9946 17.3212 20.9339C17.3466 20.8732 17.3843 20.8185 17.432 20.7732C17.4783 20.7265 17.5336 20.6897 17.5945 20.665C17.6554 20.6402 17.7207 20.6279 17.7865 20.629C17.8498 20.6283 17.9126 20.6408 17.9709 20.6656C18.0292 20.6905 18.0818 20.7271 18.1253 20.7732C18.1716 20.8192 18.2081 20.8742 18.2326 20.9348C18.257 20.9954 18.2689 21.0604 18.2675 21.1257C18.2684 21.1885 18.2562 21.2508 18.2317 21.3086C18.2072 21.3665 18.1709 21.4186 18.1253 21.4617C18.0811 21.5066 18.0284 21.5422 17.9701 21.5663C17.9119 21.5903 17.8494 21.6024 17.7865 21.6017C17.6544 21.6038 17.5269 21.5535 17.432 21.4617C17.385 21.4193 17.3476 21.3675 17.3222 21.3095C17.2968 21.2516 17.284 21.1889 17.2847 21.1257Z" fill="#11237D"/>
<path d="M20.4834 21.5195L20.4025 22.1101H21.0745C21.1506 22.1094 21.2265 22.1007 21.3007 22.084C21.3817 22.0667 21.4327 22.0372 21.4536 21.9955C21.4685 22.051 21.4756 22.1083 21.4746 22.1658C21.4746 22.4504 21.2687 22.5929 20.8569 22.5931C20.8196 22.5931 20.7418 22.5895 20.6234 22.5824C20.5051 22.5753 20.4249 22.5719 20.3829 22.5721V24.1734C20.3807 24.2406 20.3807 24.3114 20.3829 24.3853C20.3851 24.4593 20.3882 24.5329 20.3916 24.606C20.3948 24.6766 20.4067 24.7466 20.4269 24.8143C20.4445 24.8752 20.4698 24.9336 20.5022 24.9882C20.5343 25.0394 20.5798 25.0808 20.6338 25.108C20.6964 25.1392 20.7657 25.1547 20.8357 25.1531C20.9894 25.1518 21.142 25.1277 21.2887 25.0817C21.4452 25.0344 21.5438 24.9714 21.5835 24.8924C21.6137 24.9626 21.626 25.0392 21.6192 25.1153C21.6125 25.1914 21.5869 25.2646 21.5449 25.3284C21.4585 25.4708 21.3233 25.5843 21.1395 25.6689C20.9539 25.7538 20.7519 25.7971 20.5478 25.7957C20.3281 25.7957 20.1462 25.7702 20.0021 25.7193C19.8705 25.6773 19.7556 25.5947 19.6739 25.4832C19.5983 25.3752 19.5457 25.2529 19.5194 25.1237C19.4887 24.9605 19.4746 24.7947 19.4774 24.6287C19.4774 24.4526 19.489 24.1913 19.5124 23.8447C19.5357 23.498 19.5474 23.2444 19.5474 23.0839C19.5474 22.8106 19.5264 22.6474 19.4844 22.5942C19.3913 22.4755 19.2663 22.3858 19.124 22.3357L19.159 22.1241C19.1875 22.1228 19.2157 22.1181 19.243 22.1101C19.299 22.0929 19.3536 22.0715 19.4063 22.0459C19.4983 21.9986 19.5815 21.9357 19.6521 21.86C19.7515 21.7579 19.8375 21.6434 19.908 21.5195H20.4834Z" fill="#11237D"/>
<path d="M23.8306 25.693L23.7466 25.6583C23.676 25.6278 23.6123 25.5836 23.559 25.5281C23.4924 25.4661 23.4433 25.3876 23.4167 25.3005L22.7881 23.3231C22.748 23.1886 22.6969 23.0575 22.6355 22.9311C22.591 22.8368 22.538 22.7467 22.4773 22.6618C22.435 22.6043 22.3875 22.5508 22.3354 22.5019C22.3027 22.4709 22.2674 22.4428 22.2298 22.4179C22.2136 22.4074 22.196 22.3992 22.1775 22.3936L22.1702 22.265C22.2674 22.1982 22.373 22.1445 22.4843 22.1054C22.5957 22.0614 22.7141 22.0376 22.8338 22.0352C23.0352 22.0352 23.1826 22.0826 23.2759 22.1774C23.3692 22.2722 23.4439 22.4239 23.4999 22.6324C23.5466 22.9012 23.7338 23.4892 24.0616 24.3964L24.1475 24.5717C24.2002 24.6794 24.2288 24.7402 24.2335 24.7542L24.2685 24.6083C24.2872 24.5245 24.3119 24.442 24.3424 24.3617L24.7952 23.0798C24.8607 22.8971 24.8935 22.7478 24.8935 22.6318C24.8935 22.5159 24.8537 22.436 24.7742 22.3922L24.7599 22.2636C24.922 22.1244 25.1263 22.0439 25.3398 22.0352C25.5078 22.0352 25.5918 22.1232 25.5918 22.2992C25.5918 22.4218 25.5321 22.6302 25.4126 22.9244L23.9815 26.4121C23.93 26.5371 23.8867 26.6385 23.8516 26.7162C23.8165 26.7938 23.7712 26.8855 23.7158 26.9911C23.6698 27.0818 23.6127 27.1665 23.5458 27.2431C23.4833 27.3106 23.4158 27.3733 23.3439 27.4307C23.2674 27.493 23.179 27.5391 23.0841 27.5662C22.9809 27.5947 22.8742 27.6085 22.7671 27.6071C22.5517 27.6071 22.3826 27.5261 22.2598 27.3641C22.137 27.202 22.0996 27.0005 22.1478 26.7596C22.1946 26.8174 22.2701 26.8649 22.3743 26.9021C22.475 26.9386 22.5813 26.9576 22.6885 26.9581C22.8662 26.9581 23.0177 26.9251 23.1429 26.8592C23.2622 26.7994 23.3563 26.6989 23.4081 26.5759L23.7441 25.8431L23.8306 25.693Z" fill="#11237D"/>
<path d="M21.6039 0.442138C21.4249 0.409089 21.2433 0.3925 21.0613 0.392578H4.09666C4.05628 0.392652 4.01758 0.408724 3.98903 0.437274C3.96048 0.465823 3.94441 0.504523 3.94434 0.544898V14.7709C3.9441 15.4462 4.17257 16.1017 4.59254 16.6306C9.48974 14.735 18.0978 8.11414 21.9805 0.536218C21.8572 0.496591 21.7314 0.465162 21.6039 0.442138Z" fill="#11237D"/>
<path d="M24.057 3.38849V17.6139C24.0569 17.6543 24.0409 17.693 24.0123 17.7215C23.9838 17.7501 23.9451 17.7661 23.9047 17.7662H6.94004C6.48965 17.7666 6.04497 17.6653 5.63916 17.47C10.6271 15.4733 19.2626 8.75833 23.0325 1.13281C23.3548 1.41353 23.613 1.76019 23.7898 2.14935C23.9666 2.5385 24.0577 2.96108 24.057 3.38849Z" fill="#4DC247"/>
</svg>
