<svg width="28" height="29" viewBox="0 0 28 29" fill="none" xmlns="http://www.w3.org/2000/svg">
<g clip-path="url(#clip0)">
<path fill-rule="evenodd" clip-rule="evenodd" d="M0 0H28V28.3373H0V0Z" fill="#D94F00"/>
<path fill-rule="evenodd" clip-rule="evenodd" d="M15.9305 5.49609H23.1083V12.6884H15.9305V5.49609ZM7.2529 16.3265V17.0301H8.49001V20.7525H9.34302V17.0016H10.4948V16.298L7.2529 16.3269V16.3265ZM6.61579 17.1987V16.4951C5.93145 16.1857 5.14447 16.0922 4.33868 16.4951C3.01724 17.086 2.97001 20.0118 4.29194 20.5838C5.05097 20.9684 6.63411 20.7901 6.79362 20.4522V18.1361H5.21965V18.7457H5.91266V19.965C3.63555 21.0715 3.21386 15.7544 6.61579 17.1987ZM11.8823 18.7081H12.6972C13.3719 18.7366 13.5503 20.0118 12.6693 20.0021H11.8823V18.7081ZM11.8823 16.9173H12.6972C13.3719 17.0392 13.1286 18.0426 12.6693 18.0706H11.8823V16.9173ZM11.0389 16.233V20.7149H13.2784C14.4216 20.3024 14.4688 18.5303 13.2784 18.3424C14.3748 18.2209 14.4312 16.2045 12.5382 16.2045L11.0389 16.233ZM14.9931 17.4893V18.1549C15.5927 17.9862 16.8953 17.5173 16.7734 18.5115C15.6303 18.4363 14.8524 18.6426 14.7213 19.3549C14.5059 20.8932 16.1551 21.0431 16.8486 20.2836V20.6493H17.6356V17.9486C17.4389 17.0763 16.1368 16.964 14.9931 17.4893ZM15.6582 19.2243C15.8365 18.9896 16.4081 18.9987 16.7922 19.1115V19.7024C16.1647 20.3771 15.1527 20.0681 15.6587 19.2238L15.6582 19.2243ZM19.2664 18.2865C19.4727 18.0614 20.569 17.6392 20.7377 18.2865V20.6681H21.6182V18.1457C21.4307 17.0951 20.4278 16.9077 19.21 17.6204V17.2267H18.3763V20.6869H19.2568L19.2664 18.2865ZM24.3825 17.1891L23.2303 18.7361L24.4486 20.6397L25.5074 20.6118L24.1676 18.7833L25.3763 17.2171L24.383 17.1891H24.3825ZM22.2746 16.0542H23.1459V20.6397H22.2741V16.0546L22.2746 16.0542Z" fill="white"/>
<path fill-rule="evenodd" clip-rule="evenodd" d="M15.9302 5.49609H23.108V12.6884H15.9302V5.49609Z" fill="white"/>
</g>
<defs>
<clipPath id="clip0">
<rect width="28" height="28.3373" fill="white"/>
</clipPath>
</defs>
</svg>
