<svg width="135" height="40" viewBox="0 0 135 40" fill="none" xmlns="http://www.w3.org/2000/svg">
<rect width="135" height="40" rx="5" fill="#4F1699"/>
<path fill-rule="evenodd" clip-rule="evenodd" d="M5 0H130C132.761 0 135 2.23858 135 5V35C135 37.7614 132.761 40 130 40H5C2.23858 40 0 37.7614 0 35V5C0 2.23858 2.23858 0 5 0ZM134.2 5C134.2 2.6804 132.32 0.8 130 0.8H5C2.6804 0.8 0.8 2.6804 0.8 5V35C0.8 37.3196 2.6804 39.2 5 39.2H130C132.32 39.2 134.2 37.3196 134.2 35V5Z" fill="#4F1699"/>
<path fill-rule="evenodd" clip-rule="evenodd" d="M69.21 7.76997C68.0303 9.01874 68.0303 10.9712 69.21 12.22C70.4271 13.4302 72.393 13.4302 73.61 12.22C74.7948 10.9732 74.7948 9.01673 73.61 7.76997C73.028 7.18372 72.2361 6.854 71.41 6.854C70.584 6.854 69.792 7.18372 69.21 7.76997ZM46.67 12.24C47.1833 11.7041 47.4544 10.9812 47.42 10.24C47.4201 10.0891 47.4067 9.93849 47.38 9.78997H44.47V10.51H46.64C46.6252 10.9635 46.4478 11.3965 46.14 11.73C45.4546 12.3925 44.4379 12.5776 43.563 12.1992C42.688 11.8208 42.1266 10.9532 42.14 9.99997C42.1183 9.36919 42.3544 8.75676 42.7941 8.30391C43.2337 7.85106 43.8389 7.59687 44.47 7.59997C45.0979 7.56566 45.7054 7.82865 46.11 8.30997L46.64 7.77997C46.384 7.48553 46.0619 7.25592 45.7 7.10997C45.3114 6.94364 44.8928 6.85856 44.47 6.85997C43.6406 6.84149 42.8406 7.1673 42.26 7.75997C41.3666 8.65929 41.0993 10.0066 41.5817 11.1789C42.0642 12.3512 43.2024 13.12 44.47 13.13C45.2965 13.1594 46.0965 12.8358 46.67 12.24ZM49.3 7.73997H52V6.99997H48.5V13H52V12.26H49.3V10.36H51.76V9.63997H49.3V7.73997ZM55.28 13H54.51V7.73997H52.83V6.99997H57V7.73997H55.28V13ZM60.71 6.99997H59.94V13H60.71V6.99997ZM64.13 13H63.36V7.73997H61.68V6.99997H65.8V7.73997H64.13V13ZM76.52 6.99997H75.58V13H76.36V8.10997L79.41 13H80.21V6.99997H79.44V11.67L76.52 6.99997ZM69.78 11.72C70.6814 12.6175 72.1387 12.6175 73.04 11.72C73.9252 10.7441 73.9252 9.2558 73.04 8.27997C72.1387 7.38241 70.6814 7.38241 69.78 8.27997C68.8948 9.2558 68.8948 10.7441 69.78 11.72Z" fill="white"/>
<path d="M69.21 12.22L69.1373 12.2887L69.1395 12.2909L69.21 12.22ZM69.21 7.76997L69.1391 7.6995L69.1374 7.7013L69.21 7.76997ZM73.61 12.22L73.6806 12.2909L73.6825 12.2889L73.61 12.22ZM73.61 7.76997L73.6825 7.70107L73.681 7.69952L73.61 7.76997ZM47.42 10.24L47.3199 10.2399L47.3201 10.2446L47.42 10.24ZM46.67 12.24L46.7421 12.3093L46.7423 12.3091L46.67 12.24ZM47.38 9.78997L47.4785 9.77229L47.4637 9.68997H47.38V9.78997ZM44.47 9.78997V9.68997H44.37V9.78997H44.47ZM44.47 10.51H44.37V10.61H44.47V10.51ZM46.64 10.51L46.74 10.5132L46.7434 10.41H46.64V10.51ZM46.14 11.73L46.2097 11.802L46.2135 11.7978L46.14 11.73ZM43.563 12.1992L43.5233 12.291H43.5233L43.563 12.1992ZM42.14 9.99997L42.2401 10.0014L42.24 9.99652L42.14 9.99997ZM42.7941 8.30391L42.7223 8.23425L42.7941 8.30391ZM44.47 7.59997L44.4696 7.70015L44.4755 7.69982L44.47 7.59997ZM46.11 8.30997L46.0335 8.37432L46.1037 8.45778L46.1808 8.38068L46.11 8.30997ZM46.64 7.77997L46.7108 7.85068L46.7767 7.78474L46.7155 7.71436L46.64 7.77997ZM45.7 7.10997L45.6607 7.20193L45.6626 7.20271L45.7 7.10997ZM44.47 6.85997L44.4678 6.95998L44.4704 6.95997L44.47 6.85997ZM42.26 7.75997L42.331 7.83045L42.3315 7.82995L42.26 7.75997ZM41.5817 11.1789L41.4893 11.2169L41.5817 11.1789ZM44.47 13.13L44.4736 13.03L44.4708 13.03L44.47 13.13ZM52 7.73997V7.83997H52.1V7.73997H52ZM49.3 7.73997V7.63997H49.2V7.73997H49.3ZM52 6.99997H52.1V6.89997H52V6.99997ZM48.5 6.99997V6.89997H48.4V6.99997H48.5ZM48.5 13H48.4V13.1H48.5V13ZM52 13V13.1H52.1V13H52ZM52 12.26H52.1V12.16H52V12.26ZM49.3 12.26H49.2V12.36H49.3V12.26ZM49.3 10.36V10.26H49.2V10.36H49.3ZM51.76 10.36V10.46H51.86V10.36H51.76ZM51.76 9.63997H51.86V9.53997H51.76V9.63997ZM49.3 9.63997H49.2V9.73997H49.3V9.63997ZM54.51 13H54.41V13.1H54.51V13ZM55.28 13V13.1H55.38V13H55.28ZM54.51 7.73997H54.61V7.63997H54.51V7.73997ZM52.83 7.73997H52.73V7.83997H52.83V7.73997ZM52.83 6.99997V6.89997H52.73V6.99997H52.83ZM57 6.99997H57.1V6.89997H57V6.99997ZM57 7.73997V7.83997H57.1V7.73997H57ZM55.28 7.73997V7.63997H55.18V7.73997H55.28ZM59.94 6.99997V6.89997H59.84V6.99997H59.94ZM60.71 6.99997H60.81V6.89997H60.71V6.99997ZM59.94 13H59.84V13.1H59.94V13ZM60.71 13V13.1H60.81V13H60.71ZM63.36 13H63.26V13.1H63.36V13ZM64.13 13V13.1H64.23V13H64.13ZM63.36 7.73997H63.46V7.63997H63.36V7.73997ZM61.68 7.73997H61.58V7.83997H61.68V7.73997ZM61.68 6.99997V6.89997H61.58V6.99997H61.68ZM65.8 6.99997H65.9V6.89997H65.8V6.99997ZM65.8 7.73997V7.83997H65.9V7.73997H65.8ZM64.13 7.73997V7.63997H64.03V7.73997H64.13ZM75.58 6.99997V6.89997H75.48V6.99997H75.58ZM76.52 6.99997L76.6048 6.94695L76.5755 6.89997H76.52V6.99997ZM75.58 13H75.48V13.1H75.58V13ZM76.36 13V13.1H76.46V13H76.36ZM76.36 8.10997L76.4449 8.05705L76.26 7.76069V8.10997H76.36ZM79.41 13L79.3252 13.0529L79.3546 13.1H79.41V13ZM80.21 13V13.1H80.31V13H80.21ZM80.21 6.99997H80.31V6.89997H80.21V6.99997ZM79.44 6.99997V6.89997H79.34V6.99997H79.44ZM79.44 11.67L79.3553 11.723L79.54 12.0185V11.67H79.44ZM73.04 11.72L73.1107 11.7909L73.1141 11.7872L73.04 11.72ZM69.78 11.72L69.7059 11.7872L69.7095 11.7908L69.78 11.72ZM73.04 8.27997L73.1142 8.2127L73.1106 8.20911L73.04 8.27997ZM69.78 8.27997L69.7094 8.20902L69.706 8.21278L69.78 8.27997ZM69.2827 12.1513C68.1394 10.9411 68.1394 9.04887 69.2827 7.83864L69.1374 7.7013C67.9212 8.98861 67.9212 11.0013 69.1374 12.2886L69.2827 12.1513ZM73.5395 12.1491C72.3615 13.3205 70.4586 13.3205 69.2806 12.1491L69.1395 12.2909C70.3955 13.5399 72.4245 13.5399 73.6806 12.2909L73.5395 12.1491ZM73.5376 7.83886C74.6856 9.04702 74.6856 10.9429 73.5376 12.1511L73.6825 12.2889C74.904 11.0035 74.904 8.98644 73.6825 7.70109L73.5376 7.83886ZM71.41 6.954C72.2095 6.954 72.9758 7.27308 73.5391 7.84042L73.681 7.69952C73.0802 7.09435 72.2628 6.754 71.41 6.754V6.954ZM69.281 7.84042C69.8442 7.27308 70.6106 6.954 71.41 6.954V6.754C70.5573 6.754 69.7398 7.09435 69.1391 7.69952L69.281 7.84042ZM47.3201 10.2446C47.3532 10.9585 47.0922 11.6547 46.5978 12.1708L46.7423 12.3091C47.2745 11.7535 47.5556 11.0039 47.5199 10.2353L47.3201 10.2446ZM47.2816 9.80765C47.3072 9.95032 47.3201 10.095 47.32 10.2399L47.52 10.24C47.5201 10.0832 47.5062 9.92666 47.4785 9.77229L47.2816 9.80765ZM44.47 9.88997H47.38V9.68997H44.47V9.88997ZM44.57 10.51V9.78997H44.37V10.51H44.57ZM46.64 10.41H44.47V10.61H46.64V10.41ZM46.2135 11.7978C46.5375 11.4467 46.7244 10.9907 46.74 10.5132L46.5401 10.5067C46.5261 10.9362 46.358 11.3463 46.0666 11.6622L46.2135 11.7978ZM43.5233 12.291C44.4353 12.6855 45.4951 12.4925 46.2095 11.8019L46.0705 11.6581C45.4142 12.2925 44.4406 12.4698 43.6027 12.1074L43.5233 12.291ZM42.0401 9.99857C42.0261 10.9921 42.6112 11.8966 43.5233 12.291L43.6027 12.1074C42.7648 11.7451 42.2272 10.9142 42.24 10.0014L42.0401 9.99857ZM42.7223 8.23425C42.2637 8.70662 42.0174 9.34545 42.0401 10.0034L42.24 9.99652C42.2191 9.39293 42.4451 8.8069 42.8658 8.37357L42.7223 8.23425ZM44.4705 7.49997C43.8122 7.49674 43.1809 7.76188 42.7223 8.23425L42.8658 8.37357C43.2865 7.94023 43.8656 7.69701 44.4696 7.69997L44.4705 7.49997ZM46.1866 8.24562C45.7617 7.74023 45.1239 7.46409 44.4646 7.50012L44.4755 7.69982C45.072 7.66723 45.6491 7.91706 46.0335 8.37432L46.1866 8.24562ZM46.5693 7.70926L46.0393 8.23926L46.1808 8.38068L46.7108 7.85068L46.5693 7.70926ZM45.6626 7.20271C46.0098 7.34276 46.3189 7.56306 46.5646 7.84559L46.7155 7.71436C46.4491 7.40799 46.114 7.16909 45.7374 7.01723L45.6626 7.20271ZM44.4704 6.95997C44.8795 6.95861 45.2846 7.04094 45.6607 7.20191L45.7394 7.01804C45.3382 6.84634 44.9061 6.75852 44.4697 6.75997L44.4704 6.95997ZM42.3315 7.82995C42.8927 7.25703 43.666 6.94208 44.4678 6.95995L44.4723 6.76C43.6152 6.7409 42.7885 7.07757 42.1886 7.69L42.3315 7.82995ZM41.6742 11.1408C41.2071 10.0057 41.4659 8.70122 42.331 7.83045L42.1891 7.68949C41.2673 8.61736 40.9915 10.0074 41.4893 11.2169L41.6742 11.1408ZM44.4708 13.03C43.2434 13.0204 42.1413 12.2759 41.6742 11.1408L41.4893 11.2169C41.987 12.4265 43.1614 13.2197 44.4693 13.23L44.4708 13.03ZM46.598 12.1706C46.0442 12.7459 45.2717 13.0584 44.4736 13.03L44.4665 13.2299C45.3214 13.2603 46.1488 12.9256 46.7421 12.3093L46.598 12.1706ZM52 7.63997H49.3V7.83997H52V7.63997ZM51.9 6.99997V7.73997H52.1V6.99997H51.9ZM48.5 7.09997H52V6.89997H48.5V7.09997ZM48.6 13V6.99997H48.4V13H48.6ZM52 12.9H48.5V13.1H52V12.9ZM51.9 12.26V13H52.1V12.26H51.9ZM49.3 12.36H52V12.16H49.3V12.36ZM49.2 10.36V12.26H49.4V10.36H49.2ZM51.76 10.26H49.3V10.46H51.76V10.26ZM51.66 9.63997V10.36H51.86V9.63997H51.66ZM49.3 9.73997H51.76V9.53997H49.3V9.73997ZM49.2 7.73997V9.63997H49.4V7.73997H49.2ZM54.51 13.1H55.28V12.9H54.51V13.1ZM54.41 7.73997V13H54.61V7.73997H54.41ZM52.83 7.83997H54.51V7.63997H52.83V7.83997ZM52.73 6.99997V7.73997H52.93V6.99997H52.73ZM57 6.89997H52.83V7.09997H57V6.89997ZM57.1 7.73997V6.99997H56.9V7.73997H57.1ZM55.28 7.83997H57V7.63997H55.28V7.83997ZM55.38 13V7.73997H55.18V13H55.38ZM59.94 7.09997H60.71V6.89997H59.94V7.09997ZM60.04 13V6.99997H59.84V13H60.04ZM60.71 12.9H59.94V13.1H60.71V12.9ZM60.61 6.99997V13H60.81V6.99997H60.61ZM63.36 13.1H64.13V12.9H63.36V13.1ZM63.26 7.73997V13H63.46V7.73997H63.26ZM61.68 7.83997H63.36V7.63997H61.68V7.83997ZM61.58 6.99997V7.73997H61.78V6.99997H61.58ZM65.8 6.89997H61.68V7.09997H65.8V6.89997ZM65.9 7.73997V6.99997H65.7V7.73997H65.9ZM64.13 7.83997H65.8V7.63997H64.13V7.83997ZM64.23 13V7.73997H64.03V13H64.23ZM75.58 7.09997H76.52V6.89997H75.58V7.09997ZM75.68 13V6.99997H75.48V13H75.68ZM76.36 12.9H75.58V13.1H76.36V12.9ZM76.26 8.10997V13H76.46V8.10997H76.26ZM79.4949 12.947L76.4449 8.05705L76.2752 8.16289L79.3252 13.0529L79.4949 12.947ZM80.21 12.9H79.41V13.1H80.21V12.9ZM80.11 6.99997V13H80.31V6.99997H80.11ZM79.44 7.09997H80.21V6.89997H79.44V7.09997ZM79.54 11.67V6.99997H79.34V11.67H79.54ZM76.4352 7.05299L79.3553 11.723L79.5248 11.617L76.6048 6.94695L76.4352 7.05299ZM72.9695 11.6491C72.1072 12.5078 70.7129 12.5078 69.8506 11.6491L69.7095 11.7908C70.6498 12.7273 72.1703 12.7273 73.1106 11.7908L72.9695 11.6491ZM72.966 8.34716C73.8166 9.28487 73.8166 10.7151 72.966 11.6528L73.1141 11.7872C74.0339 10.7732 74.0339 9.22673 73.1141 8.21278L72.966 8.34716ZM69.8506 8.35083C70.7129 7.49212 72.1072 7.49212 72.9695 8.35083L73.1106 8.20911C72.1703 7.27269 70.6498 7.27269 69.7095 8.20911L69.8506 8.35083ZM69.8541 11.6528C69.0035 10.7151 69.0035 9.28487 69.8541 8.34716L69.706 8.21278C68.7862 9.22673 68.7862 10.7732 69.706 11.7872L69.8541 11.6528Z" fill="white"/>
<path fill-rule="evenodd" clip-rule="evenodd" d="M47.74 23.0599V24.8599H52.06C51.9922 25.7077 51.6398 26.5077 51.06 27.1299C50.186 28.0201 48.9765 28.4996 47.73 28.4499C45.079 28.4499 42.93 26.3009 42.93 23.6499C42.93 20.9989 45.079 18.8499 47.73 18.8499C48.9478 18.83 50.1237 19.2939 51 20.1399L52.27 18.8699C51.0749 17.6598 49.4407 16.9851 47.74 16.9999C45.3189 16.9057 43.0404 18.1436 41.8018 20.226C40.5633 22.3083 40.5633 24.9015 41.8018 26.9838C43.0404 29.0662 45.3189 30.3041 47.74 30.2099C49.4717 30.2881 51.1527 29.6136 52.35 28.3599C53.3977 27.2088 53.957 25.6957 53.91 24.1399C53.9132 23.7609 53.8797 23.3824 53.81 23.0099L47.74 23.0599ZM58.83 21.7499C56.4841 21.7554 54.5863 23.6606 54.59 26.0065C54.5937 28.3524 56.4974 30.2517 58.8433 30.2499C61.1892 30.248 63.09 28.3458 63.09 25.9999C63.1064 24.8643 62.6612 23.7706 61.8562 22.9694C61.0513 22.1682 59.9555 21.7281 58.82 21.7499H58.83ZM63.91 26.0132C63.9026 23.6686 65.7954 21.7609 68.14 21.7499C69.2755 21.7281 70.3713 22.1682 71.1762 22.9694C71.9812 23.7706 72.4264 24.8643 72.41 25.9999C72.4099 28.3445 70.5112 30.2462 68.1666 30.2498C65.822 30.2535 63.9173 28.3578 63.91 26.0132ZM65.632 27.1183C66.0886 28.0742 67.0832 28.6538 68.14 28.5799C68.8033 28.5645 69.4322 28.2819 69.8841 27.7961C70.336 27.3103 70.5725 26.6626 70.54 25.9999C70.5374 24.9405 69.8875 23.9904 68.9012 23.604C67.9148 23.2175 66.7925 23.4733 66.0709 24.2489C65.3494 25.0246 65.1753 26.1625 65.632 27.1183ZM56.3153 27.126C56.7752 28.0813 57.7726 28.658 58.83 28.5799H58.82C59.4833 28.5645 60.1122 28.2819 60.5641 27.7961C61.016 27.3103 61.2525 26.6626 61.22 25.9999C61.2171 24.9397 60.5659 23.9892 59.5783 23.6036C58.5907 23.218 57.4678 23.4758 56.7473 24.2536C56.0268 25.0314 55.8555 26.1707 56.3153 27.126ZM89.41 21.7499C91.0679 21.8109 92.5161 22.8891 93.05 24.4599L93.26 24.9099L87.57 27.2599C87.9266 28.0721 88.7436 28.5837 89.63 28.5499C90.4858 28.5521 91.2797 28.1038 91.72 27.3699L93.17 28.3699C92.3806 29.5513 91.0508 30.2576 89.63 30.2499C88.5005 30.2665 87.4129 29.823 86.617 29.0215C85.8211 28.2199 85.3854 27.1292 85.41 25.9999C85.3409 24.8964 85.7316 23.8136 86.4894 23.0084C87.2471 22.2033 88.3043 21.7477 89.41 21.7499ZM87.25 25.8799C87.209 25.2551 87.4213 24.64 87.8389 24.1735C88.2566 23.7069 88.8444 23.4281 89.47 23.3999C90.1293 23.3564 90.751 23.7106 91.05 24.2999L87.25 25.8799ZM84.5 29.9999H82.63V17.4999H84.5V29.9999ZM79.57 22.6999H79.5C78.9299 22.0626 78.115 21.6988 77.26 21.6999C74.9901 21.81 73.2063 23.6824 73.2063 25.9549C73.2063 28.2274 74.9901 30.0998 77.26 30.2099C78.1178 30.2243 78.938 29.8582 79.5 29.2099H79.56V29.8199C79.56 31.4499 78.69 32.3199 77.29 32.3199C76.3363 32.2976 75.4907 31.7009 75.15 30.8099L73.52 31.4899C74.1477 33.0167 75.6392 34.0098 77.29 33.9999C79.48 33.9999 81.29 32.7099 81.29 29.5699V21.9999H79.57V22.6999ZM77.4269 28.5796L77.43 28.5799H77.42L77.4269 28.5796ZM79.1119 27.7777C78.6828 28.2633 78.0742 28.5529 77.4269 28.5796C76.0913 28.4603 75.0674 27.3411 75.0674 25.9999C75.0674 24.6576 76.0929 23.5377 77.43 23.4199C78.0761 23.4531 78.6815 23.7457 79.1088 24.2314C79.5362 24.7171 79.7493 25.3548 79.7 25.9999C79.7551 26.6479 79.5426 27.2903 79.1119 27.7777ZM101.81 17.4999H97.34V29.9999H99.21V25.2599H101.82C103.273 25.3643 104.662 24.6484 105.42 23.4049C106.178 22.1613 106.178 20.5985 105.42 19.3549C104.662 18.1114 103.273 17.3955 101.82 17.4999H101.81ZM99.2 23.4999H101.81L101.85 23.5299C103.035 23.5299 103.995 22.5695 103.995 21.3849C103.995 20.2002 103.035 19.2399 101.85 19.2399H99.2V23.4999ZM113.34 21.6999C111.949 21.6167 110.641 22.367 110.01 23.6099L111.67 24.2999C112.004 23.6836 112.671 23.3227 113.37 23.3799C113.85 23.3239 114.331 23.4629 114.708 23.7656C115.084 24.0683 115.322 24.5095 115.37 24.9899V25.1199C114.769 24.8019 114.1 24.637 113.42 24.6399C111.63 24.6399 109.82 25.6399 109.82 27.4499C109.856 28.2296 110.205 28.9617 110.789 29.4797C111.373 29.9977 112.142 30.2574 112.92 30.1999C113.879 30.2688 114.8 29.8086 115.32 28.9999H115.38V29.9999H117.18V25.1899C117.18 22.9999 115.52 21.7299 113.39 21.7299L113.34 21.6999ZM111.65 27.4899C111.65 28.2399 112.5 28.5499 113.11 28.5499L113.16 28.5799C114.286 28.5524 115.221 27.6993 115.35 26.5799C114.831 26.2903 114.244 26.1452 113.65 26.1599C112.71 26.1599 111.65 26.4899 111.65 27.4899ZM123.74 21.9999L121.6 27.4199H121.54L119.32 21.9999H117.32L120.65 29.5799L118.75 33.7899H120.7L125.82 21.9999H123.74ZM108.8 29.9999H106.93V17.4999H108.8V29.9999Z" fill="white"/>
<path fill-rule="evenodd" clip-rule="evenodd" d="M10.44 7.53997C10.1141 7.93108 9.94958 8.43177 9.98002 8.93997V31.06C9.94958 31.5682 10.1141 32.0689 10.44 32.46L10.51 32.53L22.9 20.15V19.86L10.51 7.46997L10.44 7.53997Z" fill="url(#paint0_linear)"/>
<path fill-rule="evenodd" clip-rule="evenodd" d="M27 24.28L22.9 20.15V19.86L27 15.72L27.09 15.77L32 18.56C33.4 19.35 33.4 20.65 32 21.45L27.11 24.23L27 24.28Z" fill="url(#paint1_linear)"/>
<path fill-rule="evenodd" clip-rule="evenodd" d="M27.1199 24.22L22.8999 20L10.4399 32.46C11.0287 32.9775 11.9024 33.0027 12.5199 32.52L27.1299 24.22" fill="url(#paint2_linear)"/>
<path fill-rule="evenodd" clip-rule="evenodd" d="M27.1201 15.7801L12.5101 7.48005C11.8925 6.99733 11.0188 7.02253 10.4301 7.54005L22.9001 20.0001L27.1201 15.7801Z" fill="url(#paint3_linear)"/>
<path opacity="0.2" fill-rule="evenodd" clip-rule="evenodd" d="M26.9999 24.1299L12.5099 32.3799C11.917 32.8232 11.1029 32.8232 10.5099 32.3799L10.4399 32.4499L10.5099 32.5199C11.1018 32.9666 11.9181 32.9666 12.5099 32.5199L27.1199 24.2199L26.9999 24.1299Z" fill="black"/>
<path opacity="0.12" fill-rule="evenodd" clip-rule="evenodd" d="M27 24.13L32 21.3C32.5167 21.045 32.8861 20.5648 33 20C32.9485 20.6244 32.5671 21.1736 32 21.44L27.09 24.22L27 24.13ZM9.97785 31.1147C9.99436 31.5546 10.1558 31.979 10.44 32.32L10.51 32.4L10.44 32.47C10.1236 32.0904 9.95936 31.6075 9.97785 31.1147ZM9.97785 31.1147C9.97841 31.0998 9.97913 31.0849 9.98002 31.07V30.92C9.97612 30.9851 9.97542 31.05 9.97785 31.1147Z" fill="black"/>
<path opacity="0.25" fill-rule="evenodd" clip-rule="evenodd" d="M12.51 7.61994L32 18.6999C32.5167 18.955 32.886 19.4351 33 19.9999C32.9484 19.3755 32.567 18.8263 32 18.5599L12.51 7.47994C11.11 6.68994 9.96997 7.34994 9.96997 8.94994V9.09994C9.99997 7.48994 11.12 6.82994 12.51 7.61994Z" fill="white"/>
<defs>
<linearGradient id="paint0_linear" x1="17.4733" y1="-7.559" x2="-2.36617" y2="-2.28266" gradientUnits="userSpaceOnUse">
<stop stop-color="#00A0FF"/>
<stop offset="0.01" stop-color="#00A1FF"/>
<stop offset="0.26" stop-color="#00BEFF"/>
<stop offset="0.51" stop-color="#00D2FF"/>
<stop offset="0.76" stop-color="#00DFFF"/>
<stop offset="1" stop-color="#00E3FF"/>
</linearGradient>
<linearGradient id="paint1_linear" x1="33.83" y1="9.79966" x2="9.64003" y2="9.79966" gradientUnits="userSpaceOnUse">
<stop stop-color="#FFE000"/>
<stop offset="0.41" stop-color="#FFBD00"/>
<stop offset="0.78" stop-color="#FFA500"/>
<stop offset="1" stop-color="#FF9C00"/>
</linearGradient>
<linearGradient id="paint2_linear" x1="10.0738" y1="13.5275" x2="-5.86261" y2="40.3341" gradientUnits="userSpaceOnUse">
<stop stop-color="#FF3A44"/>
<stop offset="1" stop-color="#C31162"/>
</linearGradient>
<linearGradient id="paint3_linear" x1="0.710073" y1="4.09606" x2="7.82336" y2="16.0665" gradientUnits="userSpaceOnUse">
<stop stop-color="#32A071"/>
<stop offset="0.07" stop-color="#2DA771"/>
<stop offset="0.48" stop-color="#15CF74"/>
<stop offset="0.8" stop-color="#06E775"/>
<stop offset="1" stop-color="#00F076"/>
</linearGradient>
</defs>
</svg>
