<svg width="72" height="44" viewBox="0 0 72 44" fill="none" xmlns="http://www.w3.org/2000/svg">
<path d="M50.0113 30.0093C54.8735 22.9746 58.9288 15.6429 61.2575 8.18924C60.522 8.06924 60.1361 7.61509 60.3771 6.65195L50.5709 4.60981C50.4592 5.58226 49.8571 5.95468 48.8671 5.54088C48.1315 14.3105 45.7366 21.339 43.1121 28.1244C45.9022 19.1841 46.6356 9.82792 44.9918 0L67.6281 4.13807C64.7387 10.6338 59.2009 19.0196 50.0113 30.0093Z" fill="white"/>
<path d="M52.7069 32.1359C57.7295 27.8467 62.4883 22.7321 66.6926 15.8174L63.9769 14.4642L65.5566 11.8779L71.9996 14.7984C67.7333 20.1934 60.712 26.0767 52.7069 32.1359Z" fill="white"/>
<path d="M55.024 15.5435C56.2106 12.6844 56.2472 9.98265 55.1058 9.50892C53.9644 9.03519 52.0771 10.9689 50.8905 13.828C49.7039 16.6871 49.6673 19.3889 50.8087 19.8626C51.9501 20.3364 53.8374 18.4026 55.024 15.5435Z" fill="white"/>
<path d="M42.8131 42.7933C42.8131 42.2109 43.2042 41.793 43.7535 41.793C44.3028 41.793 44.6846 42.2068 44.6846 42.7933C44.6846 43.3499 44.3152 43.7823 43.7442 43.7823C43.1928 43.7823 42.8048 43.3468 42.8131 42.7933Z" fill="white"/>
<path d="M46.408 38.043C46.408 37.2475 46.3821 36.6154 46.3448 35.9833H47.5501L47.6235 37.2113H47.6618C48.0859 36.4871 48.7998 35.8105 50.0681 35.8105C51.1026 35.8105 51.8909 36.4395 52.2178 37.3385H52.2488C52.4611 36.9498 52.7547 36.6114 53.1096 36.3464C53.571 35.9988 54.0675 35.8105 54.7865 35.8105C55.8045 35.8105 57.3035 36.4664 57.3035 39.121V43.6108H55.9503V39.2958C55.9503 37.8185 55.4062 36.9444 54.2951 36.9444C53.4996 36.9444 52.8902 37.5227 52.6451 38.193C52.5713 38.4175 52.5329 38.652 52.5313 38.8882V43.6077H51.1792V39.032C51.1792 37.8185 50.6422 36.9444 49.5953 36.9444C48.7315 36.9444 48.0973 37.6344 47.8666 38.3286C47.7965 38.5493 47.7616 38.7797 47.7632 39.0113V43.6077H46.408V38.043Z" fill="white"/>
<path d="M60.3309 40.0459C60.3578 41.9204 61.5475 42.6932 62.94 42.6932C63.9321 42.6932 64.5383 42.5153 65.0514 42.3021L65.2945 43.287C64.8094 43.5084 63.9621 43.7732 62.7507 43.7732C60.4075 43.7732 58.9995 42.2121 58.9995 39.9248C58.9995 37.6147 60.3599 35.8105 62.5862 35.8105C65.069 35.8105 65.7239 37.9923 65.7239 39.3962C65.7289 39.6137 65.7133 39.8313 65.6773 40.0459H60.3309ZM64.3883 39.0486C64.4028 38.1744 64.0314 36.8037 62.4765 36.8037C61.0603 36.8037 60.4582 38.0834 60.3475 39.0486H64.3883Z" fill="white"/>
<path d="M0.628987 40.0174C1.65557 40.5134 2.77869 40.7776 3.91875 40.7912C5.185 40.7912 5.79433 40.3143 5.79433 39.6036C5.79433 38.868 5.17362 38.4718 3.69116 37.8718C1.34798 36.8756 0.127246 35.4945 0.127246 33.7141C0.127246 31.2747 2.04834 29.335 5.51605 29.335C6.98196 29.335 8.10234 29.6288 8.87823 29.9898L8.18821 32.933C7.34769 32.5279 6.42632 32.3185 5.49329 32.3206C4.3636 32.3206 3.76357 32.7861 3.76357 33.412C3.76357 34.0948 4.37497 34.4155 6.09434 35.149C8.45408 36.1255 9.44204 37.5211 9.44204 39.3253C9.44204 41.8247 7.52301 43.7996 3.7522 43.7996C2.20042 43.7996 0.709679 43.4075 0 43.0371L0.628987 40.0174Z" fill="white"/>
<path d="M14.2694 39.7948C14.3656 40.6472 15.4343 41.1345 16.7326 41.1345C17.6115 41.1432 18.4866 41.0169 19.3272 40.76L19.7793 43.2118C18.6868 43.637 17.3999 43.8035 16.1698 43.8035C12.7559 43.8035 10.8265 41.8741 10.8265 38.6247C10.8265 35.8926 12.4942 33.1211 15.8729 33.1211C18.873 33.1211 20.3151 35.2936 20.3151 38.3009C20.3247 38.8033 20.2821 39.3053 20.1879 39.7989L14.2694 39.7948ZM17.0161 37.3399C17.0161 36.6219 16.7719 35.5357 15.695 35.5357C14.6708 35.5357 14.2798 36.6157 14.2363 37.3399H17.0161Z" fill="white"/>
<path d="M25.9823 30.4512V33.3282H28.0854V35.9362H25.9823V39.2301C25.9823 40.425 26.3299 40.8605 27.1264 40.8605C27.4119 40.8621 27.6969 40.8375 27.9779 40.787V43.5451C27.5485 43.6827 26.7592 43.7996 25.8447 43.7996C24.8102 43.7996 23.9401 43.4685 23.397 42.944C22.7701 42.3357 22.437 41.3798 22.437 39.7753V35.9362H21.1956V33.3282H22.437V31.2477L25.9823 30.4512Z" fill="white"/>
<path d="M33.6908 30.4512V33.3282H35.797V35.9362H33.6908V39.2301C33.6908 40.425 34.0394 40.8605 34.836 40.8605C35.1211 40.8621 35.4057 40.8375 35.6863 40.787V43.5451C35.2581 43.6827 34.4687 43.7996 33.5542 43.7996C32.5197 43.7996 31.6486 43.4685 31.1055 42.944C30.4786 42.3357 30.1455 41.3798 30.1455 39.7753V35.9362H28.9041V33.3282H30.1455V31.2477L33.6908 30.4512Z" fill="white"/>
<path d="M37.3788 28.8867H40.9903V43.6079H37.3788V28.8867Z" fill="white"/>
</svg>
