<svg width="138" height="43" viewBox="0 0 138 43" fill="none" xmlns="http://www.w3.org/2000/svg">
<path d="M43.5002 16.907V20.3698C42.2109 19.5608 40.7212 19.1285 39.1992 19.1217C37.9266 19.1217 37.2138 19.553 37.2138 20.2413C37.2138 21.006 38.0306 21.3089 39.6335 21.7432C41.9493 22.303 44.4179 23.0922 44.4179 26.0686C44.4179 28.8431 42.2276 30.6234 38.4099 30.6234C36.3756 30.6234 34.6197 30.1156 33.3716 29.302V25.5608C34.7382 26.6981 36.4607 27.3195 38.2386 27.3167C39.6641 27.3167 40.4778 26.8578 40.4778 26.0931C40.4778 25.2305 39.4592 24.949 37.6268 24.4412C35.3876 23.805 33.3013 22.8873 33.3013 20.3178C33.3013 17.7482 35.4151 15.8149 39.0523 15.8149C40.7012 15.8149 42.4051 16.2126 43.5002 16.907Z" fill="#401A6D"/>
<path d="M59.1256 24.3648H49.5324C50.0677 26.3746 51.8236 27.4238 53.9588 27.4238C55.5307 27.3889 57.0595 26.9037 58.3639 26.0259V29.3663C56.8688 30.2203 55.1728 30.6596 53.451 30.6388C48.4892 30.6388 45.6382 27.5615 45.6382 23.2973C45.6382 18.8189 48.7951 15.8425 52.7138 15.8425C56.3021 15.8425 59.2296 18.3111 59.2296 23.0158C59.2354 23.4677 59.2006 23.9192 59.1256 24.3648ZM55.3599 21.9177C55.3354 20.0823 54.1883 19.0177 52.6893 19.0177C51.1904 19.0177 49.8383 20.1373 49.4559 21.9177H55.3599Z" fill="#401A6D"/>
<path d="M65.8957 16.1697H69.6644V19.5345H65.8957V24.5941C65.8957 26.3744 67.0673 27.0627 68.6488 27.0627C69.0758 27.0541 69.5013 27.0111 69.9214 26.9342V30.345C69.1943 30.5057 68.4512 30.5827 67.7066 30.5744C63.9654 30.5744 61.9556 28.3597 61.9556 24.848V19.5284H59.958V16.1636H61.9678V12.9119H65.8865L65.8957 16.1697Z" fill="#401A6D"/>
<path d="M76.4586 16.1697H80.2243V19.5345H76.4586V24.5941C76.4586 26.3744 77.6302 27.0627 79.2118 27.0627C79.6377 27.054 80.0623 27.0111 80.4813 26.9342V30.345C79.7552 30.5056 79.0132 30.5826 78.2696 30.5744C74.5283 30.5744 72.5185 28.3597 72.5185 24.848V19.5284H70.5332V16.1636H72.543V12.9119H76.4617L76.4586 16.1697Z" fill="#401A6D"/>
<path d="M82.2612 9.83447H86.3328V30.2837H82.2612V9.83447Z" fill="#401A6D"/>
<path d="M88.5998 28.1425C88.5998 27.6892 88.7343 27.2461 88.9862 26.8693C89.2381 26.4924 89.5961 26.1988 90.0149 26.0254C90.4338 25.8521 90.8946 25.8069 91.3392 25.8956C91.7837 25.9842 92.192 26.2027 92.5123 26.5235C92.8326 26.8442 93.0506 27.2527 93.1386 27.6974C93.2267 28.142 93.1809 28.6028 93.007 29.0214C92.8331 29.44 92.539 29.7976 92.1618 30.049C91.7846 30.3004 91.3413 30.4343 90.888 30.4337C90.5862 30.4374 90.2868 30.3806 90.0073 30.2667C89.7278 30.1529 89.4739 29.9842 89.2607 29.7707C89.0474 29.5571 88.8791 29.303 88.7656 29.0234C88.6521 28.7438 88.5957 28.4442 88.5998 28.1425Z" fill="#401A6D"/>
<path d="M115.523 20.9295V30.2839H111.451V21.7677C111.451 20.2382 110.943 19.5041 109.57 19.5041C108.245 19.5041 107.508 20.4707 107.508 21.6148V30.2839H103.436V21.7677C103.436 20.2382 102.925 19.5041 101.552 19.5041C100.178 19.5041 99.5176 20.5716 99.5176 21.7952V30.2839H95.4429V16.1698H98.5968L99.0036 18.1306H99.0801C99.8173 16.8825 101.041 15.8149 102.999 15.8149C104.957 15.8149 106.232 16.754 106.945 18.2071C107.863 16.7296 109.209 15.8149 110.989 15.8149C114.073 15.8149 115.523 17.8492 115.523 20.9295Z" fill="#401A6D"/>
<path d="M130.928 24.3648H121.329C121.861 26.3746 123.617 27.4238 125.755 27.4238C127.326 27.3888 128.854 26.9036 130.157 26.0259V29.3663C128.663 30.2203 126.968 30.6596 125.247 30.6388C120.283 30.6388 117.435 27.5615 117.435 23.2973C117.435 18.8189 120.588 15.8425 124.507 15.8425C128.095 15.8425 131.023 18.3111 131.023 23.0158C131.032 23.4674 131 23.9189 130.928 24.3648ZM127.162 21.9177C127.135 20.0823 125.991 19.0177 124.489 19.0177C122.987 19.0177 121.638 20.1373 121.258 21.9177H127.162Z" fill="#401A6D"/>
<path d="M18.5775 10.061L9.81934 18.8158H18.5775L27.3356 10.061H18.5775Z" fill="#512E90"/>
<path d="M9.81934 18.8157L18.5775 27.5674H27.3356L18.5775 18.8157H9.81934Z" fill="#8E4F9F"/>
<path d="M18.5775 27.5674L9.81934 36.3252H18.5775L27.3356 27.5674H18.5775Z" fill="#EE2365"/>
</svg>
